<svg xmlns="http://www.w3.org/2000/svg" xmlns:xlink="http://www.w3.org/1999/xlink" width="64" zoomAndPan="magnify" viewBox="0 0 48 48" height="64" preserveAspectRatio="xMidYMid meet" version="1.0"><defs><clipPath id="7c9fd19562"><path d="M 0.488281 0 L 47.507812 0 L 47.507812 47.019531 L 0.488281 47.019531 Z M 0.488281 0 " clip-rule="nonzero"/></clipPath><clipPath id="d38bb5188b"><path d="M 7 28 L 41 28 L 41 47.019531 L 7 47.019531 Z M 7 28 " clip-rule="nonzero"/></clipPath></defs><g clip-path="url(#7c9fd19562)"><path fill="#ff9561" d="M 47.515625 23.511719 C 47.515625 24.28125 47.476562 25.050781 47.402344 25.816406 C 47.324219 26.582031 47.210938 27.34375 47.0625 28.097656 C 46.910156 28.855469 46.726562 29.601562 46.5 30.335938 C 46.277344 31.074219 46.019531 31.796875 45.722656 32.507812 C 45.429688 33.222656 45.101562 33.917969 44.738281 34.59375 C 44.375 35.273438 43.980469 35.933594 43.550781 36.574219 C 43.125 37.214844 42.664062 37.832031 42.175781 38.429688 C 41.6875 39.023438 41.171875 39.59375 40.628906 40.136719 C 40.082031 40.683594 39.511719 41.199219 38.917969 41.6875 C 38.324219 42.175781 37.703125 42.632812 37.0625 43.0625 C 36.425781 43.488281 35.765625 43.882812 35.085938 44.246094 C 34.40625 44.609375 33.710938 44.941406 33 45.234375 C 32.289062 45.527344 31.5625 45.789062 30.828125 46.011719 C 30.089844 46.234375 29.34375 46.421875 28.589844 46.570312 C 27.832031 46.722656 27.074219 46.835938 26.304688 46.910156 C 25.539062 46.984375 24.773438 47.023438 24 47.023438 C 23.230469 47.023438 22.464844 46.984375 21.695312 46.910156 C 20.929688 46.835938 20.171875 46.722656 19.414062 46.570312 C 18.660156 46.421875 17.914062 46.234375 17.175781 46.011719 C 16.441406 45.789062 15.714844 45.527344 15.003906 45.234375 C 14.292969 44.941406 13.597656 44.609375 12.917969 44.246094 C 12.238281 43.882812 11.578125 43.488281 10.9375 43.0625 C 10.300781 42.632812 9.679688 42.175781 9.085938 41.6875 C 8.492188 41.199219 7.921875 40.683594 7.375 40.136719 C 6.832031 39.59375 6.316406 39.023438 5.828125 38.429688 C 5.339844 37.832031 4.878906 37.214844 4.453125 36.574219 C 4.023438 35.933594 3.628906 35.273438 3.265625 34.59375 C 2.902344 33.917969 2.574219 33.222656 2.28125 32.507812 C 1.984375 31.796875 1.726562 31.074219 1.503906 30.335938 C 1.277344 29.601562 1.09375 28.855469 0.941406 28.097656 C 0.792969 27.34375 0.679688 26.582031 0.601562 25.816406 C 0.527344 25.050781 0.488281 24.28125 0.488281 23.511719 C 0.488281 22.742188 0.527344 21.972656 0.601562 21.207031 C 0.679688 20.441406 0.792969 19.679688 0.941406 18.925781 C 1.09375 18.167969 1.277344 17.421875 1.503906 16.6875 C 1.726562 15.949219 1.984375 15.226562 2.28125 14.515625 C 2.574219 13.804688 2.902344 13.109375 3.265625 12.429688 C 3.628906 11.75 4.023438 11.089844 4.453125 10.449219 C 4.878906 9.808594 5.339844 9.191406 5.828125 8.597656 C 6.316406 8 6.832031 7.429688 7.375 6.886719 C 7.921875 6.34375 8.492188 5.824219 9.085938 5.335938 C 9.679688 4.847656 10.300781 4.390625 10.9375 3.960938 C 11.578125 3.535156 12.238281 3.140625 12.917969 2.777344 C 13.597656 2.414062 14.292969 2.085938 15.003906 1.789062 C 15.714844 1.496094 16.441406 1.234375 17.175781 1.011719 C 17.914062 0.789062 18.660156 0.601562 19.414062 0.453125 C 20.171875 0.300781 20.929688 0.1875 21.695312 0.113281 C 22.464844 0.0390625 23.230469 0 24 0 C 24.773438 0 25.539062 0.0390625 26.304688 0.113281 C 27.074219 0.1875 27.832031 0.300781 28.589844 0.453125 C 29.34375 0.601562 30.089844 0.789062 30.828125 1.011719 C 31.5625 1.234375 32.289062 1.496094 33 1.789062 C 33.710938 2.085938 34.40625 2.414062 35.085938 2.777344 C 35.765625 3.140625 36.425781 3.535156 37.0625 3.960938 C 37.703125 4.390625 38.324219 4.847656 38.917969 5.335938 C 39.511719 5.824219 40.082031 6.34375 40.628906 6.886719 C 41.171875 7.429688 41.6875 8 42.175781 8.597656 C 42.664062 9.191406 43.125 9.808594 43.550781 10.449219 C 43.980469 11.089844 44.375 11.75 44.738281 12.429688 C 45.101562 13.109375 45.429688 13.804688 45.722656 14.515625 C 46.019531 15.226562 46.277344 15.949219 46.5 16.6875 C 46.726562 17.421875 46.910156 18.167969 47.0625 18.925781 C 47.210938 19.679688 47.324219 20.441406 47.402344 21.207031 C 47.476562 21.972656 47.515625 22.742188 47.515625 23.511719 Z M 47.515625 23.511719 " fill-opacity="1" fill-rule="nonzero"/></g><path fill="#002c5c" d="M 30.015625 10.335938 C 28.824219 5.757812 15.21875 3.945312 13.40625 14.855469 C 11.597656 25.765625 5.191406 34.867188 19.636719 37.078125 C 34.082031 39.285156 37.171875 33.941406 36.289062 26.917969 C 35.40625 19.894531 33.769531 9.925781 30.015625 10.335938 Z M 30.015625 10.335938 " fill-opacity="1" fill-rule="nonzero"/><g clip-path="url(#d38bb5188b)"><path fill="#00669b" d="M 40.882812 39.894531 C 40.335938 40.457031 39.761719 40.992188 39.160156 41.496094 C 38.5625 42.003906 37.9375 42.476562 37.289062 42.921875 C 36.640625 43.363281 35.972656 43.773438 35.285156 44.152344 C 34.59375 44.527344 33.886719 44.867188 33.164062 45.175781 C 32.441406 45.480469 31.707031 45.75 30.957031 45.980469 C 30.207031 46.214844 29.445312 46.40625 28.675781 46.5625 C 27.90625 46.71875 27.132812 46.835938 26.351562 46.914062 C 25.570312 46.992188 24.785156 47.03125 24 47.03125 C 23.214844 47.03125 22.433594 46.992188 21.652344 46.914062 C 20.871094 46.835938 20.097656 46.71875 19.328125 46.5625 C 18.558594 46.40625 17.796875 46.214844 17.046875 45.980469 C 16.296875 45.75 15.5625 45.480469 14.839844 45.175781 C 14.113281 44.867188 13.410156 44.527344 12.71875 44.152344 C 12.03125 43.773438 11.363281 43.363281 10.714844 42.921875 C 10.066406 42.476562 9.441406 42.003906 8.84375 41.496094 C 8.242188 40.992188 7.667969 40.457031 7.121094 39.894531 C 7.46875 39.066406 7.878906 38.273438 8.34375 37.507812 C 8.808594 36.742188 9.328125 36.015625 9.898438 35.324219 C 10.46875 34.636719 11.089844 33.992188 11.753906 33.394531 C 12.421875 32.796875 13.128906 32.25 13.875 31.753906 C 14.621094 31.257812 15.398438 30.820312 16.210938 30.441406 C 17.023438 30.058594 17.855469 29.738281 18.714844 29.480469 C 19.570312 29.222656 20.441406 29.027344 21.328125 28.898438 C 22.214844 28.765625 23.105469 28.699219 24 28.699219 C 24.898438 28.699219 25.789062 28.765625 26.675781 28.898438 C 27.5625 29.027344 28.433594 29.222656 29.289062 29.480469 C 30.148438 29.738281 30.980469 30.058594 31.792969 30.441406 C 32.601562 30.820312 33.382812 31.257812 34.128906 31.753906 C 34.875 32.25 35.582031 32.796875 36.246094 33.394531 C 36.914062 33.992188 37.535156 34.636719 38.105469 35.324219 C 38.675781 36.015625 39.195312 36.742188 39.660156 37.507812 C 40.125 38.273438 40.53125 39.066406 40.882812 39.894531 Z M 40.882812 39.894531 " fill-opacity="1" fill-rule="nonzero"/></g><path fill="#ff9561" d="M 23.992188 23.511719 C 24.429688 23.511719 24.855469 23.597656 25.257812 23.765625 C 25.664062 23.933594 26.023438 24.171875 26.332031 24.480469 C 26.644531 24.792969 26.882812 25.148438 27.050781 25.554688 C 27.21875 25.960938 27.304688 26.382812 27.304688 26.824219 L 27.304688 29.742188 C 27.304688 30.183594 27.21875 30.605469 27.050781 31.007812 C 26.882812 31.414062 26.644531 31.773438 26.332031 32.082031 C 26.023438 32.394531 25.664062 32.632812 25.257812 32.800781 C 24.855469 32.96875 24.429688 33.054688 23.992188 33.054688 C 23.554688 33.054688 23.132812 32.96875 22.726562 32.800781 C 22.320312 32.632812 21.960938 32.394531 21.652344 32.082031 C 21.339844 31.773438 21.101562 31.414062 20.933594 31.007812 C 20.765625 30.605469 20.683594 30.183594 20.683594 29.742188 L 20.683594 26.824219 C 20.683594 26.382812 20.765625 25.960938 20.933594 25.554688 C 21.101562 25.148438 21.339844 24.792969 21.652344 24.480469 C 21.960938 24.171875 22.320312 23.933594 22.726562 23.765625 C 23.132812 23.597656 23.554688 23.511719 23.992188 23.511719 Z M 23.992188 23.511719 " fill-opacity="1" fill-rule="nonzero"/><path fill="#ff9561" d="M 17.957031 21.425781 C 17.957031 21.703125 17.90625 21.972656 17.800781 22.226562 C 17.695312 22.480469 17.542969 22.707031 17.347656 22.902344 C 17.152344 23.097656 16.925781 23.25 16.667969 23.355469 C 16.414062 23.460938 16.148438 23.515625 15.871094 23.515625 C 15.59375 23.515625 15.328125 23.460938 15.070312 23.355469 C 14.816406 23.25 14.589844 23.097656 14.394531 22.902344 C 14.199219 22.707031 14.046875 22.480469 13.941406 22.226562 C 13.835938 21.972656 13.78125 21.703125 13.78125 21.425781 C 13.78125 21.152344 13.835938 20.882812 13.941406 20.628906 C 14.046875 20.371094 14.199219 20.148438 14.394531 19.953125 C 14.589844 19.753906 14.816406 19.605469 15.070312 19.5 C 15.328125 19.394531 15.59375 19.339844 15.871094 19.339844 C 16.148438 19.339844 16.414062 19.394531 16.667969 19.5 C 16.925781 19.605469 17.152344 19.753906 17.347656 19.953125 C 17.542969 20.148438 17.695312 20.371094 17.800781 20.628906 C 17.90625 20.882812 17.957031 21.152344 17.957031 21.425781 Z M 17.957031 21.425781 " fill-opacity="1" fill-rule="nonzero"/><path fill="#ff9561" d="M 34.007812 21.425781 C 34.007812 21.703125 33.953125 21.972656 33.847656 22.226562 C 33.742188 22.480469 33.59375 22.707031 33.394531 22.902344 C 33.199219 23.097656 32.976562 23.25 32.71875 23.355469 C 32.464844 23.460938 32.195312 23.515625 31.921875 23.515625 C 31.644531 23.515625 31.378906 23.460938 31.121094 23.355469 C 30.867188 23.25 30.640625 23.097656 30.445312 22.902344 C 30.25 22.707031 30.097656 22.480469 29.992188 22.226562 C 29.886719 21.972656 29.832031 21.703125 29.832031 21.425781 C 29.832031 21.152344 29.886719 20.882812 29.992188 20.628906 C 30.097656 20.371094 30.25 20.148438 30.445312 19.953125 C 30.640625 19.753906 30.867188 19.605469 31.121094 19.5 C 31.378906 19.394531 31.644531 19.339844 31.921875 19.339844 C 32.195312 19.339844 32.464844 19.394531 32.71875 19.5 C 32.976562 19.605469 33.199219 19.753906 33.394531 19.953125 C 33.59375 20.148438 33.742188 20.371094 33.847656 20.628906 C 33.953125 20.882812 34.007812 21.152344 34.007812 21.425781 Z M 34.007812 21.425781 " fill-opacity="1" fill-rule="nonzero"/><path fill="#ffc9ac" d="M 24 10.335938 C 24.535156 10.335938 25.0625 10.386719 25.589844 10.492188 C 26.113281 10.597656 26.621094 10.75 27.113281 10.957031 C 27.605469 11.160156 28.074219 11.410156 28.519531 11.707031 C 28.964844 12.003906 29.375 12.339844 29.75 12.71875 C 30.128906 13.09375 30.464844 13.507812 30.761719 13.949219 C 31.058594 14.394531 31.308594 14.863281 31.515625 15.355469 C 31.71875 15.847656 31.871094 16.359375 31.976562 16.882812 C 32.082031 17.40625 32.132812 17.933594 32.132812 18.46875 L 32.132812 20.570312 C 32.132812 21.105469 32.082031 21.632812 31.976562 22.15625 C 31.871094 22.679688 31.71875 23.1875 31.515625 23.679688 C 31.308594 24.175781 31.058594 24.644531 30.761719 25.085938 C 30.464844 25.53125 30.128906 25.941406 29.75 26.320312 C 29.375 26.695312 28.964844 27.035156 28.519531 27.332031 C 28.074219 27.628906 27.605469 27.878906 27.113281 28.082031 C 26.621094 28.285156 26.113281 28.441406 25.589844 28.542969 C 25.0625 28.648438 24.535156 28.699219 24 28.699219 C 23.46875 28.699219 22.9375 28.648438 22.414062 28.542969 C 21.890625 28.441406 21.382812 28.285156 20.890625 28.082031 C 20.398438 27.878906 19.929688 27.628906 19.484375 27.332031 C 19.039062 27.035156 18.628906 26.695312 18.253906 26.320312 C 17.875 25.941406 17.539062 25.53125 17.242188 25.085938 C 16.945312 24.644531 16.695312 24.175781 16.488281 23.679688 C 16.285156 23.1875 16.132812 22.679688 16.027344 22.15625 C 15.921875 21.632812 15.871094 21.105469 15.871094 20.570312 L 15.871094 18.46875 C 15.871094 17.933594 15.921875 17.40625 16.027344 16.882812 C 16.132812 16.359375 16.285156 15.847656 16.488281 15.355469 C 16.695312 14.863281 16.945312 14.394531 17.242188 13.949219 C 17.539062 13.507812 17.875 13.09375 18.253906 12.71875 C 18.628906 12.339844 19.039062 12.003906 19.484375 11.707031 C 19.929688 11.410156 20.398438 11.160156 20.890625 10.957031 C 21.382812 10.75 21.890625 10.597656 22.414062 10.492188 C 22.9375 10.386719 23.46875 10.335938 24 10.335938 Z M 24 10.335938 " fill-opacity="1" fill-rule="nonzero"/><path fill="#002c5c" d="M 15.871094 19.339844 C 26.792969 19.449219 29.832031 13.265625 29.832031 13.265625 C 29.832031 13.265625 30.347656 18.214844 32.132812 19.519531 C 33.066406 14.328125 30.324219 9.601562 23.214844 9.246094 C 16.101562 8.894531 14.179688 17.019531 15.871094 19.339844 Z M 15.871094 19.339844 " fill-opacity="1" fill-rule="nonzero"/></svg>