<svg xmlns="http://www.w3.org/2000/svg" xmlns:xlink="http://www.w3.org/1999/xlink" width="64" zoomAndPan="magnify" viewBox="0 0 48 48" height="64" preserveAspectRatio="xMidYMid meet" version="1.0"><defs><clipPath id="091cbae9b6"><path d="M 0.488281 0 L 47.507812 0 L 47.507812 47.019531 L 0.488281 47.019531 Z M 0.488281 0 " clip-rule="nonzero"/></clipPath><clipPath id="656bf7ed54"><path d="M 0.488281 23.515625 C 0.488281 21.972656 0.640625 20.441406 0.941406 18.925781 C 1.242188 17.414062 1.6875 15.941406 2.28125 14.515625 C 2.871094 13.089844 3.59375 11.734375 4.453125 10.449219 C 5.3125 9.167969 6.285156 7.980469 7.378906 6.886719 C 8.46875 5.796875 9.65625 4.820312 10.941406 3.964844 C 12.222656 3.105469 13.578125 2.378906 15.007812 1.789062 C 16.433594 1.199219 17.902344 0.753906 19.417969 0.453125 C 20.929688 0.152344 22.460938 0 24.003906 0 C 25.546875 0 27.078125 0.152344 28.59375 0.453125 C 30.105469 0.753906 31.578125 1.199219 33.003906 1.789062 C 34.429688 2.378906 35.785156 3.105469 37.070312 3.964844 C 38.351562 4.820312 39.539062 5.796875 40.632812 6.886719 C 41.722656 7.980469 42.699219 9.167969 43.554688 10.449219 C 44.414062 11.734375 45.136719 13.089844 45.730469 14.515625 C 46.320312 15.941406 46.765625 17.414062 47.066406 18.925781 C 47.367188 20.441406 47.519531 21.972656 47.519531 23.515625 C 47.519531 25.058594 47.367188 26.589844 47.066406 28.101562 C 46.765625 29.617188 46.320312 31.085938 45.730469 32.511719 C 45.136719 33.941406 44.414062 35.296875 43.554688 36.578125 C 42.699219 37.863281 41.722656 39.050781 40.632812 40.140625 C 39.539062 41.234375 38.351562 42.207031 37.070312 43.066406 C 35.785156 43.925781 34.429688 44.648438 33.003906 45.238281 C 31.578125 45.832031 30.105469 46.277344 28.59375 46.578125 C 27.078125 46.878906 25.546875 47.03125 24.003906 47.03125 C 22.460938 47.03125 20.929688 46.878906 19.417969 46.578125 C 17.902344 46.277344 16.433594 45.832031 15.007812 45.238281 C 13.578125 44.648438 12.222656 43.925781 10.941406 43.066406 C 9.65625 42.207031 8.46875 41.234375 7.378906 40.140625 C 6.285156 39.050781 5.3125 37.863281 4.453125 36.578125 C 3.59375 35.296875 2.871094 33.941406 2.28125 32.511719 C 1.6875 31.085938 1.242188 29.617188 0.941406 28.101562 C 0.640625 26.589844 0.488281 25.058594 0.488281 23.515625 Z M 0.488281 23.515625 " clip-rule="nonzero"/></clipPath><clipPath id="145c0bbb24"><path d="M 7 30 L 45 30 L 45 47.019531 L 7 47.019531 Z M 7 30 " clip-rule="nonzero"/></clipPath><clipPath id="4b6321e8a7"><path d="M 0.488281 23.515625 C 0.488281 21.972656 0.640625 20.441406 0.941406 18.925781 C 1.242188 17.414062 1.6875 15.941406 2.28125 14.515625 C 2.871094 13.089844 3.59375 11.734375 4.453125 10.449219 C 5.3125 9.167969 6.285156 7.980469 7.378906 6.886719 C 8.46875 5.796875 9.65625 4.820312 10.941406 3.964844 C 12.222656 3.105469 13.578125 2.378906 15.007812 1.789062 C 16.433594 1.199219 17.902344 0.753906 19.417969 0.453125 C 20.929688 0.152344 22.460938 0 24.003906 0 C 25.546875 0 27.078125 0.152344 28.59375 0.453125 C 30.105469 0.753906 31.578125 1.199219 33.003906 1.789062 C 34.429688 2.378906 35.785156 3.105469 37.070312 3.964844 C 38.351562 4.820312 39.539062 5.796875 40.632812 6.886719 C 41.722656 7.980469 42.699219 9.167969 43.554688 10.449219 C 44.414062 11.734375 45.136719 13.089844 45.730469 14.515625 C 46.320312 15.941406 46.765625 17.414062 47.066406 18.925781 C 47.367188 20.441406 47.519531 21.972656 47.519531 23.515625 C 47.519531 25.058594 47.367188 26.589844 47.066406 28.101562 C 46.765625 29.617188 46.320312 31.085938 45.730469 32.511719 C 45.136719 33.941406 44.414062 35.296875 43.554688 36.578125 C 42.699219 37.863281 41.722656 39.050781 40.632812 40.140625 C 39.539062 41.234375 38.351562 42.207031 37.070312 43.066406 C 35.785156 43.925781 34.429688 44.648438 33.003906 45.238281 C 31.578125 45.832031 30.105469 46.277344 28.59375 46.578125 C 27.078125 46.878906 25.546875 47.03125 24.003906 47.03125 C 22.460938 47.03125 20.929688 46.878906 19.417969 46.578125 C 17.902344 46.277344 16.433594 45.832031 15.007812 45.238281 C 13.578125 44.648438 12.222656 43.925781 10.941406 43.066406 C 9.65625 42.207031 8.46875 41.234375 7.378906 40.140625 C 6.285156 39.050781 5.3125 37.863281 4.453125 36.578125 C 3.59375 35.296875 2.871094 33.941406 2.28125 32.511719 C 1.6875 31.085938 1.242188 29.617188 0.941406 28.101562 C 0.640625 26.589844 0.488281 25.058594 0.488281 23.515625 Z M 0.488281 23.515625 " clip-rule="nonzero"/></clipPath><clipPath id="1e8de1428c"><path d="M 21 30 L 29 30 L 29 34 L 21 34 Z M 21 30 " clip-rule="nonzero"/></clipPath><clipPath id="cd0deac4dc"><path d="M 0.488281 23.515625 C 0.488281 21.972656 0.640625 20.441406 0.941406 18.925781 C 1.242188 17.414062 1.6875 15.941406 2.28125 14.515625 C 2.871094 13.089844 3.59375 11.734375 4.453125 10.449219 C 5.3125 9.167969 6.285156 7.980469 7.378906 6.886719 C 8.46875 5.796875 9.65625 4.820312 10.941406 3.964844 C 12.222656 3.105469 13.578125 2.378906 15.007812 1.789062 C 16.433594 1.199219 17.902344 0.753906 19.417969 0.453125 C 20.929688 0.152344 22.460938 0 24.003906 0 C 25.546875 0 27.078125 0.152344 28.59375 0.453125 C 30.105469 0.753906 31.578125 1.199219 33.003906 1.789062 C 34.429688 2.378906 35.785156 3.105469 37.070312 3.964844 C 38.351562 4.820312 39.539062 5.796875 40.632812 6.886719 C 41.722656 7.980469 42.699219 9.167969 43.554688 10.449219 C 44.414062 11.734375 45.136719 13.089844 45.730469 14.515625 C 46.320312 15.941406 46.765625 17.414062 47.066406 18.925781 C 47.367188 20.441406 47.519531 21.972656 47.519531 23.515625 C 47.519531 25.058594 47.367188 26.589844 47.066406 28.101562 C 46.765625 29.617188 46.320312 31.085938 45.730469 32.511719 C 45.136719 33.941406 44.414062 35.296875 43.554688 36.578125 C 42.699219 37.863281 41.722656 39.050781 40.632812 40.140625 C 39.539062 41.234375 38.351562 42.207031 37.070312 43.066406 C 35.785156 43.925781 34.429688 44.648438 33.003906 45.238281 C 31.578125 45.832031 30.105469 46.277344 28.59375 46.578125 C 27.078125 46.878906 25.546875 47.03125 24.003906 47.03125 C 22.460938 47.03125 20.929688 46.878906 19.417969 46.578125 C 17.902344 46.277344 16.433594 45.832031 15.007812 45.238281 C 13.578125 44.648438 12.222656 43.925781 10.941406 43.066406 C 9.65625 42.207031 8.46875 41.234375 7.378906 40.140625 C 6.285156 39.050781 5.3125 37.863281 4.453125 36.578125 C 3.59375 35.296875 2.871094 33.941406 2.28125 32.511719 C 1.6875 31.085938 1.242188 29.617188 0.941406 28.101562 C 0.640625 26.589844 0.488281 25.058594 0.488281 23.515625 Z M 0.488281 23.515625 " clip-rule="nonzero"/></clipPath><clipPath id="e0e7dd80e9"><path d="M 15 13 L 31 13 L 31 28 L 15 28 Z M 15 13 " clip-rule="nonzero"/></clipPath><clipPath id="36f632aca3"><path d="M 0.488281 23.515625 C 0.488281 21.972656 0.640625 20.441406 0.941406 18.925781 C 1.242188 17.414062 1.6875 15.941406 2.28125 14.515625 C 2.871094 13.089844 3.59375 11.734375 4.453125 10.449219 C 5.3125 9.167969 6.285156 7.980469 7.378906 6.886719 C 8.46875 5.796875 9.65625 4.820312 10.941406 3.964844 C 12.222656 3.105469 13.578125 2.378906 15.007812 1.789062 C 16.433594 1.199219 17.902344 0.753906 19.417969 0.453125 C 20.929688 0.152344 22.460938 0 24.003906 0 C 25.546875 0 27.078125 0.152344 28.59375 0.453125 C 30.105469 0.753906 31.578125 1.199219 33.003906 1.789062 C 34.429688 2.378906 35.785156 3.105469 37.070312 3.964844 C 38.351562 4.820312 39.539062 5.796875 40.632812 6.886719 C 41.722656 7.980469 42.699219 9.167969 43.554688 10.449219 C 44.414062 11.734375 45.136719 13.089844 45.730469 14.515625 C 46.320312 15.941406 46.765625 17.414062 47.066406 18.925781 C 47.367188 20.441406 47.519531 21.972656 47.519531 23.515625 C 47.519531 25.058594 47.367188 26.589844 47.066406 28.101562 C 46.765625 29.617188 46.320312 31.085938 45.730469 32.511719 C 45.136719 33.941406 44.414062 35.296875 43.554688 36.578125 C 42.699219 37.863281 41.722656 39.050781 40.632812 40.140625 C 39.539062 41.234375 38.351562 42.207031 37.070312 43.066406 C 35.785156 43.925781 34.429688 44.648438 33.003906 45.238281 C 31.578125 45.832031 30.105469 46.277344 28.59375 46.578125 C 27.078125 46.878906 25.546875 47.03125 24.003906 47.03125 C 22.460938 47.03125 20.929688 46.878906 19.417969 46.578125 C 17.902344 46.277344 16.433594 45.832031 15.007812 45.238281 C 13.578125 44.648438 12.222656 43.925781 10.941406 43.066406 C 9.65625 42.207031 8.46875 41.234375 7.378906 40.140625 C 6.285156 39.050781 5.3125 37.863281 4.453125 36.578125 C 3.59375 35.296875 2.871094 33.941406 2.28125 32.511719 C 1.6875 31.085938 1.242188 29.617188 0.941406 28.101562 C 0.640625 26.589844 0.488281 25.058594 0.488281 23.515625 Z M 0.488281 23.515625 " clip-rule="nonzero"/></clipPath><clipPath id="7486294826"><path d="M 21 24 L 28 24 L 28 33 L 21 33 Z M 21 24 " clip-rule="nonzero"/></clipPath><clipPath id="dabf31ecf3"><path d="M 0.488281 23.515625 C 0.488281 21.972656 0.640625 20.441406 0.941406 18.925781 C 1.242188 17.414062 1.6875 15.941406 2.28125 14.515625 C 2.871094 13.089844 3.59375 11.734375 4.453125 10.449219 C 5.3125 9.167969 6.285156 7.980469 7.378906 6.886719 C 8.46875 5.796875 9.65625 4.820312 10.941406 3.964844 C 12.222656 3.105469 13.578125 2.378906 15.007812 1.789062 C 16.433594 1.199219 17.902344 0.753906 19.417969 0.453125 C 20.929688 0.152344 22.460938 0 24.003906 0 C 25.546875 0 27.078125 0.152344 28.59375 0.453125 C 30.105469 0.753906 31.578125 1.199219 33.003906 1.789062 C 34.429688 2.378906 35.785156 3.105469 37.070312 3.964844 C 38.351562 4.820312 39.539062 5.796875 40.632812 6.886719 C 41.722656 7.980469 42.699219 9.167969 43.554688 10.449219 C 44.414062 11.734375 45.136719 13.089844 45.730469 14.515625 C 46.320312 15.941406 46.765625 17.414062 47.066406 18.925781 C 47.367188 20.441406 47.519531 21.972656 47.519531 23.515625 C 47.519531 25.058594 47.367188 26.589844 47.066406 28.101562 C 46.765625 29.617188 46.320312 31.085938 45.730469 32.511719 C 45.136719 33.941406 44.414062 35.296875 43.554688 36.578125 C 42.699219 37.863281 41.722656 39.050781 40.632812 40.140625 C 39.539062 41.234375 38.351562 42.207031 37.070312 43.066406 C 35.785156 43.925781 34.429688 44.648438 33.003906 45.238281 C 31.578125 45.832031 30.105469 46.277344 28.59375 46.578125 C 27.078125 46.878906 25.546875 47.03125 24.003906 47.03125 C 22.460938 47.03125 20.929688 46.878906 19.417969 46.578125 C 17.902344 46.277344 16.433594 45.832031 15.007812 45.238281 C 13.578125 44.648438 12.222656 43.925781 10.941406 43.066406 C 9.65625 42.207031 8.46875 41.234375 7.378906 40.140625 C 6.285156 39.050781 5.3125 37.863281 4.453125 36.578125 C 3.59375 35.296875 2.871094 33.941406 2.28125 32.511719 C 1.6875 31.085938 1.242188 29.617188 0.941406 28.101562 C 0.640625 26.589844 0.488281 25.058594 0.488281 23.515625 Z M 0.488281 23.515625 " clip-rule="nonzero"/></clipPath><clipPath id="2e4bdba5d4"><path d="M 21 24 L 27 24 L 27 31 L 21 31 Z M 21 24 " clip-rule="nonzero"/></clipPath><clipPath id="7e7bdef692"><path d="M 0.488281 23.515625 C 0.488281 21.972656 0.640625 20.441406 0.941406 18.925781 C 1.242188 17.414062 1.6875 15.941406 2.28125 14.515625 C 2.871094 13.089844 3.59375 11.734375 4.453125 10.449219 C 5.3125 9.167969 6.285156 7.980469 7.378906 6.886719 C 8.46875 5.796875 9.65625 4.820312 10.941406 3.964844 C 12.222656 3.105469 13.578125 2.378906 15.007812 1.789062 C 16.433594 1.199219 17.902344 0.753906 19.417969 0.453125 C 20.929688 0.152344 22.460938 0 24.003906 0 C 25.546875 0 27.078125 0.152344 28.59375 0.453125 C 30.105469 0.753906 31.578125 1.199219 33.003906 1.789062 C 34.429688 2.378906 35.785156 3.105469 37.070312 3.964844 C 38.351562 4.820312 39.539062 5.796875 40.632812 6.886719 C 41.722656 7.980469 42.699219 9.167969 43.554688 10.449219 C 44.414062 11.734375 45.136719 13.089844 45.730469 14.515625 C 46.320312 15.941406 46.765625 17.414062 47.066406 18.925781 C 47.367188 20.441406 47.519531 21.972656 47.519531 23.515625 C 47.519531 25.058594 47.367188 26.589844 47.066406 28.101562 C 46.765625 29.617188 46.320312 31.085938 45.730469 32.511719 C 45.136719 33.941406 44.414062 35.296875 43.554688 36.578125 C 42.699219 37.863281 41.722656 39.050781 40.632812 40.140625 C 39.539062 41.234375 38.351562 42.207031 37.070312 43.066406 C 35.785156 43.925781 34.429688 44.648438 33.003906 45.238281 C 31.578125 45.832031 30.105469 46.277344 28.59375 46.578125 C 27.078125 46.878906 25.546875 47.03125 24.003906 47.03125 C 22.460938 47.03125 20.929688 46.878906 19.417969 46.578125 C 17.902344 46.277344 16.433594 45.832031 15.007812 45.238281 C 13.578125 44.648438 12.222656 43.925781 10.941406 43.066406 C 9.65625 42.207031 8.46875 41.234375 7.378906 40.140625 C 6.285156 39.050781 5.3125 37.863281 4.453125 36.578125 C 3.59375 35.296875 2.871094 33.941406 2.28125 32.511719 C 1.6875 31.085938 1.242188 29.617188 0.941406 28.101562 C 0.640625 26.589844 0.488281 25.058594 0.488281 23.515625 Z M 0.488281 23.515625 " clip-rule="nonzero"/></clipPath><clipPath id="dcffbbb6ea"><path d="M 17 18 L 30 18 L 30 29 L 17 29 Z M 17 18 " clip-rule="nonzero"/></clipPath><clipPath id="50a346bbb0"><path d="M 0.488281 23.515625 C 0.488281 21.972656 0.640625 20.441406 0.941406 18.925781 C 1.242188 17.414062 1.6875 15.941406 2.28125 14.515625 C 2.871094 13.089844 3.59375 11.734375 4.453125 10.449219 C 5.3125 9.167969 6.285156 7.980469 7.378906 6.886719 C 8.46875 5.796875 9.65625 4.820312 10.941406 3.964844 C 12.222656 3.105469 13.578125 2.378906 15.007812 1.789062 C 16.433594 1.199219 17.902344 0.753906 19.417969 0.453125 C 20.929688 0.152344 22.460938 0 24.003906 0 C 25.546875 0 27.078125 0.152344 28.59375 0.453125 C 30.105469 0.753906 31.578125 1.199219 33.003906 1.789062 C 34.429688 2.378906 35.785156 3.105469 37.070312 3.964844 C 38.351562 4.820312 39.539062 5.796875 40.632812 6.886719 C 41.722656 7.980469 42.699219 9.167969 43.554688 10.449219 C 44.414062 11.734375 45.136719 13.089844 45.730469 14.515625 C 46.320312 15.941406 46.765625 17.414062 47.066406 18.925781 C 47.367188 20.441406 47.519531 21.972656 47.519531 23.515625 C 47.519531 25.058594 47.367188 26.589844 47.066406 28.101562 C 46.765625 29.617188 46.320312 31.085938 45.730469 32.511719 C 45.136719 33.941406 44.414062 35.296875 43.554688 36.578125 C 42.699219 37.863281 41.722656 39.050781 40.632812 40.140625 C 39.539062 41.234375 38.351562 42.207031 37.070312 43.066406 C 35.785156 43.925781 34.429688 44.648438 33.003906 45.238281 C 31.578125 45.832031 30.105469 46.277344 28.59375 46.578125 C 27.078125 46.878906 25.546875 47.03125 24.003906 47.03125 C 22.460938 47.03125 20.929688 46.878906 19.417969 46.578125 C 17.902344 46.277344 16.433594 45.832031 15.007812 45.238281 C 13.578125 44.648438 12.222656 43.925781 10.941406 43.066406 C 9.65625 42.207031 8.46875 41.234375 7.378906 40.140625 C 6.285156 39.050781 5.3125 37.863281 4.453125 36.578125 C 3.59375 35.296875 2.871094 33.941406 2.28125 32.511719 C 1.6875 31.085938 1.242188 29.617188 0.941406 28.101562 C 0.640625 26.589844 0.488281 25.058594 0.488281 23.515625 Z M 0.488281 23.515625 " clip-rule="nonzero"/></clipPath></defs><g clip-path="url(#091cbae9b6)"><g clip-path="url(#656bf7ed54)"><path fill="#8f4399" d="M 47.519531 23.515625 C 47.519531 24.285156 47.480469 25.054688 47.40625 25.820312 C 47.332031 26.585938 47.21875 27.347656 47.066406 28.101562 C 46.917969 28.859375 46.730469 29.605469 46.507812 30.339844 C 46.285156 31.078125 46.023438 31.800781 45.730469 32.511719 C 45.433594 33.226562 45.105469 33.921875 44.742188 34.601562 C 44.378906 35.277344 43.984375 35.9375 43.554688 36.578125 C 43.128906 37.21875 42.671875 37.835938 42.183594 38.433594 C 41.691406 39.027344 41.175781 39.597656 40.632812 40.140625 C 40.085938 40.6875 39.519531 41.203125 38.921875 41.691406 C 38.328125 42.179688 37.710938 42.640625 37.070312 43.066406 C 36.429688 43.496094 35.769531 43.890625 35.089844 44.253906 C 34.410156 44.617188 33.714844 44.945312 33.003906 45.238281 C 32.292969 45.535156 31.566406 45.792969 30.832031 46.015625 C 30.09375 46.242188 29.347656 46.425781 28.59375 46.578125 C 27.835938 46.726562 27.074219 46.839844 26.308594 46.917969 C 25.542969 46.992188 24.773438 47.03125 24.003906 47.03125 C 23.234375 47.03125 22.464844 46.992188 21.699219 46.917969 C 20.933594 46.839844 20.171875 46.726562 19.417969 46.578125 C 18.660156 46.425781 17.914062 46.242188 17.179688 46.015625 C 16.441406 45.792969 15.71875 45.535156 15.007812 45.238281 C 14.292969 44.945312 13.597656 44.617188 12.917969 44.253906 C 12.242188 43.890625 11.582031 43.496094 10.941406 43.066406 C 10.300781 42.640625 9.683594 42.179688 9.085938 41.691406 C 8.492188 41.203125 7.921875 40.6875 7.378906 40.140625 C 6.832031 39.597656 6.316406 39.027344 5.828125 38.433594 C 5.339844 37.835938 4.878906 37.21875 4.453125 36.578125 C 4.023438 35.9375 3.628906 35.277344 3.265625 34.601562 C 2.902344 33.921875 2.574219 33.226562 2.28125 32.511719 C 1.984375 31.800781 1.726562 31.078125 1.503906 30.339844 C 1.277344 29.605469 1.09375 28.859375 0.941406 28.101562 C 0.792969 27.347656 0.679688 26.585938 0.601562 25.820312 C 0.527344 25.054688 0.488281 24.285156 0.488281 23.515625 C 0.488281 22.746094 0.527344 21.976562 0.601562 21.210938 C 0.679688 20.445312 0.792969 19.683594 0.941406 18.925781 C 1.09375 18.171875 1.277344 17.425781 1.503906 16.6875 C 1.726562 15.953125 1.984375 15.226562 2.28125 14.515625 C 2.574219 13.804688 2.902344 13.109375 3.265625 12.429688 C 3.628906 11.75 4.023438 11.089844 4.453125 10.449219 C 4.878906 9.808594 5.339844 9.191406 5.828125 8.597656 C 6.316406 8 6.832031 7.433594 7.378906 6.886719 C 7.921875 6.34375 8.492188 5.828125 9.085938 5.335938 C 9.683594 4.847656 10.300781 4.390625 10.941406 3.964844 C 11.582031 3.535156 12.242188 3.140625 12.917969 2.777344 C 13.597656 2.414062 14.292969 2.085938 15.007812 1.789062 C 15.71875 1.496094 16.441406 1.234375 17.179688 1.011719 C 17.914062 0.789062 18.660156 0.601562 19.417969 0.453125 C 20.171875 0.300781 20.933594 0.1875 21.699219 0.113281 C 22.464844 0.0390625 23.234375 0 24.003906 0 C 24.773438 0 25.542969 0.0390625 26.308594 0.113281 C 27.074219 0.1875 27.835938 0.300781 28.59375 0.453125 C 29.347656 0.601562 30.09375 0.789062 30.832031 1.011719 C 31.566406 1.234375 32.292969 1.496094 33.003906 1.789062 C 33.714844 2.085938 34.410156 2.414062 35.089844 2.777344 C 35.769531 3.140625 36.429688 3.535156 37.070312 3.964844 C 37.710938 4.390625 38.328125 4.847656 38.921875 5.335938 C 39.519531 5.828125 40.085938 6.34375 40.632812 6.886719 C 41.175781 7.433594 41.691406 8 42.183594 8.597656 C 42.671875 9.191406 43.128906 9.808594 43.554688 10.449219 C 43.984375 11.089844 44.378906 11.75 44.742188 12.429688 C 45.105469 13.109375 45.433594 13.804688 45.730469 14.515625 C 46.023438 15.226562 46.285156 15.953125 46.507812 16.6875 C 46.730469 17.425781 46.917969 18.171875 47.066406 18.925781 C 47.21875 19.683594 47.332031 20.445312 47.40625 21.210938 C 47.480469 21.976562 47.519531 22.746094 47.519531 23.515625 Z M 47.519531 23.515625 " fill-opacity="1" fill-rule="nonzero"/></g></g><g clip-path="url(#145c0bbb24)"><g clip-path="url(#4b6321e8a7)"><path fill="#ffffff" d="M 44.441406 45.511719 C 44.441406 45.511719 28.480469 53.019531 20.535156 52.082031 C 12.59375 51.140625 7.015625 45.511719 7.015625 45.511719 C 7.015625 45.511719 11.660156 33.5625 15.96875 32.292969 C 17.691406 31.785156 19.441406 31.402344 21.21875 31.140625 C 22.703125 30.921875 23.617188 30.882812 23.617188 30.882812 L 26.945312 30.882812 C 26.945312 30.882812 27.445312 30.90625 28.246094 30.980469 C 30.605469 31.199219 35.566406 31.875 38.039062 33.808594 C 41.351562 36.402344 44.441406 45.511719 44.441406 45.511719 Z M 44.441406 45.511719 " fill-opacity="1" fill-rule="nonzero"/></g></g><g clip-path="url(#1e8de1428c)"><g clip-path="url(#cd0deac4dc)"><path fill="#371952" d="M 28.246094 30.980469 C 28.085938 32.210938 26.980469 33.347656 25.4375 33.738281 C 23.527344 34.214844 21.667969 33.363281 21.285156 31.832031 C 21.226562 31.605469 21.203125 31.375 21.21875 31.140625 C 22.703125 30.921875 23.617188 30.882812 23.617188 30.882812 L 26.945312 30.882812 C 26.945312 30.882812 27.445312 30.90625 28.246094 30.980469 Z M 28.246094 30.980469 " fill-opacity="1" fill-rule="nonzero"/></g></g><g clip-path="url(#e0e7dd80e9)"><g clip-path="url(#36f632aca3)"><path fill="#371952" d="M 17.265625 20.59375 C 15.535156 21.121094 16.351562 18.171875 16.351562 18.171875 C 16.351562 18.171875 14.804688 17.558594 15.394531 16.074219 C 15.984375 14.585938 20.464844 13.34375 25.085938 14.097656 C 29.707031 14.851562 29.542969 18.148438 29.542969 18.148438 C 29.542969 18.148438 31.050781 18.636719 30.621094 20.390625 C 30.195312 22.140625 28.289062 25.324219 27.894531 26.660156 C 27.5 27.996094 25.714844 27.964844 25.714844 27.964844 " fill-opacity="1" fill-rule="nonzero"/></g></g><g clip-path="url(#7486294826)"><g clip-path="url(#dabf31ecf3)"><path fill="#f7a8a7" d="M 21.941406 30.460938 C 22.03125 31.082031 22.085938 31.519531 22.085938 31.519531 C 22.085938 31.519531 21.78125 32.871094 24.238281 32.953125 C 24.949219 32.984375 25.617188 32.832031 26.242188 32.496094 C 26.871094 32.15625 27.363281 31.679688 27.730469 31.070312 C 27.730469 31.070312 27.1875 28.335938 26.941406 26.402344 C 26.859375 25.882812 26.847656 25.363281 26.914062 24.839844 L 21.066406 26.441406 C 21.402344 27.058594 21.75 29.164062 21.941406 30.460938 Z M 21.941406 30.460938 " fill-opacity="1" fill-rule="nonzero"/></g></g><g clip-path="url(#2e4bdba5d4)"><g clip-path="url(#7e7bdef692)"><path fill="#f38296" d="M 21.066406 26.441406 C 21.402344 27.058594 21.75 29.164062 21.941406 30.460938 C 24.628906 30.558594 26.441406 28.542969 26.945312 26.402344 C 26.859375 25.882812 26.851562 25.363281 26.914062 24.839844 Z M 21.066406 26.441406 " fill-opacity="1" fill-rule="nonzero"/></g></g><g clip-path="url(#dcffbbb6ea)"><g clip-path="url(#50a346bbb0)"><path fill="#f7a8a7" d="M 17.859375 18.363281 C 21.207031 19.628906 25.894531 19.375 25.894531 19.375 L 26.570312 22.921875 C 26.570312 22.921875 27.472656 20.140625 28.8125 21.164062 C 30.152344 22.183594 28.890625 24.027344 27.414062 24.039062 C 27.414062 24.039062 26.144531 29.433594 21.457031 28.816406 C 18.71875 28.457031 17.890625 25.363281 17.863281 23.570312 C 17.835938 21.777344 17.859375 18.363281 17.859375 18.363281 Z M 17.859375 18.363281 " fill-opacity="1" fill-rule="nonzero"/></g></g><path fill="#371952" d="M 17.652344 17.671875 C 18.617188 19.21875 20.523438 20.398438 21.398438 20.308594 C 22.269531 20.21875 21.269531 19.398438 21.269531 19.398438 C 22.230469 19.882812 23.25 20.148438 24.324219 20.199219 C 26.066406 20.273438 26.925781 19.761719 26.925781 19.761719 L 26.289062 17.980469 Z M 17.652344 17.671875 " fill-opacity="1" fill-rule="nonzero"/></svg>