<svg xmlns="http://www.w3.org/2000/svg" xmlns:xlink="http://www.w3.org/1999/xlink" width="64" zoomAndPan="magnify" viewBox="0 0 48 48" height="64" preserveAspectRatio="xMidYMid meet" version="1.0"><defs><clipPath id="4416e4b87d"><path d="M 0.488281 0 L 47.507812 0 L 47.507812 47 L 0.488281 47 Z M 0.488281 0 " clip-rule="nonzero"/></clipPath><clipPath id="4e651e20b1"><path d="M 47.492188 23.484375 C 47.492188 24.253906 47.453125 25.019531 47.378906 25.785156 C 47.300781 26.550781 47.1875 27.308594 47.039062 28.0625 C 46.890625 28.816406 46.703125 29.5625 46.480469 30.296875 C 46.253906 31.035156 45.996094 31.757812 45.703125 32.464844 C 45.40625 33.175781 45.078125 33.871094 44.714844 34.546875 C 44.351562 35.226562 43.957031 35.882812 43.53125 36.523438 C 43.101562 37.164062 42.644531 37.777344 42.15625 38.375 C 41.667969 38.96875 41.152344 39.535156 40.609375 40.078125 C 40.0625 40.621094 39.492188 41.136719 38.898438 41.625 C 38.304688 42.113281 37.6875 42.570312 37.046875 42.996094 C 36.40625 43.425781 35.746094 43.820312 35.070312 44.183594 C 34.390625 44.542969 33.695312 44.871094 32.984375 45.167969 C 32.273438 45.460938 31.546875 45.71875 30.8125 45.941406 C 30.074219 46.164062 29.328125 46.351562 28.574219 46.503906 C 27.820312 46.652344 27.058594 46.765625 26.292969 46.839844 C 25.527344 46.914062 24.761719 46.953125 23.992188 46.953125 C 23.222656 46.953125 22.453125 46.914062 21.6875 46.839844 C 20.921875 46.765625 20.160156 46.652344 19.40625 46.503906 C 18.652344 46.351562 17.90625 46.164062 17.167969 45.941406 C 16.433594 45.71875 15.707031 45.460938 14.996094 45.167969 C 14.285156 44.871094 13.589844 44.542969 12.914062 44.183594 C 12.234375 43.820312 11.574219 43.425781 10.933594 42.996094 C 10.292969 42.570312 9.675781 42.113281 9.082031 41.625 C 8.488281 41.136719 7.917969 40.621094 7.375 40.078125 C 6.828125 39.535156 6.3125 38.96875 5.824219 38.375 C 5.335938 37.777344 4.878906 37.164062 4.449219 36.523438 C 4.023438 35.882812 3.628906 35.226562 3.265625 34.546875 C 2.902344 33.871094 2.574219 33.175781 2.28125 32.464844 C 1.984375 31.757812 1.726562 31.035156 1.503906 30.296875 C 1.277344 29.5625 1.09375 28.816406 0.941406 28.0625 C 0.792969 27.308594 0.679688 26.550781 0.605469 25.785156 C 0.527344 25.019531 0.492188 24.253906 0.492188 23.484375 C 0.492188 22.71875 0.527344 21.949219 0.605469 21.1875 C 0.679688 20.421875 0.792969 19.660156 0.941406 18.90625 C 1.09375 18.152344 1.277344 17.410156 1.503906 16.671875 C 1.726562 15.9375 1.984375 15.214844 2.28125 14.503906 C 2.574219 13.796875 2.902344 13.101562 3.265625 12.421875 C 3.628906 11.746094 4.023438 11.085938 4.449219 10.449219 C 4.878906 9.808594 5.335938 9.191406 5.824219 8.597656 C 6.3125 8.003906 6.828125 7.4375 7.375 6.890625 C 7.917969 6.347656 8.488281 5.832031 9.082031 5.34375 C 9.675781 4.859375 10.292969 4.402344 10.933594 3.972656 C 11.574219 3.546875 12.234375 3.152344 12.914062 2.789062 C 13.589844 2.425781 14.285156 2.097656 14.996094 1.804688 C 15.707031 1.511719 16.433594 1.253906 17.167969 1.027344 C 17.90625 0.804688 18.652344 0.621094 19.40625 0.46875 C 20.160156 0.320312 20.921875 0.207031 21.6875 0.132812 C 22.453125 0.0546875 23.222656 0.0195312 23.992188 0.0195312 C 24.761719 0.015625 25.53125 0.0507812 26.296875 0.125 C 27.0625 0.199219 27.824219 0.308594 28.582031 0.457031 C 29.335938 0.605469 30.082031 0.789062 30.820312 1.011719 C 31.558594 1.234375 32.285156 1.492188 32.996094 1.785156 C 33.707031 2.078125 34.402344 2.40625 35.082031 2.765625 C 35.761719 3.128906 36.425781 3.523438 37.066406 3.949219 C 37.707031 4.375 38.324219 4.835938 38.917969 5.320312 C 39.515625 5.808594 40.085938 6.324219 40.628906 6.871094 C 41.175781 7.414062 41.691406 7.984375 42.179688 8.578125 C 42.667969 9.171875 43.125 9.789062 43.554688 10.429688 C 43.980469 11.070312 44.375 11.730469 44.738281 12.40625 C 45.101562 13.085938 45.429688 13.78125 45.722656 14.492188 C 46.015625 15.203125 46.273438 15.929688 46.496094 16.664062 C 46.71875 17.402344 46.902344 18.148438 47.050781 18.902344 C 47.199219 19.65625 47.3125 20.417969 47.382812 21.183594 C 47.457031 21.949219 47.492188 22.714844 47.492188 23.484375 Z M 47.492188 23.484375 " clip-rule="nonzero"/></clipPath><linearGradient x1="117.310507" gradientTransform="matrix(0.187999, 0, 0, 0.187736, 0.490711, 0.0187758)" y1="-6.854646" x2="132.688296" gradientUnits="userSpaceOnUse" y2="256.84196" id="1fa275cae4"><stop stop-opacity="1" stop-color="rgb(41.999817%, 61.599731%, 88.598633%)" offset="0"/><stop stop-opacity="1" stop-color="rgb(41.999817%, 61.599731%, 88.598633%)" offset="0.0551028"/><stop stop-opacity="1" stop-color="rgb(41.999817%, 61.599731%, 88.598633%)" offset="0.0625"/><stop stop-opacity="1" stop-color="rgb(41.975403%, 61.529541%, 88.581848%)" offset="0.09375"/><stop stop-opacity="1" stop-color="rgb(41.886902%, 61.277771%, 88.522339%)" offset="0.125"/><stop stop-opacity="1" stop-color="rgb(41.758728%, 60.91156%, 88.433838%)" offset="0.15625"/><stop stop-opacity="1" stop-color="rgb(41.629028%, 60.545349%, 88.345337%)" offset="0.1875"/><stop stop-opacity="1" stop-color="rgb(41.500854%, 60.179138%, 88.256836%)" offset="0.21875"/><stop stop-opacity="1" stop-color="rgb(41.372681%, 59.812927%, 88.169861%)" offset="0.25"/><stop stop-opacity="1" stop-color="rgb(41.244507%, 59.446716%, 88.08136%)" offset="0.28125"/><stop stop-opacity="1" stop-color="rgb(41.116333%, 59.080505%, 87.992859%)" offset="0.3125"/><stop stop-opacity="1" stop-color="rgb(40.988159%, 58.714294%, 87.904358%)" offset="0.34375"/><stop stop-opacity="1" stop-color="rgb(40.859985%, 58.348083%, 87.817383%)" offset="0.375"/><stop stop-opacity="1" stop-color="rgb(40.731812%, 57.981873%, 87.728882%)" offset="0.40625"/><stop stop-opacity="1" stop-color="rgb(40.603638%, 57.615662%, 87.640381%)" offset="0.4375"/><stop stop-opacity="1" stop-color="rgb(40.473938%, 57.249451%, 87.553406%)" offset="0.46875"/><stop stop-opacity="1" stop-color="rgb(40.345764%, 56.88324%, 87.464905%)" offset="0.5"/><stop stop-opacity="1" stop-color="rgb(40.21759%, 56.517029%, 87.376404%)" offset="0.53125"/><stop stop-opacity="1" stop-color="rgb(40.089417%, 56.150818%, 87.287903%)" offset="0.5625"/><stop stop-opacity="1" stop-color="rgb(39.961243%, 55.784607%, 87.200928%)" offset="0.59375"/><stop stop-opacity="1" stop-color="rgb(39.833069%, 55.418396%, 87.112427%)" offset="0.625"/><stop stop-opacity="1" stop-color="rgb(39.704895%, 55.052185%, 87.023926%)" offset="0.65625"/><stop stop-opacity="1" stop-color="rgb(39.576721%, 54.685974%, 86.935425%)" offset="0.6875"/><stop stop-opacity="1" stop-color="rgb(39.448547%, 54.319763%, 86.84845%)" offset="0.71875"/><stop stop-opacity="1" stop-color="rgb(39.318848%, 53.953552%, 86.759949%)" offset="0.75"/><stop stop-opacity="1" stop-color="rgb(39.190674%, 53.587341%, 86.671448%)" offset="0.78125"/><stop stop-opacity="1" stop-color="rgb(39.0625%, 53.222656%, 86.584473%)" offset="0.8125"/><stop stop-opacity="1" stop-color="rgb(38.934326%, 52.856445%, 86.495972%)" offset="0.84375"/><stop stop-opacity="1" stop-color="rgb(38.806152%, 52.490234%, 86.407471%)" offset="0.875"/><stop stop-opacity="1" stop-color="rgb(38.677979%, 52.124023%, 86.31897%)" offset="0.90625"/><stop stop-opacity="1" stop-color="rgb(38.549805%, 51.757812%, 86.231995%)" offset="0.9375"/><stop stop-opacity="1" stop-color="rgb(38.421631%, 51.391602%, 86.143494%)" offset="0.944897"/><stop stop-opacity="1" stop-color="rgb(38.357544%, 51.208496%, 86.099243%)" offset="0.96875"/><stop stop-opacity="1" stop-color="rgb(38.293457%, 51.025391%, 86.054993%)" offset="1"/></linearGradient><clipPath id="61d126dad3"><path d="M 11 12 L 37 12 L 37 39 L 11 39 Z M 11 12 " clip-rule="nonzero"/></clipPath><clipPath id="7b2cf5f7c7"><path d="M 16.082031 15.554688 C 11.828125 17.214844 9.898438 24.351562 12.957031 27.703125 C 16.015625 31.054688 9.898438 33.277344 11.792969 36.203125 C 13.6875 39.125 18.210938 38.757812 26.386719 37.394531 C 34.5625 36.035156 35.195312 39.253906 36.125 35.503906 C 37.054688 31.753906 33.234375 29.792969 33.398438 25.511719 C 33.566406 21.234375 32.4375 11.871094 24.789062 12.070312 C 17.144531 12.269531 16.414062 13.53125 16.082031 15.554688 Z M 16.082031 15.554688 " clip-rule="nonzero"/></clipPath><linearGradient x1="109.454095" gradientTransform="matrix(0.187999, 0, 0, 0.187736, 0.490711, 0.0187758)" y1="56.267734" x2="127.985383" gradientUnits="userSpaceOnUse" y2="216.679014" id="57eb0f67a0"><stop stop-opacity="1" stop-color="rgb(27.009583%, 19.680786%, 48.640442%)" offset="0"/><stop stop-opacity="1" stop-color="rgb(27.1698%, 19.821167%, 48.710632%)" offset="0.03125"/><stop stop-opacity="1" stop-color="rgb(27.488708%, 20.101929%, 48.851013%)" offset="0.0625"/><stop stop-opacity="1" stop-color="rgb(27.809143%, 20.384216%, 48.991394%)" offset="0.09375"/><stop stop-opacity="1" stop-color="rgb(28.129578%, 20.664978%, 49.131775%)" offset="0.102663"/><stop stop-opacity="1" stop-color="rgb(28.289795%, 20.806885%, 49.203491%)" offset="0.125"/><stop stop-opacity="1" stop-color="rgb(28.448486%, 20.947266%, 49.273682%)" offset="0.15625"/><stop stop-opacity="1" stop-color="rgb(28.768921%, 21.228027%, 49.414062%)" offset="0.1875"/><stop stop-opacity="1" stop-color="rgb(29.08783%, 21.510315%, 49.554443%)" offset="0.21875"/><stop stop-opacity="1" stop-color="rgb(29.408264%, 21.791077%, 49.694824%)" offset="0.25"/><stop stop-opacity="1" stop-color="rgb(29.728699%, 22.071838%, 49.835205%)" offset="0.28125"/><stop stop-opacity="1" stop-color="rgb(30.047607%, 22.354126%, 49.977112%)" offset="0.3125"/><stop stop-opacity="1" stop-color="rgb(30.368042%, 22.634888%, 50.117493%)" offset="0.34375"/><stop stop-opacity="1" stop-color="rgb(30.686951%, 22.917175%, 50.257874%)" offset="0.375"/><stop stop-opacity="1" stop-color="rgb(31.007385%, 23.197937%, 50.398254%)" offset="0.40625"/><stop stop-opacity="1" stop-color="rgb(31.32782%, 23.480225%, 50.540161%)" offset="0.4375"/><stop stop-opacity="1" stop-color="rgb(31.646729%, 23.760986%, 50.680542%)" offset="0.46875"/><stop stop-opacity="1" stop-color="rgb(31.967163%, 24.043274%, 50.820923%)" offset="0.5"/><stop stop-opacity="1" stop-color="rgb(32.287598%, 24.324036%, 50.961304%)" offset="0.53125"/><stop stop-opacity="1" stop-color="rgb(32.606506%, 24.606323%, 51.10321%)" offset="0.5625"/><stop stop-opacity="1" stop-color="rgb(32.926941%, 24.887085%, 51.243591%)" offset="0.59375"/><stop stop-opacity="1" stop-color="rgb(33.24585%, 25.169373%, 51.383972%)" offset="0.625"/><stop stop-opacity="1" stop-color="rgb(33.566284%, 25.450134%, 51.524353%)" offset="0.65625"/><stop stop-opacity="1" stop-color="rgb(33.886719%, 25.730896%, 51.664734%)" offset="0.6875"/><stop stop-opacity="1" stop-color="rgb(34.205627%, 26.013184%, 51.806641%)" offset="0.71875"/><stop stop-opacity="1" stop-color="rgb(34.526062%, 26.293945%, 51.947021%)" offset="0.75"/><stop stop-opacity="1" stop-color="rgb(34.844971%, 26.576233%, 52.087402%)" offset="0.78125"/><stop stop-opacity="1" stop-color="rgb(35.165405%, 26.856995%, 52.227783%)" offset="0.8125"/><stop stop-opacity="1" stop-color="rgb(35.48584%, 27.139282%, 52.36969%)" offset="0.84375"/><stop stop-opacity="1" stop-color="rgb(35.804749%, 27.420044%, 52.510071%)" offset="0.875"/><stop stop-opacity="1" stop-color="rgb(36.125183%, 27.702332%, 52.650452%)" offset="0.897337"/><stop stop-opacity="1" stop-color="rgb(36.2854%, 27.842712%, 52.720642%)" offset="0.90625"/><stop stop-opacity="1" stop-color="rgb(36.445618%, 27.983093%, 52.790833%)" offset="0.9375"/><stop stop-opacity="1" stop-color="rgb(36.764526%, 28.265381%, 52.932739%)" offset="0.96875"/><stop stop-opacity="1" stop-color="rgb(37.084961%, 28.546143%, 53.07312%)" offset="1"/></linearGradient><clipPath id="88cb62b2d5"><path d="M 19 24 L 27 24 L 27 37 L 19 37 Z M 19 24 " clip-rule="nonzero"/></clipPath><clipPath id="ac1c0b23c0"><path d="M 26.917969 24.867188 C 26.792969 27.699219 26.953125 32.332031 26.777344 33.921875 C 26.605469 35.515625 24.800781 36.9375 22.917969 36.792969 C 21.035156 36.648438 20.171875 34.207031 20.269531 33.355469 C 20.367188 32.503906 19.6875 25.578125 19.6875 25.578125 Z M 26.917969 24.867188 " clip-rule="nonzero"/></clipPath><linearGradient x1="126.808608" gradientTransform="matrix(0.187999, 0, 0, 0.187736, 0.490711, 0.0187758)" y1="197.942516" x2="120.554558" gradientUnits="userSpaceOnUse" y2="130.636848" id="b5d06594a4"><stop stop-opacity="1" stop-color="rgb(100%, 69.308472%, 70.584106%)" offset="0"/><stop stop-opacity="1" stop-color="rgb(100%, 69.181824%, 70.489502%)" offset="0.03125"/><stop stop-opacity="1" stop-color="rgb(100%, 68.93158%, 70.301819%)" offset="0.052894"/><stop stop-opacity="1" stop-color="rgb(100%, 68.806458%, 70.20874%)" offset="0.0625"/><stop stop-opacity="1" stop-color="rgb(100%, 68.67981%, 70.114136%)" offset="0.09375"/><stop stop-opacity="1" stop-color="rgb(100%, 68.429565%, 69.926453%)" offset="0.125"/><stop stop-opacity="1" stop-color="rgb(100%, 68.177795%, 69.73877%)" offset="0.15625"/><stop stop-opacity="1" stop-color="rgb(100%, 67.927551%, 69.549561%)" offset="0.1875"/><stop stop-opacity="1" stop-color="rgb(100%, 67.675781%, 69.361877%)" offset="0.21875"/><stop stop-opacity="1" stop-color="rgb(100%, 67.425537%, 69.174194%)" offset="0.25"/><stop stop-opacity="1" stop-color="rgb(100%, 67.173767%, 68.986511%)" offset="0.28125"/><stop stop-opacity="1" stop-color="rgb(100%, 66.923523%, 68.798828%)" offset="0.3125"/><stop stop-opacity="1" stop-color="rgb(100%, 66.673279%, 68.611145%)" offset="0.34375"/><stop stop-opacity="1" stop-color="rgb(100%, 66.421509%, 68.423462%)" offset="0.375"/><stop stop-opacity="1" stop-color="rgb(100%, 66.171265%, 68.235779%)" offset="0.40625"/><stop stop-opacity="1" stop-color="rgb(100%, 65.919495%, 68.048096%)" offset="0.4375"/><stop stop-opacity="1" stop-color="rgb(100%, 65.66925%, 67.860413%)" offset="0.46875"/><stop stop-opacity="1" stop-color="rgb(100%, 65.41748%, 67.672729%)" offset="0.5"/><stop stop-opacity="1" stop-color="rgb(100%, 65.167236%, 67.485046%)" offset="0.53125"/><stop stop-opacity="1" stop-color="rgb(100%, 64.915466%, 67.297363%)" offset="0.5625"/><stop stop-opacity="1" stop-color="rgb(100%, 64.665222%, 67.108154%)" offset="0.59375"/><stop stop-opacity="1" stop-color="rgb(100%, 64.413452%, 66.920471%)" offset="0.625"/><stop stop-opacity="1" stop-color="rgb(100%, 64.163208%, 66.732788%)" offset="0.65625"/><stop stop-opacity="1" stop-color="rgb(100%, 63.911438%, 66.545105%)" offset="0.6875"/><stop stop-opacity="1" stop-color="rgb(100%, 63.661194%, 66.357422%)" offset="0.71875"/><stop stop-opacity="1" stop-color="rgb(100%, 63.41095%, 66.169739%)" offset="0.75"/><stop stop-opacity="1" stop-color="rgb(100%, 63.15918%, 65.982056%)" offset="0.78125"/><stop stop-opacity="1" stop-color="rgb(100%, 62.908936%, 65.794373%)" offset="0.8125"/><stop stop-opacity="1" stop-color="rgb(100%, 62.657166%, 65.606689%)" offset="0.84375"/><stop stop-opacity="1" stop-color="rgb(100%, 62.406921%, 65.419006%)" offset="0.875"/><stop stop-opacity="1" stop-color="rgb(100%, 62.155151%, 65.231323%)" offset="0.90625"/><stop stop-opacity="1" stop-color="rgb(100%, 61.904907%, 65.04364%)" offset="0.9375"/><stop stop-opacity="1" stop-color="rgb(100%, 61.653137%, 64.854431%)" offset="0.947106"/><stop stop-opacity="1" stop-color="rgb(100%, 61.528015%, 64.761353%)" offset="0.96875"/><stop stop-opacity="1" stop-color="rgb(100%, 61.402893%, 64.666748%)" offset="1"/></linearGradient><clipPath id="8b925e1b96"><path d="M 16 16 L 32 16 L 32 32 L 16 32 Z M 16 16 " clip-rule="nonzero"/></clipPath><clipPath id="6608488c7a"><path d="M 16.710938 16.507812 C 16.710938 16.507812 15.992188 23.152344 16.472656 27.023438 C 17.179688 32.738281 24.152344 32.910156 28.007812 26.734375 C 29.40625 27.613281 32.144531 25.449219 31.785156 23.453125 C 31.425781 21.457031 29.125 22.1875 28.738281 22.835938 C 28.429688 23.410156 28.167969 24.007812 27.953125 24.625 C 27.953125 24.625 28.207031 21.953125 27.660156 21.164062 C 27.109375 20.375 18.445312 21.640625 16.710938 16.507812 Z M 16.710938 16.507812 " clip-rule="nonzero"/></clipPath><linearGradient x1="120.953093" gradientTransform="matrix(0.187999, 0, 0, 0.187736, 0.490711, 0.0187758)" y1="178.162954" x2="128.140066" gradientUnits="userSpaceOnUse" y2="84.733133" id="c9da786268"><stop stop-opacity="1" stop-color="rgb(100%, 77.966309%, 77.064514%)" offset="0"/><stop stop-opacity="1" stop-color="rgb(100%, 77.864075%, 76.98822%)" offset="0.03125"/><stop stop-opacity="1" stop-color="rgb(100%, 77.661133%, 76.835632%)" offset="0.0625"/><stop stop-opacity="1" stop-color="rgb(100%, 77.456665%, 76.683044%)" offset="0.0703286"/><stop stop-opacity="1" stop-color="rgb(100%, 77.355957%, 76.60675%)" offset="0.09375"/><stop stop-opacity="1" stop-color="rgb(100%, 77.253723%, 76.530457%)" offset="0.125"/><stop stop-opacity="1" stop-color="rgb(100%, 77.050781%, 76.379395%)" offset="0.15625"/><stop stop-opacity="1" stop-color="rgb(100%, 76.846313%, 76.226807%)" offset="0.1875"/><stop stop-opacity="1" stop-color="rgb(100%, 76.643372%, 76.074219%)" offset="0.21875"/><stop stop-opacity="1" stop-color="rgb(100%, 76.44043%, 75.921631%)" offset="0.25"/><stop stop-opacity="1" stop-color="rgb(100%, 76.235962%, 75.769043%)" offset="0.28125"/><stop stop-opacity="1" stop-color="rgb(100%, 76.03302%, 75.617981%)" offset="0.3125"/><stop stop-opacity="1" stop-color="rgb(100%, 75.830078%, 75.465393%)" offset="0.34375"/><stop stop-opacity="1" stop-color="rgb(100%, 75.62561%, 75.312805%)" offset="0.375"/><stop stop-opacity="1" stop-color="rgb(100%, 75.422668%, 75.160217%)" offset="0.40625"/><stop stop-opacity="1" stop-color="rgb(100%, 75.218201%, 75.007629%)" offset="0.4375"/><stop stop-opacity="1" stop-color="rgb(100%, 75.015259%, 74.856567%)" offset="0.46875"/><stop stop-opacity="1" stop-color="rgb(100%, 74.812317%, 74.703979%)" offset="0.5"/><stop stop-opacity="1" stop-color="rgb(100%, 74.607849%, 74.551392%)" offset="0.53125"/><stop stop-opacity="1" stop-color="rgb(100%, 74.404907%, 74.398804%)" offset="0.5625"/><stop stop-opacity="1" stop-color="rgb(100%, 74.201965%, 74.246216%)" offset="0.59375"/><stop stop-opacity="1" stop-color="rgb(100%, 73.997498%, 74.093628%)" offset="0.625"/><stop stop-opacity="1" stop-color="rgb(100%, 73.794556%, 73.942566%)" offset="0.65625"/><stop stop-opacity="1" stop-color="rgb(100%, 73.591614%, 73.789978%)" offset="0.6875"/><stop stop-opacity="1" stop-color="rgb(100%, 73.387146%, 73.63739%)" offset="0.71875"/><stop stop-opacity="1" stop-color="rgb(100%, 73.184204%, 73.484802%)" offset="0.75"/><stop stop-opacity="1" stop-color="rgb(100%, 72.981262%, 73.332214%)" offset="0.78125"/><stop stop-opacity="1" stop-color="rgb(100%, 72.776794%, 73.181152%)" offset="0.8125"/><stop stop-opacity="1" stop-color="rgb(100%, 72.573853%, 73.028564%)" offset="0.84375"/><stop stop-opacity="1" stop-color="rgb(100%, 72.369385%, 72.875977%)" offset="0.875"/><stop stop-opacity="1" stop-color="rgb(100%, 72.166443%, 72.723389%)" offset="0.90625"/><stop stop-opacity="1" stop-color="rgb(100%, 71.963501%, 72.570801%)" offset="0.929671"/><stop stop-opacity="1" stop-color="rgb(100%, 71.861267%, 72.496033%)" offset="0.9375"/><stop stop-opacity="1" stop-color="rgb(100%, 71.759033%, 72.419739%)" offset="0.96875"/><stop stop-opacity="1" stop-color="rgb(100%, 71.556091%, 72.267151%)" offset="1"/></linearGradient></defs><g clip-path="url(#4416e4b87d)"><g clip-path="url(#4e651e20b1)"><path fill="url(#1fa275cae4)" d="M 0.492188 0.015625 L 0.492188 46.953125 L 47.492188 46.953125 L 47.492188 0.015625 Z M 0.492188 0.015625 " fill-rule="nonzero"/></g></g><g clip-path="url(#61d126dad3)"><g clip-path="url(#7b2cf5f7c7)"><path fill="url(#57eb0f67a0)" d="M 9.898438 11.871094 L 9.898438 39.253906 L 37.054688 39.253906 L 37.054688 11.871094 Z M 9.898438 11.871094 " fill-rule="nonzero"/></g></g><path fill="#ffffff" d="M 40.035156 40.628906 C 39.488281 41.140625 38.914062 41.625 38.320312 42.082031 C 37.726562 42.539062 37.113281 42.964844 36.476562 43.363281 C 35.84375 43.761719 35.191406 44.128906 34.519531 44.464844 C 33.851562 44.800781 33.164062 45.101562 32.464844 45.371094 C 31.765625 45.640625 31.054688 45.878906 30.335938 46.082031 C 29.613281 46.28125 28.882812 46.449219 28.144531 46.582031 C 27.40625 46.714844 26.664062 46.8125 25.917969 46.875 C 25.171875 46.933594 24.421875 46.960938 23.671875 46.949219 C 22.921875 46.941406 22.175781 46.894531 21.429688 46.8125 C 20.683594 46.730469 19.945312 46.613281 19.210938 46.460938 C 18.476562 46.308594 17.75 46.125 17.035156 45.902344 C 16.320312 45.679688 15.617188 45.425781 14.925781 45.136719 C 14.230469 44.847656 13.554688 44.527344 12.894531 44.171875 C 12.234375 43.820312 11.589844 43.433594 10.96875 43.019531 C 10.34375 42.605469 9.742188 42.160156 9.160156 41.6875 C 8.578125 41.214844 8.019531 40.71875 7.488281 40.191406 C 7.722656 39.15625 8.601562 36.089844 11.082031 34.699219 C 12.828125 33.714844 16.050781 32.898438 18.945312 32.433594 C 21.042969 32.105469 22.964844 31.957031 24.035156 32.070312 C 24.839844 32.15625 26.40625 32.148438 28.242188 32.253906 C 32.191406 32.488281 37.375 33.28125 38.832031 36.804688 C 39.34375 38.042969 39.746094 39.320312 40.035156 40.628906 Z M 40.035156 40.628906 " fill-opacity="1" fill-rule="nonzero"/><path fill="#ffffff" d="M 22.757812 37.988281 C 18.820312 37.867188 18.808594 33.929688 18.945312 32.433594 C 21.042969 32.105469 22.964844 31.957031 24.035156 32.070312 C 24.839844 32.15625 26.40625 32.148438 28.242188 32.253906 C 28.546875 34.894531 27.164062 38.128906 22.757812 37.988281 Z M 22.757812 37.988281 " fill-opacity="1" fill-rule="nonzero"/><g clip-path="url(#88cb62b2d5)"><g clip-path="url(#ac1c0b23c0)"><path fill="url(#b5d06594a4)" d="M 19.6875 24.867188 L 19.6875 36.9375 L 26.953125 36.9375 L 26.953125 24.867188 Z M 19.6875 24.867188 " fill-rule="nonzero"/></g></g><g clip-path="url(#8b925e1b96)"><g clip-path="url(#6608488c7a)"><path fill="url(#c9da786268)" d="M 15.992188 16.507812 L 15.992188 32.910156 L 32.144531 32.910156 L 32.144531 16.507812 Z M 15.992188 16.507812 " fill-rule="nonzero"/></g></g><path stroke-linecap="butt" transform="matrix(0.187999, 0, 0, 0.187736, 0.490711, 0.0187756)" fill="none" stroke-linejoin="miter" d="M 102.069516 124.992264 C 102.069516 126.802481 101.716289 128.52947 101.030614 130.194038 C 100.34494 131.858606 99.368372 133.315103 98.080135 134.584336 C 96.812675 135.874376 95.358213 136.85231 93.695971 137.538944 C 92.033729 138.225578 90.288375 138.558492 88.501465 138.558492 C 86.693776 138.558492 84.9692 138.225578 83.306958 137.538944 C 81.644716 136.85231 80.169476 135.874376 78.902017 134.584336 C 77.634557 133.315103 76.65799 131.858606 75.951537 130.194038 C 75.265862 128.52947 74.933414 126.802481 74.933414 124.992264 C 74.933414 123.202853 75.265862 121.475864 75.951537 119.811296 C 76.65799 118.146728 77.634557 116.669424 78.902017 115.400191 C 80.169476 114.130958 81.644716 113.153025 83.306958 112.466391 C 84.9692 111.779756 86.693776 111.426036 88.501465 111.426036 C 90.288375 111.426036 92.033729 111.779756 93.695971 112.466391 C 95.358213 113.153025 96.812675 114.130958 98.080135 115.400191 C 99.368372 116.669424 100.34494 118.146728 101.030614 119.811296 C 101.716289 121.475864 102.069516 123.202853 102.069516 124.992264 Z M 102.069516 124.992264 " stroke="#ffffff" stroke-width="2.77" stroke-opacity="1" stroke-miterlimit="10"/><path stroke-linecap="butt" transform="matrix(0.187999, 0, 0, 0.187736, 0.490711, 0.0187756)" fill="none" stroke-linejoin="miter" d="M 136.457149 124.992264 C 136.457149 126.157461 136.311702 127.281044 136.02081 128.404628 C 135.729918 129.507404 135.314357 130.568566 134.753351 131.567307 C 134.192344 132.586855 133.506669 133.502367 132.717104 134.334651 C 131.927539 135.166935 131.054862 135.874376 130.057517 136.498589 C 129.080949 137.101995 128.062826 137.580558 126.961591 137.913472 C 125.860355 138.267192 124.738342 138.454456 123.574773 138.516877 C 122.431981 138.579299 121.28919 138.475263 120.167176 138.246385 C 119.045163 138.017507 117.964706 137.642979 116.925804 137.143609 C 115.907681 136.623432 114.951892 135.999219 114.079215 135.250163 C 113.206538 134.501108 112.437751 133.648017 111.793632 132.711697 C 111.128735 131.754571 110.609284 130.75583 110.214502 129.673861 C 109.798941 128.591892 109.549605 127.489115 109.424937 126.344725 C 109.321047 125.200335 109.341825 124.055944 109.528827 122.911554 C 109.695051 121.787971 110.006722 120.685194 110.463838 119.624032 C 110.920955 118.56287 111.502739 117.584937 112.209192 116.669424 C 112.915645 115.774719 113.725988 114.963242 114.640221 114.255801 C 115.533677 113.54836 116.531022 112.986568 117.590701 112.528812 C 118.65038 112.071056 119.730838 111.758949 120.873629 111.592492 C 122.016421 111.405229 123.159212 111.384421 124.302003 111.509264 C 125.444795 111.6133 126.54603 111.883792 127.626488 112.279127 C 128.706945 112.674462 129.725068 113.215446 130.660079 113.860466 C 131.615869 114.526293 132.44699 115.296156 133.194999 116.170054 C 133.943007 117.043952 134.587126 118.001079 135.085799 119.020627 C 135.584472 120.060981 135.958476 121.142951 136.187034 122.266534 C 136.374037 123.161239 136.457149 124.076751 136.457149 124.992264 Z M 136.457149 124.992264 " stroke="#ffffff" stroke-width="2.77" stroke-opacity="1" stroke-miterlimit="10"/><path stroke-linecap="butt" transform="matrix(0.187999, 0, 0, 0.187736, 0.490711, 0.0187756)" fill="none" stroke-linejoin="miter" d="M 102.111072 124.076751 L 109.321047 124.076751 " stroke="#ffffff" stroke-width="2.77" stroke-opacity="1" stroke-miterlimit="10"/><path stroke-linecap="butt" transform="matrix(0.187999, 0, 0, 0.187736, 0.490711, 0.0187756)" fill="none" stroke-linejoin="miter" d="M 136.187034 122.266534 L 148.383736 122.266534 " stroke="#ffffff" stroke-width="2.77" stroke-opacity="1" stroke-miterlimit="10"/></svg>