<svg xmlns="http://www.w3.org/2000/svg" xmlns:xlink="http://www.w3.org/1999/xlink" width="64" zoomAndPan="magnify" viewBox="0 0 48 48" height="64" preserveAspectRatio="xMidYMid meet" version="1.0"><defs><clipPath id="c300dec6af"><path d="M 0.488281 0 L 47.507812 0 L 47.507812 47 L 0.488281 47 Z M 0.488281 0 " clip-rule="nonzero"/></clipPath><clipPath id="2ee5e08f9a"><path d="M 10 33 L 38 33 L 38 47.019531 L 10 47.019531 Z M 10 33 " clip-rule="nonzero"/></clipPath></defs><g clip-path="url(#c300dec6af)"><path fill="#eec124" d="M 47.507812 23.425781 C 47.507812 36.359375 36.988281 46.84375 24.007812 46.84375 C 11.027344 46.84375 0.507812 36.359375 0.507812 23.425781 C 0.503906 10.492188 11.027344 0.0078125 24.007812 0.0078125 C 36.988281 0.0078125 47.507812 10.492188 47.507812 23.425781 " fill-opacity="1" fill-rule="nonzero"/></g><path fill="#23255d" d="M 34.539062 40.785156 L 14.015625 40.785156 L 14.015625 21.300781 L 34.539062 21.300781 L 34.539062 40.785156 " fill-opacity="1" fill-rule="nonzero"/><g clip-path="url(#2ee5e08f9a)"><path fill="#ffffff" d="M 37.71875 46.90625 C 36.554688 47.773438 35.308594 48.53125 33.992188 49.164062 C 33.789062 49.261719 33.589844 49.351562 33.386719 49.445312 C 30.523438 50.722656 27.347656 51.433594 24.007812 51.433594 C 20.664062 51.433594 17.492188 50.722656 14.628906 49.445312 C 14.425781 49.351562 14.222656 49.261719 14.023438 49.164062 C 12.707031 48.527344 11.457031 47.773438 10.296875 46.90625 C 10.5 42.378906 12.914062 38.425781 16.488281 36.089844 C 18.648438 34.679688 21.230469 33.859375 24.007812 33.859375 C 24.429688 33.859375 24.851562 33.878906 25.261719 33.914062 C 27.5625 34.121094 29.695312 34.894531 31.527344 36.089844 C 33.171875 37.167969 34.570312 38.585938 35.621094 40.242188 C 36.855469 42.1875 37.605469 44.464844 37.71875 46.90625 " fill-opacity="1" fill-rule="nonzero"/></g><path fill="#fbd5c0" d="M 31.527344 36.089844 C 31.316406 37.671875 30.617188 39.097656 29.582031 40.210938 C 28.199219 41.707031 26.214844 42.644531 24.007812 42.644531 C 20.472656 42.644531 17.503906 40.238281 16.664062 36.976562 C 16.589844 36.6875 16.53125 36.390625 16.488281 36.089844 C 18.648438 34.679688 21.230469 33.859375 24.007812 33.859375 C 24.429688 33.859375 24.851562 33.875 25.261719 33.914062 C 25.335938 33.921875 25.40625 33.929688 25.476562 33.9375 C 25.523438 33.941406 25.566406 33.945312 25.609375 33.953125 C 25.660156 33.957031 25.707031 33.964844 25.757812 33.96875 C 25.785156 33.972656 25.816406 33.976562 25.847656 33.980469 C 25.890625 33.984375 25.9375 33.992188 25.980469 34 C 26.015625 34.003906 26.050781 34.007812 26.085938 34.015625 C 26.117188 34.019531 26.144531 34.023438 26.175781 34.027344 C 26.226562 34.035156 26.277344 34.046875 26.328125 34.050781 C 26.546875 34.089844 26.761719 34.132812 26.976562 34.179688 L 27.121094 34.210938 C 27.148438 34.21875 27.175781 34.222656 27.203125 34.230469 C 27.253906 34.242188 27.304688 34.253906 27.355469 34.269531 C 27.363281 34.269531 27.371094 34.273438 27.378906 34.273438 C 27.441406 34.289062 27.507812 34.304688 27.570312 34.324219 C 27.636719 34.339844 27.707031 34.359375 27.769531 34.378906 C 27.847656 34.398438 27.921875 34.421875 28 34.445312 C 28.058594 34.460938 28.113281 34.480469 28.171875 34.5 C 28.210938 34.511719 28.25 34.523438 28.285156 34.535156 C 28.347656 34.554688 28.410156 34.574219 28.46875 34.597656 C 28.542969 34.621094 28.617188 34.648438 28.691406 34.675781 C 28.695312 34.675781 28.699219 34.679688 28.703125 34.679688 C 28.78125 34.707031 28.855469 34.734375 28.929688 34.765625 C 28.984375 34.785156 29.042969 34.808594 29.101562 34.832031 C 29.246094 34.890625 29.394531 34.949219 29.535156 35.011719 L 29.726562 35.097656 C 29.78125 35.125 29.839844 35.148438 29.894531 35.175781 C 29.949219 35.203125 30 35.226562 30.050781 35.25 C 30.097656 35.273438 30.144531 35.296875 30.191406 35.320312 C 30.222656 35.335938 30.253906 35.351562 30.28125 35.367188 C 30.40625 35.429688 30.527344 35.496094 30.648438 35.5625 C 30.691406 35.585938 30.734375 35.609375 30.777344 35.632812 C 30.804688 35.652344 30.832031 35.664062 30.859375 35.679688 L 30.960938 35.742188 L 31.066406 35.804688 L 31.132812 35.84375 C 31.195312 35.878906 31.257812 35.917969 31.320312 35.960938 C 31.390625 36.003906 31.457031 36.046875 31.527344 36.089844 " fill-opacity="1" fill-rule="nonzero"/><path fill="#fbd5c0" d="M 26.648438 30.792969 L 26.648438 35.976562 C 26.648438 37.285156 25.574219 38.359375 24.261719 38.359375 L 23.753906 38.359375 C 22.441406 38.359375 21.367188 37.285156 21.367188 35.976562 L 21.367188 30.792969 C 21.367188 29.484375 22.441406 28.410156 23.753906 28.410156 L 24.261719 28.410156 C 25.574219 28.410156 26.648438 29.484375 26.648438 30.792969 " fill-opacity="1" fill-rule="nonzero"/><path fill="#f8a29e" d="M 26.648438 30.792969 L 26.648438 33.535156 C 25.863281 33.96875 25.03125 34.222656 24.1875 34.222656 C 23.1875 34.222656 22.234375 33.945312 21.367188 33.464844 L 21.367188 30.792969 C 21.367188 29.484375 22.441406 28.410156 23.753906 28.410156 L 24.261719 28.410156 C 25.574219 28.410156 26.648438 29.484375 26.648438 30.792969 " fill-opacity="1" fill-rule="nonzero"/><path fill="#fbd5c0" d="M 32.15625 27.582031 C 32.15625 27.582031 33.722656 27.050781 34.71875 25.3125 C 35.808594 23.425781 35.125 22.25 34.910156 21.992188 C 34.320312 21.296875 33.414062 21.746094 33.261719 21.992188 C 33.113281 22.242188 30.945312 26.164062 32.15625 27.582031 " fill-opacity="1" fill-rule="nonzero"/><path fill="#f8a29e" d="M 33.6875 22.613281 C 33.6875 22.613281 34.683594 22.738281 34.335938 24.128906 C 33.984375 25.523438 33.066406 26.074219 31.820312 26.785156 C 30.574219 27.496094 32.441406 22.894531 33.6875 22.613281 " fill-opacity="1" fill-rule="nonzero"/><path fill="#fbd5c0" d="M 16.265625 27.582031 C 16.265625 27.582031 14.699219 27.050781 13.703125 25.3125 C 12.613281 23.425781 13.296875 22.25 13.511719 21.992188 C 14.097656 21.296875 15.007812 21.746094 15.15625 21.992188 C 15.308594 22.242188 17.476562 26.164062 16.265625 27.582031 " fill-opacity="1" fill-rule="nonzero"/><path fill="#f8a29e" d="M 14.730469 22.613281 C 14.730469 22.613281 13.738281 22.738281 14.085938 24.128906 C 14.4375 25.523438 15.355469 26.074219 16.601562 26.785156 C 17.851562 27.496094 15.980469 22.894531 14.730469 22.613281 " fill-opacity="1" fill-rule="nonzero"/><path fill="#fbd5c0" d="M 33.6875 21.695312 C 33.6875 15.980469 29.457031 11.34375 24.230469 11.34375 C 19.007812 11.34375 14.773438 15.980469 14.773438 21.695312 C 14.773438 27.410156 19.007812 33.382812 24.230469 33.382812 C 29.140625 33.382812 33.6875 27.363281 33.6875 21.695312 " fill-opacity="1" fill-rule="nonzero"/><path fill="#23255d" d="M 34.40625 18.191406 C 34.003906 14.46875 31.410156 8.625 25.089844 9.371094 C 22.394531 8.773438 14.015625 9.945312 14.015625 21.621094 C 14.015625 21.621094 15.6875 22.964844 19.484375 23.675781 C 19.660156 20.996094 20.152344 18.988281 20.152344 18.988281 C 19.765625 21.132812 20.601562 22.5625 20.640625 23.859375 C 23.832031 24.292969 28.277344 24.253906 34.164062 22.875 C 34.164062 22.875 34.804688 21.851562 34.40625 18.191406 " fill-opacity="1" fill-rule="nonzero"/><path fill="#23255d" d="M 17.011719 34.96875 L 14.015625 34.96875 L 14.015625 21.300781 L 17.011719 21.300781 L 17.011719 34.96875 " fill-opacity="1" fill-rule="nonzero"/><path fill="#23255d" d="M 34.539062 34.96875 L 31.539062 34.96875 L 31.539062 21.300781 L 34.539062 21.300781 L 34.539062 34.96875 " fill-opacity="1" fill-rule="nonzero"/></svg>