<svg xmlns="http://www.w3.org/2000/svg" xmlns:xlink="http://www.w3.org/1999/xlink" width="64" zoomAndPan="magnify" viewBox="0 0 48 48" height="64" preserveAspectRatio="xMidYMid meet" version="1.0"><defs><clipPath id="0f5f59dbc8"><path d="M 0.488281 0 L 47.507812 0 L 47.507812 47.019531 L 0.488281 47.019531 Z M 0.488281 0 " clip-rule="nonzero"/></clipPath><clipPath id="536dc01e43"><path d="M 12 3 L 39 3 L 39 40 L 12 40 Z M 12 3 " clip-rule="nonzero"/></clipPath><clipPath id="a670ccb9e2"><path d="M 0.507812 23.507812 C 0.507812 21.96875 0.65625 20.4375 0.957031 18.925781 C 1.257812 17.414062 1.707031 15.945312 2.296875 14.519531 C 2.886719 13.09375 3.609375 11.738281 4.464844 10.457031 C 5.324219 9.171875 6.296875 7.988281 7.386719 6.894531 C 8.480469 5.804688 9.664062 4.832031 10.949219 3.972656 C 12.230469 3.117188 13.585938 2.394531 15.011719 1.804688 C 16.433594 1.210938 17.902344 0.765625 19.417969 0.464844 C 20.929688 0.164062 22.457031 0.015625 24 0.015625 C 25.542969 0.015625 27.070312 0.164062 28.582031 0.464844 C 30.097656 0.765625 31.566406 1.210938 32.992188 1.804688 C 34.414062 2.394531 35.769531 3.117188 37.050781 3.972656 C 38.335938 4.832031 39.523438 5.804688 40.613281 6.894531 C 41.703125 7.988281 42.675781 9.171875 43.535156 10.457031 C 44.390625 11.738281 45.113281 13.09375 45.703125 14.519531 C 46.296875 15.945312 46.742188 17.414062 47.042969 18.925781 C 47.34375 20.4375 47.492188 21.96875 47.492188 23.507812 C 47.492188 25.050781 47.34375 26.582031 47.042969 28.09375 C 46.742188 29.605469 46.296875 31.074219 45.703125 32.5 C 45.113281 33.925781 44.390625 35.28125 43.535156 36.5625 C 42.675781 37.84375 41.703125 39.03125 40.613281 40.125 C 39.523438 41.214844 38.335938 42.1875 37.050781 43.046875 C 35.769531 43.902344 34.414062 44.625 32.992188 45.214844 C 31.566406 45.808594 30.097656 46.253906 28.582031 46.554688 C 27.070312 46.855469 25.542969 47.003906 24 47.003906 C 22.457031 47.003906 20.929688 46.855469 19.417969 46.554688 C 17.902344 46.253906 16.433594 45.808594 15.011719 45.214844 C 13.585938 44.625 12.230469 43.902344 10.949219 43.046875 C 9.664062 42.1875 8.480469 41.214844 7.386719 40.125 C 6.296875 39.03125 5.324219 37.84375 4.464844 36.5625 C 3.609375 35.28125 2.886719 33.925781 2.296875 32.5 C 1.707031 31.074219 1.257812 29.605469 0.957031 28.09375 C 0.65625 26.582031 0.507812 25.050781 0.507812 23.507812 Z M 0.507812 23.507812 " clip-rule="nonzero"/></clipPath><clipPath id="a29ab59595"><path d="M 20 23 L 30 23 L 30 35 L 20 35 Z M 20 23 " clip-rule="nonzero"/></clipPath><clipPath id="766857db96"><path d="M 0.507812 23.507812 C 0.507812 21.96875 0.65625 20.4375 0.957031 18.925781 C 1.257812 17.414062 1.707031 15.945312 2.296875 14.519531 C 2.886719 13.09375 3.609375 11.738281 4.464844 10.457031 C 5.324219 9.171875 6.296875 7.988281 7.386719 6.894531 C 8.480469 5.804688 9.664062 4.832031 10.949219 3.972656 C 12.230469 3.117188 13.585938 2.394531 15.011719 1.804688 C 16.433594 1.210938 17.902344 0.765625 19.417969 0.464844 C 20.929688 0.164062 22.457031 0.015625 24 0.015625 C 25.542969 0.015625 27.070312 0.164062 28.582031 0.464844 C 30.097656 0.765625 31.566406 1.210938 32.992188 1.804688 C 34.414062 2.394531 35.769531 3.117188 37.050781 3.972656 C 38.335938 4.832031 39.523438 5.804688 40.613281 6.894531 C 41.703125 7.988281 42.675781 9.171875 43.535156 10.457031 C 44.390625 11.738281 45.113281 13.09375 45.703125 14.519531 C 46.296875 15.945312 46.742188 17.414062 47.042969 18.925781 C 47.34375 20.4375 47.492188 21.96875 47.492188 23.507812 C 47.492188 25.050781 47.34375 26.582031 47.042969 28.09375 C 46.742188 29.605469 46.296875 31.074219 45.703125 32.5 C 45.113281 33.925781 44.390625 35.28125 43.535156 36.5625 C 42.675781 37.84375 41.703125 39.03125 40.613281 40.125 C 39.523438 41.214844 38.335938 42.1875 37.050781 43.046875 C 35.769531 43.902344 34.414062 44.625 32.992188 45.214844 C 31.566406 45.808594 30.097656 46.253906 28.582031 46.554688 C 27.070312 46.855469 25.542969 47.003906 24 47.003906 C 22.457031 47.003906 20.929688 46.855469 19.417969 46.554688 C 17.902344 46.253906 16.433594 45.808594 15.011719 45.214844 C 13.585938 44.625 12.230469 43.902344 10.949219 43.046875 C 9.664062 42.1875 8.480469 41.214844 7.386719 40.125 C 6.296875 39.03125 5.324219 37.84375 4.464844 36.5625 C 3.609375 35.28125 2.886719 33.925781 2.296875 32.5 C 1.707031 31.074219 1.257812 29.605469 0.957031 28.09375 C 0.65625 26.582031 0.507812 25.050781 0.507812 23.507812 Z M 0.507812 23.507812 " clip-rule="nonzero"/></clipPath><clipPath id="758f0f8ae6"><path d="M 20.175781 23.867188 L 29.332031 23.867188 L 29.332031 30 L 20.175781 30 Z M 20.175781 23.867188 " clip-rule="nonzero"/></clipPath><clipPath id="10216f3950"><path d="M 0.507812 23.507812 C 0.507812 21.96875 0.65625 20.4375 0.957031 18.925781 C 1.257812 17.414062 1.707031 15.945312 2.296875 14.519531 C 2.886719 13.09375 3.609375 11.738281 4.464844 10.457031 C 5.324219 9.171875 6.296875 7.988281 7.386719 6.894531 C 8.480469 5.804688 9.664062 4.832031 10.949219 3.972656 C 12.230469 3.117188 13.585938 2.394531 15.011719 1.804688 C 16.433594 1.210938 17.902344 0.765625 19.417969 0.464844 C 20.929688 0.164062 22.457031 0.015625 24 0.015625 C 25.542969 0.015625 27.070312 0.164062 28.582031 0.464844 C 30.097656 0.765625 31.566406 1.210938 32.992188 1.804688 C 34.414062 2.394531 35.769531 3.117188 37.050781 3.972656 C 38.335938 4.832031 39.523438 5.804688 40.613281 6.894531 C 41.703125 7.988281 42.675781 9.171875 43.535156 10.457031 C 44.390625 11.738281 45.113281 13.09375 45.703125 14.519531 C 46.296875 15.945312 46.742188 17.414062 47.042969 18.925781 C 47.34375 20.4375 47.492188 21.96875 47.492188 23.507812 C 47.492188 25.050781 47.34375 26.582031 47.042969 28.09375 C 46.742188 29.605469 46.296875 31.074219 45.703125 32.5 C 45.113281 33.925781 44.390625 35.28125 43.535156 36.5625 C 42.675781 37.84375 41.703125 39.03125 40.613281 40.125 C 39.523438 41.214844 38.335938 42.1875 37.050781 43.046875 C 35.769531 43.902344 34.414062 44.625 32.992188 45.214844 C 31.566406 45.808594 30.097656 46.253906 28.582031 46.554688 C 27.070312 46.855469 25.542969 47.003906 24 47.003906 C 22.457031 47.003906 20.929688 46.855469 19.417969 46.554688 C 17.902344 46.253906 16.433594 45.808594 15.011719 45.214844 C 13.585938 44.625 12.230469 43.902344 10.949219 43.046875 C 9.664062 42.1875 8.480469 41.214844 7.386719 40.125 C 6.296875 39.03125 5.324219 37.84375 4.464844 36.5625 C 3.609375 35.28125 2.886719 33.925781 2.296875 32.5 C 1.707031 31.074219 1.257812 29.605469 0.957031 28.09375 C 0.65625 26.582031 0.507812 25.050781 0.507812 23.507812 Z M 0.507812 23.507812 " clip-rule="nonzero"/></clipPath><clipPath id="ec0fcb486b"><path d="M 20.234375 24.847656 C 20.199219 25.933594 20.5625 31.210938 20.359375 32.867188 C 23.09375 33.496094 26.632812 34.910156 29.304688 33.339844 C 28.921875 32.222656 28.90625 30.875 28.851562 29.710938 C 28.746094 27.453125 28.371094 26.136719 28.644531 23.890625 Z M 20.234375 24.847656 " clip-rule="evenodd"/></clipPath><clipPath id="3526c1aee9"><path d="M 6 30 L 43 30 L 43 47.019531 L 6 47.019531 Z M 6 30 " clip-rule="nonzero"/></clipPath><clipPath id="19f7f5c1b5"><path d="M 0.507812 23.507812 C 0.507812 21.96875 0.65625 20.4375 0.957031 18.925781 C 1.257812 17.414062 1.707031 15.945312 2.296875 14.519531 C 2.886719 13.09375 3.609375 11.738281 4.464844 10.457031 C 5.324219 9.171875 6.296875 7.988281 7.386719 6.894531 C 8.480469 5.804688 9.664062 4.832031 10.949219 3.972656 C 12.230469 3.117188 13.585938 2.394531 15.011719 1.804688 C 16.433594 1.210938 17.902344 0.765625 19.417969 0.464844 C 20.929688 0.164062 22.457031 0.015625 24 0.015625 C 25.542969 0.015625 27.070312 0.164062 28.582031 0.464844 C 30.097656 0.765625 31.566406 1.210938 32.992188 1.804688 C 34.414062 2.394531 35.769531 3.117188 37.050781 3.972656 C 38.335938 4.832031 39.523438 5.804688 40.613281 6.894531 C 41.703125 7.988281 42.675781 9.171875 43.535156 10.457031 C 44.390625 11.738281 45.113281 13.09375 45.703125 14.519531 C 46.296875 15.945312 46.742188 17.414062 47.042969 18.925781 C 47.34375 20.4375 47.492188 21.96875 47.492188 23.507812 C 47.492188 25.050781 47.34375 26.582031 47.042969 28.09375 C 46.742188 29.605469 46.296875 31.074219 45.703125 32.5 C 45.113281 33.925781 44.390625 35.28125 43.535156 36.5625 C 42.675781 37.84375 41.703125 39.03125 40.613281 40.125 C 39.523438 41.214844 38.335938 42.1875 37.050781 43.046875 C 35.769531 43.902344 34.414062 44.625 32.992188 45.214844 C 31.566406 45.808594 30.097656 46.253906 28.582031 46.554688 C 27.070312 46.855469 25.542969 47.003906 24 47.003906 C 22.457031 47.003906 20.929688 46.855469 19.417969 46.554688 C 17.902344 46.253906 16.433594 45.808594 15.011719 45.214844 C 13.585938 44.625 12.230469 43.902344 10.949219 43.046875 C 9.664062 42.1875 8.480469 41.214844 7.386719 40.125 C 6.296875 39.03125 5.324219 37.84375 4.464844 36.5625 C 3.609375 35.28125 2.886719 33.925781 2.296875 32.5 C 1.707031 31.074219 1.257812 29.605469 0.957031 28.09375 C 0.65625 26.582031 0.507812 25.050781 0.507812 23.507812 Z M 0.507812 23.507812 " clip-rule="nonzero"/></clipPath><clipPath id="1daff12653"><path d="M 23 31 L 26 31 L 26 47.019531 L 23 47.019531 Z M 23 31 " clip-rule="nonzero"/></clipPath><clipPath id="b05cc25e93"><path d="M 0.507812 23.507812 C 0.507812 21.96875 0.65625 20.4375 0.957031 18.925781 C 1.257812 17.414062 1.707031 15.945312 2.296875 14.519531 C 2.886719 13.09375 3.609375 11.738281 4.464844 10.457031 C 5.324219 9.171875 6.296875 7.988281 7.386719 6.894531 C 8.480469 5.804688 9.664062 4.832031 10.949219 3.972656 C 12.230469 3.117188 13.585938 2.394531 15.011719 1.804688 C 16.433594 1.210938 17.902344 0.765625 19.417969 0.464844 C 20.929688 0.164062 22.457031 0.015625 24 0.015625 C 25.542969 0.015625 27.070312 0.164062 28.582031 0.464844 C 30.097656 0.765625 31.566406 1.210938 32.992188 1.804688 C 34.414062 2.394531 35.769531 3.117188 37.050781 3.972656 C 38.335938 4.832031 39.523438 5.804688 40.613281 6.894531 C 41.703125 7.988281 42.675781 9.171875 43.535156 10.457031 C 44.390625 11.738281 45.113281 13.09375 45.703125 14.519531 C 46.296875 15.945312 46.742188 17.414062 47.042969 18.925781 C 47.34375 20.4375 47.492188 21.96875 47.492188 23.507812 C 47.492188 25.050781 47.34375 26.582031 47.042969 28.09375 C 46.742188 29.605469 46.296875 31.074219 45.703125 32.5 C 45.113281 33.925781 44.390625 35.28125 43.535156 36.5625 C 42.675781 37.84375 41.703125 39.03125 40.613281 40.125 C 39.523438 41.214844 38.335938 42.1875 37.050781 43.046875 C 35.769531 43.902344 34.414062 44.625 32.992188 45.214844 C 31.566406 45.808594 30.097656 46.253906 28.582031 46.554688 C 27.070312 46.855469 25.542969 47.003906 24 47.003906 C 22.457031 47.003906 20.929688 46.855469 19.417969 46.554688 C 17.902344 46.253906 16.433594 45.808594 15.011719 45.214844 C 13.585938 44.625 12.230469 43.902344 10.949219 43.046875 C 9.664062 42.1875 8.480469 41.214844 7.386719 40.125 C 6.296875 39.03125 5.324219 37.84375 4.464844 36.5625 C 3.609375 35.28125 2.886719 33.925781 2.296875 32.5 C 1.707031 31.074219 1.257812 29.605469 0.957031 28.09375 C 0.65625 26.582031 0.507812 25.050781 0.507812 23.507812 Z M 0.507812 23.507812 " clip-rule="nonzero"/></clipPath><clipPath id="f4f494a3dc"><path d="M 6.292969 45.085938 C 7.238281 42.625 8.144531 37.289062 9.707031 35.105469 C 10.660156 33.773438 18.328125 31.347656 20.378906 30.269531 C 21.316406 31.191406 23.664062 33.214844 25.070312 32.9375 C 26.328125 32.6875 27.847656 31.617188 28.894531 30.066406 C 30.941406 31.167969 36.355469 32.148438 38.503906 34.007812 C 40.199219 35.476562 41.648438 40.316406 42.441406 42.960938 C 29.609375 54.921875 16.992188 56.804688 6.292969 45.085938 " clip-rule="evenodd"/></clipPath><clipPath id="89f02a5953"><path d="M 15 30.023438 L 34 30.023438 L 34 37 L 15 37 Z M 15 30.023438 " clip-rule="nonzero"/></clipPath><clipPath id="dec15996e9"><path d="M 0.507812 23.507812 C 0.507812 21.96875 0.65625 20.4375 0.957031 18.925781 C 1.257812 17.414062 1.707031 15.945312 2.296875 14.519531 C 2.886719 13.09375 3.609375 11.738281 4.464844 10.457031 C 5.324219 9.171875 6.296875 7.988281 7.386719 6.894531 C 8.480469 5.804688 9.664062 4.832031 10.949219 3.972656 C 12.230469 3.117188 13.585938 2.394531 15.011719 1.804688 C 16.433594 1.210938 17.902344 0.765625 19.417969 0.464844 C 20.929688 0.164062 22.457031 0.015625 24 0.015625 C 25.542969 0.015625 27.070312 0.164062 28.582031 0.464844 C 30.097656 0.765625 31.566406 1.210938 32.992188 1.804688 C 34.414062 2.394531 35.769531 3.117188 37.050781 3.972656 C 38.335938 4.832031 39.523438 5.804688 40.613281 6.894531 C 41.703125 7.988281 42.675781 9.171875 43.535156 10.457031 C 44.390625 11.738281 45.113281 13.09375 45.703125 14.519531 C 46.296875 15.945312 46.742188 17.414062 47.042969 18.925781 C 47.34375 20.4375 47.492188 21.96875 47.492188 23.507812 C 47.492188 25.050781 47.34375 26.582031 47.042969 28.09375 C 46.742188 29.605469 46.296875 31.074219 45.703125 32.5 C 45.113281 33.925781 44.390625 35.28125 43.535156 36.5625 C 42.675781 37.84375 41.703125 39.03125 40.613281 40.125 C 39.523438 41.214844 38.335938 42.1875 37.050781 43.046875 C 35.769531 43.902344 34.414062 44.625 32.992188 45.214844 C 31.566406 45.808594 30.097656 46.253906 28.582031 46.554688 C 27.070312 46.855469 25.542969 47.003906 24 47.003906 C 22.457031 47.003906 20.929688 46.855469 19.417969 46.554688 C 17.902344 46.253906 16.433594 45.808594 15.011719 45.214844 C 13.585938 44.625 12.230469 43.902344 10.949219 43.046875 C 9.664062 42.1875 8.480469 41.214844 7.386719 40.125 C 6.296875 39.03125 5.324219 37.84375 4.464844 36.5625 C 3.609375 35.28125 2.886719 33.925781 2.296875 32.5 C 1.707031 31.074219 1.257812 29.605469 0.957031 28.09375 C 0.65625 26.582031 0.507812 25.050781 0.507812 23.507812 Z M 0.507812 23.507812 " clip-rule="nonzero"/></clipPath><clipPath id="96b8730642"><path d="M 6.292969 45.085938 C 7.238281 42.625 8.144531 37.289062 9.707031 35.105469 C 10.660156 33.773438 18.328125 31.347656 20.378906 30.269531 C 21.316406 31.191406 23.664062 33.214844 25.070312 32.9375 C 26.328125 32.6875 27.847656 31.617188 28.894531 30.066406 C 30.941406 31.167969 36.355469 32.148438 38.503906 34.007812 C 40.199219 35.476562 41.648438 40.316406 42.441406 42.960938 C 29.609375 54.921875 16.992188 56.804688 6.292969 45.085938 " clip-rule="evenodd"/></clipPath><clipPath id="6761144ad0"><path d="M 15 8 L 33 8 L 33 29 L 15 29 Z M 15 8 " clip-rule="nonzero"/></clipPath><clipPath id="1a0c90a91e"><path d="M 0.507812 23.507812 C 0.507812 21.96875 0.65625 20.4375 0.957031 18.925781 C 1.257812 17.414062 1.707031 15.945312 2.296875 14.519531 C 2.886719 13.09375 3.609375 11.738281 4.464844 10.457031 C 5.324219 9.171875 6.296875 7.988281 7.386719 6.894531 C 8.480469 5.804688 9.664062 4.832031 10.949219 3.972656 C 12.230469 3.117188 13.585938 2.394531 15.011719 1.804688 C 16.433594 1.210938 17.902344 0.765625 19.417969 0.464844 C 20.929688 0.164062 22.457031 0.015625 24 0.015625 C 25.542969 0.015625 27.070312 0.164062 28.582031 0.464844 C 30.097656 0.765625 31.566406 1.210938 32.992188 1.804688 C 34.414062 2.394531 35.769531 3.117188 37.050781 3.972656 C 38.335938 4.832031 39.523438 5.804688 40.613281 6.894531 C 41.703125 7.988281 42.675781 9.171875 43.535156 10.457031 C 44.390625 11.738281 45.113281 13.09375 45.703125 14.519531 C 46.296875 15.945312 46.742188 17.414062 47.042969 18.925781 C 47.34375 20.4375 47.492188 21.96875 47.492188 23.507812 C 47.492188 25.050781 47.34375 26.582031 47.042969 28.09375 C 46.742188 29.605469 46.296875 31.074219 45.703125 32.5 C 45.113281 33.925781 44.390625 35.28125 43.535156 36.5625 C 42.675781 37.84375 41.703125 39.03125 40.613281 40.125 C 39.523438 41.214844 38.335938 42.1875 37.050781 43.046875 C 35.769531 43.902344 34.414062 44.625 32.992188 45.214844 C 31.566406 45.808594 30.097656 46.253906 28.582031 46.554688 C 27.070312 46.855469 25.542969 47.003906 24 47.003906 C 22.457031 47.003906 20.929688 46.855469 19.417969 46.554688 C 17.902344 46.253906 16.433594 45.808594 15.011719 45.214844 C 13.585938 44.625 12.230469 43.902344 10.949219 43.046875 C 9.664062 42.1875 8.480469 41.214844 7.386719 40.125 C 6.296875 39.03125 5.324219 37.84375 4.464844 36.5625 C 3.609375 35.28125 2.886719 33.925781 2.296875 32.5 C 1.707031 31.074219 1.257812 29.605469 0.957031 28.09375 C 0.65625 26.582031 0.507812 25.050781 0.507812 23.507812 Z M 0.507812 23.507812 " clip-rule="nonzero"/></clipPath><clipPath id="7b8b639a8f"><path d="M 14 5 L 30 5 L 30 19 L 14 19 Z M 14 5 " clip-rule="nonzero"/></clipPath><clipPath id="f0a9bc4ca0"><path d="M 0.507812 23.507812 C 0.507812 21.96875 0.65625 20.4375 0.957031 18.925781 C 1.257812 17.414062 1.707031 15.945312 2.296875 14.519531 C 2.886719 13.09375 3.609375 11.738281 4.464844 10.457031 C 5.324219 9.171875 6.296875 7.988281 7.386719 6.894531 C 8.480469 5.804688 9.664062 4.832031 10.949219 3.972656 C 12.230469 3.117188 13.585938 2.394531 15.011719 1.804688 C 16.433594 1.210938 17.902344 0.765625 19.417969 0.464844 C 20.929688 0.164062 22.457031 0.015625 24 0.015625 C 25.542969 0.015625 27.070312 0.164062 28.582031 0.464844 C 30.097656 0.765625 31.566406 1.210938 32.992188 1.804688 C 34.414062 2.394531 35.769531 3.117188 37.050781 3.972656 C 38.335938 4.832031 39.523438 5.804688 40.613281 6.894531 C 41.703125 7.988281 42.675781 9.171875 43.535156 10.457031 C 44.390625 11.738281 45.113281 13.09375 45.703125 14.519531 C 46.296875 15.945312 46.742188 17.414062 47.042969 18.925781 C 47.34375 20.4375 47.492188 21.96875 47.492188 23.507812 C 47.492188 25.050781 47.34375 26.582031 47.042969 28.09375 C 46.742188 29.605469 46.296875 31.074219 45.703125 32.5 C 45.113281 33.925781 44.390625 35.28125 43.535156 36.5625 C 42.675781 37.84375 41.703125 39.03125 40.613281 40.125 C 39.523438 41.214844 38.335938 42.1875 37.050781 43.046875 C 35.769531 43.902344 34.414062 44.625 32.992188 45.214844 C 31.566406 45.808594 30.097656 46.253906 28.582031 46.554688 C 27.070312 46.855469 25.542969 47.003906 24 47.003906 C 22.457031 47.003906 20.929688 46.855469 19.417969 46.554688 C 17.902344 46.253906 16.433594 45.808594 15.011719 45.214844 C 13.585938 44.625 12.230469 43.902344 10.949219 43.046875 C 9.664062 42.1875 8.480469 41.214844 7.386719 40.125 C 6.296875 39.03125 5.324219 37.84375 4.464844 36.5625 C 3.609375 35.28125 2.886719 33.925781 2.296875 32.5 C 1.707031 31.074219 1.257812 29.605469 0.957031 28.09375 C 0.65625 26.582031 0.507812 25.050781 0.507812 23.507812 Z M 0.507812 23.507812 " clip-rule="nonzero"/></clipPath><clipPath id="603cd7f846"><path d="M 0.488281 0 L 47.507812 0 L 47.507812 47.019531 L 0.488281 47.019531 Z M 0.488281 0 " clip-rule="nonzero"/></clipPath></defs><g clip-path="url(#0f5f59dbc8)"><path fill="#ffe6e6" d="M 47.492188 23.507812 C 47.492188 24.277344 47.457031 25.046875 47.378906 25.8125 C 47.304688 26.578125 47.191406 27.339844 47.042969 28.09375 C 46.890625 28.847656 46.707031 29.59375 46.480469 30.328125 C 46.257812 31.066406 46 31.789062 45.703125 32.5 C 45.410156 33.210938 45.082031 33.90625 44.71875 34.585938 C 44.355469 35.265625 43.960938 35.921875 43.535156 36.5625 C 43.105469 37.203125 42.648438 37.820312 42.160156 38.414062 C 41.671875 39.007812 41.15625 39.578125 40.613281 40.125 C 40.066406 40.667969 39.5 41.183594 38.902344 41.671875 C 38.308594 42.160156 37.691406 42.617188 37.050781 43.046875 C 36.414062 43.472656 35.753906 43.867188 35.074219 44.230469 C 34.394531 44.59375 33.703125 44.921875 32.992188 45.214844 C 32.28125 45.511719 31.554688 45.769531 30.820312 45.992188 C 30.082031 46.214844 29.339844 46.402344 28.582031 46.554688 C 27.828125 46.703125 27.070312 46.816406 26.304688 46.890625 C 25.539062 46.96875 24.769531 47.003906 24 47.003906 C 23.230469 47.003906 22.464844 46.96875 21.699219 46.890625 C 20.933594 46.816406 20.171875 46.703125 19.417969 46.554688 C 18.664062 46.402344 17.917969 46.214844 17.179688 45.992188 C 16.445312 45.769531 15.722656 45.511719 15.011719 45.214844 C 14.300781 44.921875 13.605469 44.59375 12.925781 44.230469 C 12.246094 43.867188 11.589844 43.472656 10.949219 43.046875 C 10.308594 42.617188 9.691406 42.160156 9.097656 41.671875 C 8.5 41.183594 7.933594 40.667969 7.386719 40.125 C 6.84375 39.578125 6.328125 39.007812 5.839844 38.414062 C 5.351562 37.820312 4.894531 37.203125 4.464844 36.5625 C 4.039062 35.921875 3.644531 35.265625 3.28125 34.585938 C 2.917969 33.90625 2.589844 33.210938 2.296875 32.5 C 2 31.789062 1.742188 31.066406 1.519531 30.328125 C 1.296875 29.59375 1.109375 28.847656 0.957031 28.09375 C 0.808594 27.339844 0.695312 26.578125 0.621094 25.8125 C 0.546875 25.046875 0.507812 24.277344 0.507812 23.507812 C 0.507812 22.738281 0.546875 21.972656 0.621094 21.207031 C 0.695312 20.441406 0.808594 19.679688 0.957031 18.925781 C 1.109375 18.171875 1.296875 17.425781 1.519531 16.6875 C 1.742188 15.953125 2 15.230469 2.296875 14.519531 C 2.589844 13.808594 2.917969 13.113281 3.28125 12.433594 C 3.644531 11.753906 4.039062 11.097656 4.464844 10.457031 C 4.894531 9.816406 5.351562 9.199219 5.839844 8.605469 C 6.328125 8.007812 6.84375 7.441406 7.386719 6.894531 C 7.933594 6.351562 8.5 5.835938 9.097656 5.347656 C 9.691406 4.859375 10.308594 4.402344 10.949219 3.972656 C 11.589844 3.546875 12.246094 3.152344 12.925781 2.789062 C 13.605469 2.425781 14.300781 2.097656 15.011719 1.804688 C 15.722656 1.507812 16.445312 1.25 17.179688 1.027344 C 17.917969 0.804688 18.664062 0.617188 19.417969 0.464844 C 20.171875 0.316406 20.933594 0.203125 21.699219 0.128906 C 22.464844 0.0507812 23.230469 0.015625 24 0.015625 C 24.769531 0.015625 25.539062 0.0507812 26.304688 0.128906 C 27.070312 0.203125 27.828125 0.316406 28.582031 0.464844 C 29.339844 0.617188 30.082031 0.804688 30.820312 1.027344 C 31.554688 1.25 32.28125 1.507812 32.992188 1.804688 C 33.703125 2.097656 34.394531 2.425781 35.074219 2.789062 C 35.753906 3.152344 36.414062 3.546875 37.050781 3.972656 C 37.691406 4.402344 38.308594 4.859375 38.902344 5.347656 C 39.5 5.835938 40.066406 6.351562 40.613281 6.894531 C 41.15625 7.441406 41.671875 8.007812 42.160156 8.605469 C 42.648438 9.199219 43.105469 9.816406 43.535156 10.457031 C 43.960938 11.097656 44.355469 11.753906 44.71875 12.433594 C 45.082031 13.113281 45.410156 13.808594 45.703125 14.519531 C 46 15.230469 46.257812 15.953125 46.480469 16.6875 C 46.707031 17.425781 46.890625 18.171875 47.042969 18.925781 C 47.191406 19.679688 47.304688 20.441406 47.378906 21.207031 C 47.457031 21.972656 47.492188 22.738281 47.492188 23.507812 Z M 47.492188 23.507812 " fill-opacity="1" fill-rule="nonzero"/></g><g clip-path="url(#536dc01e43)"><g clip-path="url(#a670ccb9e2)"><path fill="#000000" d="M 18.574219 5.324219 C 16.320312 5.265625 13.371094 9.347656 13.164062 13.542969 C 12.996094 16.902344 13.660156 20.40625 13.867188 21.957031 C 14.070312 23.457031 14.808594 26.953125 13.929688 29.285156 C 11.753906 35.0625 13.445312 37.269531 13.367188 39.308594 C 15.539062 40.058594 15.546875 38.589844 17.8125 38.753906 C 25.75 39.324219 31.113281 38.769531 38.523438 36.351562 C 37.679688 35.335938 37.113281 33.980469 36.675781 32.757812 C 35.972656 30.800781 35.496094 28.664062 35.398438 26.582031 C 35.289062 24.277344 35.664062 22.007812 35.789062 19.714844 C 35.902344 17.59375 35.753906 14.519531 35.261719 12.453125 C 33.699219 5.949219 28.613281 4.035156 26.289062 3.777344 C 24.0625 3.527344 20.945312 3.488281 18.574219 5.324219 Z M 18.574219 5.324219 " fill-opacity="1" fill-rule="evenodd"/></g></g><g clip-path="url(#a29ab59595)"><g clip-path="url(#766857db96)"><path fill="#ffc281" d="M 20.234375 24.847656 C 20.199219 25.933594 20.5625 31.210938 20.359375 32.867188 C 23.09375 33.496094 26.632812 34.910156 29.304688 33.339844 C 28.921875 32.222656 28.90625 30.875 28.851562 29.710938 C 28.746094 27.453125 28.371094 26.136719 28.644531 23.890625 Z M 20.234375 24.847656 " fill-opacity="1" fill-rule="evenodd"/></g></g><g clip-path="url(#758f0f8ae6)"><g clip-path="url(#10216f3950)"><g clip-path="url(#ec0fcb486b)"><path fill="#000000" d="M 16.121094 24.804688 C 16.683594 25.476562 18.28125 27.484375 18.980469 28.015625 C 20.78125 29.394531 23.804688 30.207031 25.855469 28.964844 C 27.964844 27.691406 29.015625 25.199219 29.519531 22.894531 Z M 16.121094 24.804688 " fill-opacity="1" fill-rule="evenodd"/></g></g></g><g clip-path="url(#3526c1aee9)"><g clip-path="url(#19f7f5c1b5)"><path fill="#e0714b" d="M 6.292969 45.085938 C 7.238281 42.625 8.144531 37.289062 9.707031 35.105469 C 10.660156 33.773438 18.328125 31.347656 20.378906 30.269531 C 21.316406 31.191406 23.664062 33.214844 25.070312 32.9375 C 26.328125 32.6875 27.847656 31.617188 28.894531 30.066406 C 30.941406 31.167969 36.355469 32.148438 38.503906 34.007812 C 40.199219 35.476562 41.648438 40.316406 42.441406 42.960938 C 29.609375 54.921875 16.992188 56.804688 6.292969 45.085938 " fill-opacity="1" fill-rule="evenodd"/></g></g><g clip-path="url(#1daff12653)"><g clip-path="url(#b05cc25e93)"><g clip-path="url(#f4f494a3dc)"><path fill="#ffffff" d="M 23.824219 48.886719 C 23.695312 44.671875 24.210938 35.230469 24.769531 31.605469 C 24.847656 31.617188 25.167969 31.804688 25.328125 31.703125 C 24.96875 35.890625 24.464844 43.722656 24.542969 48.867188 Z M 23.824219 48.886719 " fill-opacity="1" fill-rule="evenodd"/></g></g></g><g clip-path="url(#89f02a5953)"><g clip-path="url(#dec15996e9)"><g clip-path="url(#96b8730642)"><path fill="#ffffff" d="M 15.738281 29.871094 C 16.480469 31.722656 21.261719 36.597656 22.167969 36.300781 C 22.726562 36.117188 24.199219 34.355469 24.894531 32.953125 C 25.476562 34.238281 27.242188 36.472656 27.777344 36.460938 C 27.777344 36.460938 32.488281 32.761719 33.769531 29.109375 C 27.84375 27.664062 21.515625 27.921875 15.738281 29.871094 Z M 15.738281 29.871094 " fill-opacity="1" fill-rule="evenodd"/></g></g></g><g clip-path="url(#6761144ad0)"><g clip-path="url(#1a0c90a91e)"><path fill="#ffc281" d="M 15.6875 13.660156 C 15.617188 17.132812 15.722656 21.792969 17.957031 24.679688 C 18.792969 25.761719 19.742188 26.683594 20.917969 27.351562 C 21.835938 27.867188 22.992188 28.378906 24.0625 28.296875 C 25.324219 28.203125 26.195312 27.648438 26.96875 26.996094 C 28.753906 25.492188 30.007812 23.269531 30.6875 21.054688 C 31.835938 20.417969 33.105469 19.160156 32.753906 17.710938 C 32.53125 16.78125 31.546875 16.488281 30.757812 16.933594 C 30.210938 17.238281 29.894531 17.75 29.632812 18.304688 C 29.875 15.875 28.816406 12.773438 27.152344 10.902344 C 23.699219 7.011719 17.78125 8.328125 15.6875 13.660156 Z M 15.6875 13.660156 " fill-opacity="1" fill-rule="evenodd"/></g></g><g clip-path="url(#7b8b639a8f)"><g clip-path="url(#f0a9bc4ca0)"><path fill="#000000" d="M 14.964844 17.332031 C 15.359375 16.9375 15.585938 16.363281 15.855469 15.886719 C 16.984375 13.855469 17.1875 11.492188 17.234375 11.640625 C 17.351562 12.019531 18.269531 13.847656 20.253906 14.667969 C 22.003906 15.394531 23.925781 15.617188 25.800781 15.707031 C 27.257812 15.777344 28.8125 17.011719 29.613281 18.445312 C 29.933594 17.3125 29.785156 14.707031 29.503906 13.605469 C 29.296875 12.789062 29.015625 12.015625 28.65625 11.292969 C 27.917969 9.824219 26.84375 8.570312 25.386719 7.628906 C 23.488281 6.398438 18.796875 5.152344 18.796875 5.152344 L 18.546875 5.328125 C 18.546875 5.328125 18.492188 5.335938 18.460938 5.335938 C 16.953125 5.304688 16.042969 8.117188 15.214844 9.585938 C 14.695312 10.503906 14.511719 14.660156 14.859375 15.816406 Z M 14.964844 17.332031 " fill-opacity="1" fill-rule="evenodd"/></g></g><g clip-path="url(#603cd7f846)"><path stroke-linecap="round" transform="matrix(0.0613941, 0, 0, 0.0574192, -27.728057, -21.369306)" fill="none" stroke-linejoin="round" d="M 1225.203981 781.570448 C 1225.203981 794.972442 1224.631348 808.374436 1223.358831 821.7084 C 1222.14994 835.042364 1220.30479 848.308297 1217.887007 861.438169 C 1215.405598 874.568042 1212.415182 887.561854 1208.724882 900.351574 C 1205.098208 913.209325 1200.898901 925.794954 1196.063335 938.176492 C 1191.291396 950.55803 1185.946823 962.667446 1180.029618 974.50474 C 1174.112412 986.342034 1167.6862 997.771146 1160.750981 1008.928136 C 1153.752136 1020.085126 1146.30791 1030.833934 1138.354677 1041.174559 C 1130.401444 1051.515184 1122.00283 1061.447626 1113.158835 1070.971886 C 1104.251214 1080.428116 1095.025463 1089.408132 1085.290706 1097.911936 C 1075.619575 1106.415739 1065.566688 1114.375299 1055.132047 1121.858646 C 1044.761031 1129.273963 1034.00826 1136.145036 1022.937359 1142.471866 C 1011.866459 1148.798695 1000.604681 1154.513251 989.024774 1159.615533 C 977.444867 1164.785846 965.610456 1169.275854 953.648794 1173.153588 C 941.623505 1177.031323 929.534591 1180.296783 917.191173 1182.94997 C 904.911382 1185.535126 892.567964 1187.508009 880.097295 1188.800587 C 867.626625 1190.161195 855.09233 1190.773469 842.558035 1190.773469 C 830.02374 1190.773469 817.55307 1190.161195 805.082401 1188.800587 C 792.611732 1187.508009 780.204688 1185.535126 767.924897 1182.94997 C 755.645105 1180.296783 743.492565 1177.031323 731.467276 1173.153588 C 719.505614 1169.275854 707.734829 1164.785846 696.154922 1159.615533 C 684.575015 1154.513251 673.249611 1148.798695 662.178711 1142.471866 C 651.10781 1136.145036 640.418665 1129.273963 629.984023 1121.858646 C 619.549382 1114.375299 609.496495 1106.415739 599.825364 1097.911936 C 590.090607 1089.408132 580.864856 1080.428116 571.957235 1070.971886 C 563.11324 1061.447626 554.714626 1051.515184 546.761393 1041.174559 C 538.80816 1030.833934 531.363934 1020.085126 524.365089 1008.928136 C 517.42987 997.771146 511.003658 986.342034 505.086452 974.50474 C 499.169247 962.667446 493.824674 950.55803 489.052735 938.176492 C 484.217169 925.794954 480.017862 913.209325 476.391188 900.351574 C 472.764513 887.561854 469.710472 874.568042 467.229063 861.438169 C 464.81128 848.308297 462.96613 835.042364 461.757239 821.7084 C 460.548347 808.374436 459.912089 794.972442 459.912089 781.570448 C 459.912089 768.168453 460.548347 754.83449 461.757239 741.500526 C 462.96613 728.166562 464.81128 714.900629 467.229063 701.770756 C 469.710472 688.640884 472.764513 675.647072 476.391188 662.789321 C 480.017862 649.999601 484.217169 637.413972 489.052735 625.032434 C 493.824674 612.650896 499.169247 600.54148 505.086452 588.704185 C 511.003658 576.866891 517.42987 565.437779 524.365089 554.280789 C 531.363934 543.123799 538.80816 532.374991 546.761393 522.034366 C 554.714626 511.625711 563.11324 501.761299 571.957235 492.237039 C 580.864856 482.78081 590.090607 473.800793 599.825364 465.29699 C 609.496495 456.793186 619.549382 448.833626 629.984023 441.350279 C 640.418665 433.934963 651.10781 427.06389 662.178711 420.73706 C 673.249611 414.41023 684.575015 408.695674 696.154922 403.593392 C 707.734829 398.42308 719.505614 393.933071 731.467276 390.055337 C 743.492565 386.177603 755.645105 382.912142 767.924897 380.258955 C 780.204688 377.673799 792.611732 375.700917 805.082401 374.408339 C 817.55307 373.04773 830.02374 372.435456 842.558035 372.435456 C 855.09233 372.435456 867.626625 373.04773 880.097295 374.408339 C 892.567964 375.700917 904.911382 377.673799 917.191173 380.258955 C 929.534591 382.912142 941.623505 386.177603 953.648794 390.055337 C 965.610456 393.933071 977.444867 398.42308 989.024774 403.593392 C 1000.604681 408.695674 1011.866459 414.41023 1022.937359 420.73706 C 1034.00826 427.06389 1044.761031 433.934963 1055.132047 441.350279 C 1065.566688 448.833626 1075.619575 456.793186 1085.290706 465.29699 C 1095.025463 473.800793 1104.251214 482.78081 1113.158835 492.237039 C 1122.00283 501.761299 1130.401444 511.625711 1138.354677 522.034366 C 1146.30791 532.374991 1153.752136 543.123799 1160.750981 554.280789 C 1167.6862 565.437779 1174.112412 576.866891 1180.029618 588.704185 C 1185.946823 600.54148 1191.291396 612.650896 1196.063335 625.032434 C 1200.898901 637.413972 1205.098208 649.999601 1208.724882 662.789321 C 1212.415182 675.647072 1215.405598 688.640884 1217.887007 701.770756 C 1220.30479 714.900629 1222.14994 728.166562 1223.358831 741.500526 C 1224.631348 754.83449 1225.203981 768.168453 1225.203981 781.570448 Z M 1225.203981 781.570448 " stroke="#ffffff" stroke-width="0.52" stroke-opacity="1" stroke-miterlimit="1.5"/></g></svg>