<svg xmlns="http://www.w3.org/2000/svg" xmlns:xlink="http://www.w3.org/1999/xlink" width="64" zoomAndPan="magnify" viewBox="0 0 48 48" height="64" preserveAspectRatio="xMidYMid meet" version="1.0"><defs><clipPath id="2ebe82c060"><path d="M 0.488281 0 L 47.507812 0 L 47.507812 46 L 0.488281 46 Z M 0.488281 0 " clip-rule="nonzero"/></clipPath><clipPath id="01979f9eca"><path d="M 7 30 L 41 30 L 41 46 L 7 46 Z M 7 30 " clip-rule="nonzero"/></clipPath><clipPath id="7b70e05b10"><path d="M 40.035156 39.488281 C 39.488281 40 38.914062 40.484375 38.320312 40.941406 C 37.726562 41.398438 37.113281 41.824219 36.476562 42.222656 C 35.84375 42.621094 35.191406 42.988281 34.519531 43.324219 C 33.851562 43.660156 33.164062 43.960938 32.464844 44.230469 C 31.765625 44.503906 31.054688 44.738281 30.335938 44.941406 C 29.613281 45.144531 28.882812 45.308594 28.144531 45.441406 C 27.40625 45.574219 26.664062 45.671875 25.917969 45.734375 C 25.171875 45.796875 24.421875 45.820312 23.671875 45.8125 C 22.921875 45.800781 22.175781 45.753906 21.429688 45.671875 C 20.683594 45.589844 19.945312 45.476562 19.210938 45.324219 C 18.476562 45.171875 17.75 44.984375 17.035156 44.761719 C 16.320312 44.539062 15.617188 44.285156 14.925781 43.996094 C 14.230469 43.707031 13.554688 43.386719 12.894531 43.03125 C 12.234375 42.679688 11.589844 42.292969 10.96875 41.878906 C 10.34375 41.464844 9.742188 41.019531 9.160156 40.546875 C 8.578125 40.074219 8.019531 39.578125 7.488281 39.050781 C 7.722656 38.015625 8.601562 34.949219 11.082031 33.558594 C 12.828125 32.574219 16.050781 31.757812 18.945312 31.296875 C 21.042969 30.964844 22.964844 30.816406 24.035156 30.933594 C 24.839844 31.015625 26.40625 31.007812 28.242188 31.113281 C 32.191406 31.347656 37.375 32.140625 38.832031 35.664062 C 39.34375 36.902344 39.746094 38.179688 40.035156 39.488281 Z M 40.035156 39.488281 " clip-rule="nonzero"/></clipPath><linearGradient x1="118.529527" gradientTransform="matrix(0.187999, 0, 0, 0.187736, 0.490711, -1.121291)" y1="162.086845" x2="128.030745" gradientUnits="userSpaceOnUse" y2="258.180342" id="14ec1af9fd"><stop stop-opacity="1" stop-color="rgb(40.829468%, 58.261108%, 87.796021%)" offset="0"/><stop stop-opacity="1" stop-color="rgb(40.792847%, 58.158875%, 87.771606%)" offset="0.03125"/><stop stop-opacity="1" stop-color="rgb(40.722656%, 57.955933%, 87.722778%)" offset="0.0625"/><stop stop-opacity="1" stop-color="rgb(40.65094%, 57.754517%, 87.67395%)" offset="0.09375"/><stop stop-opacity="1" stop-color="rgb(40.58075%, 57.551575%, 87.625122%)" offset="0.125"/><stop stop-opacity="1" stop-color="rgb(40.509033%, 57.348633%, 87.576294%)" offset="0.15625"/><stop stop-opacity="1" stop-color="rgb(40.438843%, 57.145691%, 87.527466%)" offset="0.176411"/><stop stop-opacity="1" stop-color="rgb(40.403748%, 57.044983%, 87.503052%)" offset="0.1875"/><stop stop-opacity="1" stop-color="rgb(40.367126%, 56.942749%, 87.478638%)" offset="0.21875"/><stop stop-opacity="1" stop-color="rgb(40.29541%, 56.741333%, 87.431335%)" offset="0.25"/><stop stop-opacity="1" stop-color="rgb(40.22522%, 56.538391%, 87.382507%)" offset="0.28125"/><stop stop-opacity="1" stop-color="rgb(40.153503%, 56.335449%, 87.333679%)" offset="0.3125"/><stop stop-opacity="1" stop-color="rgb(40.083313%, 56.132507%, 87.284851%)" offset="0.34375"/><stop stop-opacity="1" stop-color="rgb(40.011597%, 55.929565%, 87.236023%)" offset="0.375"/><stop stop-opacity="1" stop-color="rgb(39.941406%, 55.726624%, 87.187195%)" offset="0.40625"/><stop stop-opacity="1" stop-color="rgb(39.86969%, 55.525208%, 87.138367%)" offset="0.4375"/><stop stop-opacity="1" stop-color="rgb(39.7995%, 55.322266%, 87.089539%)" offset="0.46875"/><stop stop-opacity="1" stop-color="rgb(39.727783%, 55.119324%, 87.04071%)" offset="0.5"/><stop stop-opacity="1" stop-color="rgb(39.656067%, 54.916382%, 86.991882%)" offset="0.53125"/><stop stop-opacity="1" stop-color="rgb(39.585876%, 54.71344%, 86.943054%)" offset="0.5625"/><stop stop-opacity="1" stop-color="rgb(39.51416%, 54.512024%, 86.894226%)" offset="0.59375"/><stop stop-opacity="1" stop-color="rgb(39.44397%, 54.309082%, 86.845398%)" offset="0.625"/><stop stop-opacity="1" stop-color="rgb(39.372253%, 54.10614%, 86.79657%)" offset="0.65625"/><stop stop-opacity="1" stop-color="rgb(39.302063%, 53.903198%, 86.747742%)" offset="0.6875"/><stop stop-opacity="1" stop-color="rgb(39.230347%, 53.700256%, 86.698914%)" offset="0.71875"/><stop stop-opacity="1" stop-color="rgb(39.160156%, 53.497314%, 86.650085%)" offset="0.75"/><stop stop-opacity="1" stop-color="rgb(39.08844%, 53.295898%, 86.601257%)" offset="0.78125"/><stop stop-opacity="1" stop-color="rgb(39.016724%, 53.092957%, 86.552429%)" offset="0.8125"/><stop stop-opacity="1" stop-color="rgb(38.946533%, 52.890015%, 86.505127%)" offset="0.823589"/><stop stop-opacity="1" stop-color="rgb(38.911438%, 52.789307%, 86.480713%)" offset="0.84375"/><stop stop-opacity="1" stop-color="rgb(38.874817%, 52.687073%, 86.456299%)" offset="0.875"/><stop stop-opacity="1" stop-color="rgb(38.804626%, 52.484131%, 86.407471%)" offset="0.90625"/><stop stop-opacity="1" stop-color="rgb(38.73291%, 52.282715%, 86.358643%)" offset="0.9375"/><stop stop-opacity="1" stop-color="rgb(38.66272%, 52.079773%, 86.309814%)" offset="0.96875"/><stop stop-opacity="1" stop-color="rgb(38.591003%, 51.876831%, 86.260986%)" offset="1"/></linearGradient><clipPath id="6b3bdf28f2"><path d="M 30 12 L 38 12 L 38 22 L 30 22 Z M 30 12 " clip-rule="nonzero"/></clipPath><clipPath id="f0124b2eeb"><path d="M 31.003906 14.992188 C 32.828125 11.3125 38.082031 12.511719 37.574219 17.796875 C 37.0625 23.082031 31.84375 22.496094 30.714844 18.707031 " clip-rule="nonzero"/></clipPath><linearGradient x1="205.852209" gradientTransform="matrix(0.187999, 0, 0, 0.187736, 0.490711, -1.121291)" y1="72.411601" x2="153.972292" gradientUnits="userSpaceOnUse" y2="121.781252" id="785f24c004"><stop stop-opacity="1" stop-color="rgb(89.657593%, 36.949158%, 27.705383%)" offset="0"/><stop stop-opacity="1" stop-color="rgb(89.642334%, 36.862183%, 27.607727%)" offset="0.015625"/><stop stop-opacity="1" stop-color="rgb(89.613342%, 36.691284%, 27.410889%)" offset="0.03125"/><stop stop-opacity="1" stop-color="rgb(89.570618%, 36.433411%, 27.11792%)" offset="0.0625"/><stop stop-opacity="1" stop-color="rgb(89.527893%, 36.175537%, 26.823425%)" offset="0.078125"/><stop stop-opacity="1" stop-color="rgb(89.498901%, 36.003113%, 26.628113%)" offset="0.09375"/><stop stop-opacity="1" stop-color="rgb(89.471436%, 35.832214%, 26.431274%)" offset="0.109375"/><stop stop-opacity="1" stop-color="rgb(89.442444%, 35.65979%, 26.235962%)" offset="0.125"/><stop stop-opacity="1" stop-color="rgb(89.413452%, 35.488892%, 26.040649%)" offset="0.140625"/><stop stop-opacity="1" stop-color="rgb(89.38446%, 35.316467%, 25.843811%)" offset="0.15625"/><stop stop-opacity="1" stop-color="rgb(89.356995%, 35.144043%, 25.648499%)" offset="0.171875"/><stop stop-opacity="1" stop-color="rgb(89.328003%, 34.973145%, 25.45166%)" offset="0.1875"/><stop stop-opacity="1" stop-color="rgb(89.285278%, 34.715271%, 25.158691%)" offset="0.21875"/><stop stop-opacity="1" stop-color="rgb(89.241028%, 34.457397%, 24.864197%)" offset="0.234375"/><stop stop-opacity="1" stop-color="rgb(89.213562%, 34.286499%, 24.668884%)" offset="0.25"/><stop stop-opacity="1" stop-color="rgb(89.18457%, 34.114075%, 24.472046%)" offset="0.265625"/><stop stop-opacity="1" stop-color="rgb(89.155579%, 33.94165%, 24.276733%)" offset="0.28125"/><stop stop-opacity="1" stop-color="rgb(89.126587%, 33.770752%, 24.081421%)" offset="0.296875"/><stop stop-opacity="1" stop-color="rgb(89.099121%, 33.598328%, 23.884583%)" offset="0.3125"/><stop stop-opacity="1" stop-color="rgb(89.070129%, 33.427429%, 23.68927%)" offset="0.328125"/><stop stop-opacity="1" stop-color="rgb(89.041138%, 33.255005%, 23.492432%)" offset="0.34375"/><stop stop-opacity="1" stop-color="rgb(88.998413%, 32.997131%, 23.199463%)" offset="0.375"/><stop stop-opacity="1" stop-color="rgb(88.955688%, 32.739258%, 22.904968%)" offset="0.390625"/><stop stop-opacity="1" stop-color="rgb(88.926697%, 32.568359%, 22.709656%)" offset="0.396578"/><stop stop-opacity="1" stop-color="rgb(88.912964%, 32.48291%, 22.612%)" offset="0.40625"/><stop stop-opacity="1" stop-color="rgb(88.897705%, 32.395935%, 22.514343%)" offset="0.421875"/><stop stop-opacity="1" stop-color="rgb(88.870239%, 32.225037%, 22.317505%)" offset="0.4375"/><stop stop-opacity="1" stop-color="rgb(88.841248%, 32.052612%, 22.122192%)" offset="0.453125"/><stop stop-opacity="1" stop-color="rgb(88.812256%, 31.880188%, 21.925354%)" offset="0.46875"/><stop stop-opacity="1" stop-color="rgb(88.769531%, 31.622314%, 21.632385%)" offset="0.5"/><stop stop-opacity="1" stop-color="rgb(88.726807%, 31.365967%, 21.337891%)" offset="0.515625"/><stop stop-opacity="1" stop-color="rgb(88.697815%, 31.193542%, 21.142578%)" offset="0.53125"/><stop stop-opacity="1" stop-color="rgb(88.668823%, 31.022644%, 20.94574%)" offset="0.546875"/><stop stop-opacity="1" stop-color="rgb(88.639832%, 30.85022%, 20.750427%)" offset="0.5625"/><stop stop-opacity="1" stop-color="rgb(88.612366%, 30.677795%, 20.555115%)" offset="0.578125"/><stop stop-opacity="1" stop-color="rgb(88.583374%, 30.506897%, 20.358276%)" offset="0.59375"/><stop stop-opacity="1" stop-color="rgb(88.554382%, 30.334473%, 20.162964%)" offset="0.603422"/><stop stop-opacity="1" stop-color="rgb(88.540649%, 30.249023%, 20.065308%)" offset="0.609375"/><stop stop-opacity="1" stop-color="rgb(88.525391%, 30.163574%, 19.966125%)" offset="0.625"/><stop stop-opacity="1" stop-color="rgb(88.482666%, 29.905701%, 19.673157%)" offset="0.65625"/><stop stop-opacity="1" stop-color="rgb(88.439941%, 29.647827%, 19.378662%)" offset="0.671875"/><stop stop-opacity="1" stop-color="rgb(88.41095%, 29.475403%, 19.18335%)" offset="0.6875"/><stop stop-opacity="1" stop-color="rgb(88.383484%, 29.304504%, 18.986511%)" offset="0.703125"/><stop stop-opacity="1" stop-color="rgb(88.354492%, 29.13208%, 18.791199%)" offset="0.71875"/><stop stop-opacity="1" stop-color="rgb(88.3255%, 28.961182%, 18.595886%)" offset="0.734375"/><stop stop-opacity="1" stop-color="rgb(88.296509%, 28.788757%, 18.399048%)" offset="0.75"/><stop stop-opacity="1" stop-color="rgb(88.269043%, 28.616333%, 18.203735%)" offset="0.765625"/><stop stop-opacity="1" stop-color="rgb(88.240051%, 28.445435%, 18.006897%)" offset="0.78125"/><stop stop-opacity="1" stop-color="rgb(88.197327%, 28.187561%, 17.713928%)" offset="0.8125"/><stop stop-opacity="1" stop-color="rgb(88.154602%, 27.929688%, 17.419434%)" offset="0.828125"/><stop stop-opacity="1" stop-color="rgb(88.12561%, 27.758789%, 17.224121%)" offset="0.84375"/><stop stop-opacity="1" stop-color="rgb(88.096619%, 27.586365%, 17.027283%)" offset="0.859375"/><stop stop-opacity="1" stop-color="rgb(88.067627%, 27.41394%, 16.83197%)" offset="0.875"/><stop stop-opacity="1" stop-color="rgb(88.038635%, 27.243042%, 16.636658%)" offset="0.890625"/><stop stop-opacity="1" stop-color="rgb(88.011169%, 27.070618%, 16.439819%)" offset="0.90625"/><stop stop-opacity="1" stop-color="rgb(87.982178%, 26.899719%, 16.244507%)" offset="0.921875"/><stop stop-opacity="1" stop-color="rgb(87.953186%, 26.727295%, 16.047668%)" offset="0.9375"/><stop stop-opacity="1" stop-color="rgb(87.910461%, 26.469421%, 15.7547%)" offset="0.96875"/><stop stop-opacity="1" stop-color="rgb(87.867737%, 26.211548%, 15.460205%)" offset="0.984375"/><stop stop-opacity="1" stop-color="rgb(87.838745%, 26.040649%, 15.264893%)" offset="1"/></linearGradient><clipPath id="68fe86c6d3"><path d="M 13 8 L 35 8 L 35 26 L 13 26 Z M 13 8 " clip-rule="nonzero"/></clipPath><clipPath id="63cb67cfb7"><path d="M 17.210938 19.835938 C 11.847656 15.902344 14.09375 12.839844 15.84375 12.402344 C 15.789062 8.359375 21.574219 7.15625 26.917969 10.601562 C 32.265625 14.042969 36.042969 13.277344 33.304688 19.5625 C 30.566406 25.851562 26.078125 25.359375 26.078125 25.359375 " clip-rule="nonzero"/></clipPath><linearGradient x1="152.883034" gradientTransform="matrix(0.187999, 0, 0, 0.187736, 0.490711, -1.121291)" y1="28.175472" x2="95.349045" gradientUnits="userSpaceOnUse" y2="159.024418" id="a3606e5c6d"><stop stop-opacity="1" stop-color="rgb(92.199707%, 52.198792%, 45.098877%)" offset="0"/><stop stop-opacity="1" stop-color="rgb(92.176819%, 52.069092%, 44.950867%)" offset="0.0625"/><stop stop-opacity="1" stop-color="rgb(92.132568%, 51.805115%, 44.650269%)" offset="0.078125"/><stop stop-opacity="1" stop-color="rgb(92.088318%, 51.535034%, 44.342041%)" offset="0.09375"/><stop stop-opacity="1" stop-color="rgb(92.044067%, 51.264954%, 44.035339%)" offset="0.109375"/><stop stop-opacity="1" stop-color="rgb(91.998291%, 50.994873%, 43.727112%)" offset="0.125"/><stop stop-opacity="1" stop-color="rgb(91.954041%, 50.724792%, 43.418884%)" offset="0.140625"/><stop stop-opacity="1" stop-color="rgb(91.908264%, 50.456238%, 43.110657%)" offset="0.15625"/><stop stop-opacity="1" stop-color="rgb(91.864014%, 50.186157%, 42.803955%)" offset="0.171875"/><stop stop-opacity="1" stop-color="rgb(91.818237%, 49.916077%, 42.495728%)" offset="0.1875"/><stop stop-opacity="1" stop-color="rgb(91.773987%, 49.645996%, 42.1875%)" offset="0.203125"/><stop stop-opacity="1" stop-color="rgb(91.72821%, 49.375916%, 41.879272%)" offset="0.21875"/><stop stop-opacity="1" stop-color="rgb(91.68396%, 49.105835%, 41.571045%)" offset="0.234375"/><stop stop-opacity="1" stop-color="rgb(91.638184%, 48.835754%, 41.264343%)" offset="0.25"/><stop stop-opacity="1" stop-color="rgb(91.593933%, 48.565674%, 40.956116%)" offset="0.265625"/><stop stop-opacity="1" stop-color="rgb(91.548157%, 48.295593%, 40.647888%)" offset="0.28125"/><stop stop-opacity="1" stop-color="rgb(91.503906%, 48.025513%, 40.339661%)" offset="0.296875"/><stop stop-opacity="1" stop-color="rgb(91.45813%, 47.755432%, 40.031433%)" offset="0.3125"/><stop stop-opacity="1" stop-color="rgb(91.413879%, 47.485352%, 39.724731%)" offset="0.328125"/><stop stop-opacity="1" stop-color="rgb(91.368103%, 47.215271%, 39.416504%)" offset="0.34375"/><stop stop-opacity="1" stop-color="rgb(91.323853%, 46.94519%, 39.108276%)" offset="0.359375"/><stop stop-opacity="1" stop-color="rgb(91.278076%, 46.676636%, 38.800049%)" offset="0.362368"/><stop stop-opacity="1" stop-color="rgb(91.256714%, 46.542358%, 38.645935%)" offset="0.375"/><stop stop-opacity="1" stop-color="rgb(91.233826%, 46.406555%, 38.491821%)" offset="0.390625"/><stop stop-opacity="1" stop-color="rgb(91.188049%, 46.136475%, 38.18512%)" offset="0.40625"/><stop stop-opacity="1" stop-color="rgb(91.143799%, 45.866394%, 37.876892%)" offset="0.421875"/><stop stop-opacity="1" stop-color="rgb(91.098022%, 45.596313%, 37.568665%)" offset="0.4375"/><stop stop-opacity="1" stop-color="rgb(91.053772%, 45.326233%, 37.260437%)" offset="0.453125"/><stop stop-opacity="1" stop-color="rgb(91.007996%, 45.056152%, 36.953735%)" offset="0.46875"/><stop stop-opacity="1" stop-color="rgb(90.963745%, 44.786072%, 36.645508%)" offset="0.484375"/><stop stop-opacity="1" stop-color="rgb(90.917969%, 44.515991%, 36.33728%)" offset="0.5"/><stop stop-opacity="1" stop-color="rgb(90.873718%, 44.245911%, 36.029053%)" offset="0.515625"/><stop stop-opacity="1" stop-color="rgb(90.827942%, 43.97583%, 35.720825%)" offset="0.53125"/><stop stop-opacity="1" stop-color="rgb(90.783691%, 43.70575%, 35.414124%)" offset="0.546875"/><stop stop-opacity="1" stop-color="rgb(90.737915%, 43.435669%, 35.105896%)" offset="0.5625"/><stop stop-opacity="1" stop-color="rgb(90.693665%, 43.167114%, 34.797668%)" offset="0.578125"/><stop stop-opacity="1" stop-color="rgb(90.647888%, 42.897034%, 34.489441%)" offset="0.59375"/><stop stop-opacity="1" stop-color="rgb(90.603638%, 42.626953%, 34.181213%)" offset="0.609375"/><stop stop-opacity="1" stop-color="rgb(90.557861%, 42.356873%, 33.874512%)" offset="0.625"/><stop stop-opacity="1" stop-color="rgb(90.513611%, 42.086792%, 33.566284%)" offset="0.637632"/><stop stop-opacity="1" stop-color="rgb(90.490723%, 41.952515%, 33.41217%)" offset="0.640625"/><stop stop-opacity="1" stop-color="rgb(90.467834%, 41.816711%, 33.258057%)" offset="0.65625"/><stop stop-opacity="1" stop-color="rgb(90.423584%, 41.546631%, 32.949829%)" offset="0.671875"/><stop stop-opacity="1" stop-color="rgb(90.377808%, 41.27655%, 32.643127%)" offset="0.6875"/><stop stop-opacity="1" stop-color="rgb(90.333557%, 41.00647%, 32.3349%)" offset="0.703125"/><stop stop-opacity="1" stop-color="rgb(90.289307%, 40.736389%, 32.026672%)" offset="0.71875"/><stop stop-opacity="1" stop-color="rgb(90.24353%, 40.466309%, 31.718445%)" offset="0.734375"/><stop stop-opacity="1" stop-color="rgb(90.19928%, 40.196228%, 31.410217%)" offset="0.75"/><stop stop-opacity="1" stop-color="rgb(90.153503%, 39.926147%, 31.103516%)" offset="0.765625"/><stop stop-opacity="1" stop-color="rgb(90.109253%, 39.657593%, 30.795288%)" offset="0.78125"/><stop stop-opacity="1" stop-color="rgb(90.063477%, 39.387512%, 30.487061%)" offset="0.796875"/><stop stop-opacity="1" stop-color="rgb(90.019226%, 39.117432%, 30.178833%)" offset="0.8125"/><stop stop-opacity="1" stop-color="rgb(89.97345%, 38.847351%, 29.870605%)" offset="0.828125"/><stop stop-opacity="1" stop-color="rgb(89.929199%, 38.577271%, 29.563904%)" offset="0.84375"/><stop stop-opacity="1" stop-color="rgb(89.883423%, 38.30719%, 29.255676%)" offset="0.859375"/><stop stop-opacity="1" stop-color="rgb(89.839172%, 38.037109%, 28.947449%)" offset="0.875"/><stop stop-opacity="1" stop-color="rgb(89.793396%, 37.767029%, 28.639221%)" offset="0.890625"/><stop stop-opacity="1" stop-color="rgb(89.749146%, 37.496948%, 28.33252%)" offset="0.90625"/><stop stop-opacity="1" stop-color="rgb(89.703369%, 37.226868%, 28.024292%)" offset="0.921875"/><stop stop-opacity="1" stop-color="rgb(89.659119%, 36.956787%, 27.716064%)" offset="0.9375"/><stop stop-opacity="1" stop-color="rgb(89.613342%, 36.686707%, 27.407837%)" offset="0.953125"/><stop stop-opacity="1" stop-color="rgb(89.569092%, 36.416626%, 27.099609%)" offset="0.96875"/><stop stop-opacity="1" stop-color="rgb(89.523315%, 36.148071%, 26.792908%)" offset="0.984375"/><stop stop-opacity="1" stop-color="rgb(89.479065%, 35.877991%, 26.48468%)" offset="1"/></linearGradient><clipPath id="f3e0742028"><path d="M 19 23 L 27 23 L 27 36 L 19 36 Z M 19 23 " clip-rule="nonzero"/></clipPath><clipPath id="79033e209c"><path d="M 26.917969 23.726562 C 26.792969 26.558594 26.953125 31.191406 26.777344 32.78125 C 26.605469 34.375 24.800781 35.796875 22.917969 35.652344 C 21.035156 35.507812 20.171875 33.066406 20.269531 32.214844 C 20.367188 31.363281 19.6875 24.4375 19.6875 24.4375 " clip-rule="nonzero"/></clipPath><linearGradient x1="126.808608" gradientTransform="matrix(0.187999, 0, 0, 0.187736, 0.490711, -1.121291)" y1="197.942514" x2="120.554558" gradientUnits="userSpaceOnUse" y2="130.636846" id="503f79947e"><stop stop-opacity="1" stop-color="rgb(100%, 69.308472%, 70.584106%)" offset="0"/><stop stop-opacity="1" stop-color="rgb(100%, 69.181824%, 70.489502%)" offset="0.03125"/><stop stop-opacity="1" stop-color="rgb(100%, 68.93158%, 70.301819%)" offset="0.052894"/><stop stop-opacity="1" stop-color="rgb(100%, 68.806458%, 70.20874%)" offset="0.0625"/><stop stop-opacity="1" stop-color="rgb(100%, 68.67981%, 70.114136%)" offset="0.09375"/><stop stop-opacity="1" stop-color="rgb(100%, 68.429565%, 69.926453%)" offset="0.125"/><stop stop-opacity="1" stop-color="rgb(100%, 68.177795%, 69.73877%)" offset="0.15625"/><stop stop-opacity="1" stop-color="rgb(100%, 67.927551%, 69.549561%)" offset="0.1875"/><stop stop-opacity="1" stop-color="rgb(100%, 67.675781%, 69.361877%)" offset="0.21875"/><stop stop-opacity="1" stop-color="rgb(100%, 67.425537%, 69.174194%)" offset="0.25"/><stop stop-opacity="1" stop-color="rgb(100%, 67.173767%, 68.986511%)" offset="0.28125"/><stop stop-opacity="1" stop-color="rgb(100%, 66.923523%, 68.798828%)" offset="0.3125"/><stop stop-opacity="1" stop-color="rgb(100%, 66.673279%, 68.611145%)" offset="0.34375"/><stop stop-opacity="1" stop-color="rgb(100%, 66.421509%, 68.423462%)" offset="0.375"/><stop stop-opacity="1" stop-color="rgb(100%, 66.171265%, 68.235779%)" offset="0.40625"/><stop stop-opacity="1" stop-color="rgb(100%, 65.919495%, 68.048096%)" offset="0.4375"/><stop stop-opacity="1" stop-color="rgb(100%, 65.66925%, 67.860413%)" offset="0.46875"/><stop stop-opacity="1" stop-color="rgb(100%, 65.41748%, 67.672729%)" offset="0.5"/><stop stop-opacity="1" stop-color="rgb(100%, 65.167236%, 67.485046%)" offset="0.53125"/><stop stop-opacity="1" stop-color="rgb(100%, 64.915466%, 67.297363%)" offset="0.5625"/><stop stop-opacity="1" stop-color="rgb(100%, 64.665222%, 67.108154%)" offset="0.59375"/><stop stop-opacity="1" stop-color="rgb(100%, 64.413452%, 66.920471%)" offset="0.625"/><stop stop-opacity="1" stop-color="rgb(100%, 64.163208%, 66.732788%)" offset="0.65625"/><stop stop-opacity="1" stop-color="rgb(100%, 63.911438%, 66.545105%)" offset="0.6875"/><stop stop-opacity="1" stop-color="rgb(100%, 63.661194%, 66.357422%)" offset="0.71875"/><stop stop-opacity="1" stop-color="rgb(100%, 63.41095%, 66.169739%)" offset="0.75"/><stop stop-opacity="1" stop-color="rgb(100%, 63.15918%, 65.982056%)" offset="0.78125"/><stop stop-opacity="1" stop-color="rgb(100%, 62.908936%, 65.794373%)" offset="0.8125"/><stop stop-opacity="1" stop-color="rgb(100%, 62.657166%, 65.606689%)" offset="0.84375"/><stop stop-opacity="1" stop-color="rgb(100%, 62.406921%, 65.419006%)" offset="0.875"/><stop stop-opacity="1" stop-color="rgb(100%, 62.155151%, 65.231323%)" offset="0.90625"/><stop stop-opacity="1" stop-color="rgb(100%, 61.904907%, 65.04364%)" offset="0.9375"/><stop stop-opacity="1" stop-color="rgb(100%, 61.653137%, 64.854431%)" offset="0.947106"/><stop stop-opacity="1" stop-color="rgb(100%, 61.528015%, 64.761353%)" offset="0.96875"/><stop stop-opacity="1" stop-color="rgb(100%, 61.402893%, 64.666748%)" offset="1"/></linearGradient><clipPath id="2d36a37482"><path d="M 16 13 L 32 13 L 32 31 L 16 31 Z M 16 13 " clip-rule="nonzero"/></clipPath><clipPath id="14d5d783df"><path d="M 16.972656 13.808594 C 16.972656 13.808594 15.992188 22.011719 16.46875 25.882812 C 17.179688 31.597656 24.152344 31.769531 28.007812 25.597656 C 29.40625 26.472656 32.144531 24.308594 31.785156 22.3125 C 31.425781 20.316406 29.125 21.046875 28.738281 21.695312 C 28.429688 22.273438 28.167969 22.867188 27.953125 23.484375 C 27.953125 23.484375 27.84375 20.917969 27.292969 20.128906 C 26.746094 19.339844 18.707031 18.941406 16.972656 13.808594 Z M 16.972656 13.808594 " clip-rule="nonzero"/></clipPath><linearGradient x1="121.185364" gradientTransform="matrix(0.187999, 0, 0, 0.187736, 0.490711, -1.121291)" y1="178.180763" x2="129.007723" gradientUnits="userSpaceOnUse" y2="76.489081" id="c01201d479"><stop stop-opacity="1" stop-color="rgb(100%, 77.896118%, 77.011108%)" offset="0"/><stop stop-opacity="1" stop-color="rgb(100%, 77.79541%, 76.93634%)" offset="0.03125"/><stop stop-opacity="1" stop-color="rgb(100%, 77.59552%, 76.786804%)" offset="0.0625"/><stop stop-opacity="1" stop-color="rgb(100%, 77.39563%, 76.637268%)" offset="0.0646121"/><stop stop-opacity="1" stop-color="rgb(100%, 77.296448%, 76.5625%)" offset="0.09375"/><stop stop-opacity="1" stop-color="rgb(100%, 77.19574%, 76.487732%)" offset="0.125"/><stop stop-opacity="1" stop-color="rgb(100%, 76.99585%, 76.338196%)" offset="0.15625"/><stop stop-opacity="1" stop-color="rgb(100%, 76.797485%, 76.18866%)" offset="0.1875"/><stop stop-opacity="1" stop-color="rgb(100%, 76.597595%, 76.039124%)" offset="0.21875"/><stop stop-opacity="1" stop-color="rgb(100%, 76.397705%, 75.889587%)" offset="0.25"/><stop stop-opacity="1" stop-color="rgb(100%, 76.197815%, 75.741577%)" offset="0.28125"/><stop stop-opacity="1" stop-color="rgb(100%, 75.997925%, 75.592041%)" offset="0.3125"/><stop stop-opacity="1" stop-color="rgb(100%, 75.798035%, 75.442505%)" offset="0.34375"/><stop stop-opacity="1" stop-color="rgb(100%, 75.598145%, 75.292969%)" offset="0.375"/><stop stop-opacity="1" stop-color="rgb(100%, 75.398254%, 75.143433%)" offset="0.40625"/><stop stop-opacity="1" stop-color="rgb(100%, 75.198364%, 74.993896%)" offset="0.4375"/><stop stop-opacity="1" stop-color="rgb(100%, 74.998474%, 74.84436%)" offset="0.46875"/><stop stop-opacity="1" stop-color="rgb(100%, 74.80011%, 74.694824%)" offset="0.5"/><stop stop-opacity="1" stop-color="rgb(100%, 74.60022%, 74.545288%)" offset="0.53125"/><stop stop-opacity="1" stop-color="rgb(100%, 74.40033%, 74.395752%)" offset="0.5625"/><stop stop-opacity="1" stop-color="rgb(100%, 74.200439%, 74.246216%)" offset="0.59375"/><stop stop-opacity="1" stop-color="rgb(100%, 74.000549%, 74.09668%)" offset="0.625"/><stop stop-opacity="1" stop-color="rgb(100%, 73.800659%, 73.947144%)" offset="0.65625"/><stop stop-opacity="1" stop-color="rgb(100%, 73.600769%, 73.797607%)" offset="0.6875"/><stop stop-opacity="1" stop-color="rgb(100%, 73.400879%, 73.648071%)" offset="0.71875"/><stop stop-opacity="1" stop-color="rgb(100%, 73.200989%, 73.498535%)" offset="0.75"/><stop stop-opacity="1" stop-color="rgb(100%, 73.001099%, 73.348999%)" offset="0.78125"/><stop stop-opacity="1" stop-color="rgb(100%, 72.802734%, 73.199463%)" offset="0.8125"/><stop stop-opacity="1" stop-color="rgb(100%, 72.602844%, 73.049927%)" offset="0.84375"/><stop stop-opacity="1" stop-color="rgb(100%, 72.402954%, 72.900391%)" offset="0.875"/><stop stop-opacity="1" stop-color="rgb(100%, 72.203064%, 72.750854%)" offset="0.90625"/><stop stop-opacity="1" stop-color="rgb(100%, 72.003174%, 72.601318%)" offset="0.935388"/><stop stop-opacity="1" stop-color="rgb(100%, 71.903992%, 72.52655%)" offset="0.9375"/><stop stop-opacity="1" stop-color="rgb(100%, 71.803284%, 72.451782%)" offset="0.96875"/><stop stop-opacity="1" stop-color="rgb(100%, 71.603394%, 72.302246%)" offset="1"/></linearGradient></defs><g clip-path="url(#2ebe82c060)"><path fill="#bebee5" d="M 47.492188 22.347656 C 47.492188 23.113281 47.453125 23.882812 47.378906 24.644531 C 47.300781 25.410156 47.1875 26.171875 47.039062 26.925781 C 46.890625 27.679688 46.703125 28.421875 46.480469 29.15625 C 46.253906 29.894531 45.996094 30.617188 45.703125 31.328125 C 45.40625 32.035156 45.078125 32.730469 44.714844 33.40625 C 44.351562 34.085938 43.957031 34.746094 43.53125 35.382812 C 43.101562 36.023438 42.644531 36.640625 42.15625 37.234375 C 41.667969 37.828125 41.152344 38.394531 40.609375 38.941406 C 40.0625 39.484375 39.492188 40 38.898438 40.484375 C 38.304688 40.972656 37.6875 41.429688 37.046875 41.859375 C 36.40625 42.285156 35.746094 42.679688 35.070312 43.042969 C 34.390625 43.402344 33.695312 43.730469 32.984375 44.027344 C 32.273438 44.320312 31.546875 44.578125 30.8125 44.800781 C 30.074219 45.027344 29.328125 45.210938 28.574219 45.363281 C 27.820312 45.511719 27.058594 45.625 26.292969 45.699219 C 25.527344 45.773438 24.761719 45.8125 23.992188 45.8125 C 23.222656 45.8125 22.453125 45.773438 21.6875 45.699219 C 20.921875 45.625 20.160156 45.511719 19.40625 45.363281 C 18.652344 45.210938 17.90625 45.027344 17.167969 44.800781 C 16.433594 44.578125 15.707031 44.320312 14.996094 44.027344 C 14.285156 43.730469 13.589844 43.402344 12.914062 43.042969 C 12.234375 42.679688 11.574219 42.285156 10.933594 41.859375 C 10.292969 41.429688 9.675781 40.972656 9.082031 40.484375 C 8.488281 40 7.917969 39.484375 7.375 38.941406 C 6.828125 38.394531 6.3125 37.828125 5.824219 37.234375 C 5.335938 36.640625 4.878906 36.023438 4.449219 35.382812 C 4.023438 34.746094 3.628906 34.085938 3.265625 33.40625 C 2.902344 32.730469 2.574219 32.035156 2.28125 31.328125 C 1.984375 30.617188 1.726562 29.894531 1.503906 29.15625 C 1.277344 28.421875 1.09375 27.679688 0.941406 26.925781 C 0.792969 26.171875 0.679688 25.410156 0.605469 24.644531 C 0.527344 23.882812 0.492188 23.113281 0.492188 22.347656 C 0.492188 21.578125 0.527344 20.808594 0.605469 20.046875 C 0.679688 19.28125 0.792969 18.519531 0.941406 17.765625 C 1.09375 17.015625 1.277344 16.269531 1.503906 15.535156 C 1.726562 14.796875 1.984375 14.074219 2.28125 13.367188 C 2.574219 12.65625 2.902344 11.960938 3.265625 11.285156 C 3.628906 10.605469 4.023438 9.945312 4.449219 9.308594 C 4.878906 8.667969 5.335938 8.050781 5.824219 7.457031 C 6.3125 6.863281 6.828125 6.296875 7.375 5.753906 C 7.917969 5.207031 8.488281 4.691406 9.082031 4.207031 C 9.675781 3.71875 10.292969 3.261719 10.933594 2.832031 C 11.574219 2.40625 12.234375 2.011719 12.914062 1.648438 C 13.589844 1.289062 14.285156 0.960938 14.996094 0.664062 C 15.707031 0.371094 16.433594 0.113281 17.167969 -0.109375 C 17.90625 -0.332031 18.652344 -0.519531 19.40625 -0.671875 C 20.160156 -0.820312 20.921875 -0.933594 21.6875 -1.007812 C 22.453125 -1.082031 23.222656 -1.121094 23.992188 -1.121094 C 24.761719 -1.125 25.53125 -1.089844 26.296875 -1.015625 C 27.0625 -0.941406 27.824219 -0.832031 28.582031 -0.683594 C 29.335938 -0.535156 30.082031 -0.351562 30.820312 -0.128906 C 31.558594 0.09375 32.285156 0.351562 32.996094 0.644531 C 33.707031 0.9375 34.402344 1.265625 35.082031 1.625 C 35.761719 1.988281 36.425781 2.382812 37.066406 2.808594 C 37.707031 3.238281 38.324219 3.695312 38.917969 4.183594 C 39.515625 4.667969 40.085938 5.183594 40.628906 5.730469 C 41.175781 6.273438 41.691406 6.84375 42.179688 7.4375 C 42.667969 8.03125 43.125 8.648438 43.554688 9.289062 C 43.980469 9.929688 44.375 10.589844 44.738281 11.269531 C 45.101562 11.945312 45.429688 12.640625 45.722656 13.351562 C 46.015625 14.066406 46.273438 14.789062 46.496094 15.523438 C 46.71875 16.261719 46.902344 17.007812 47.050781 17.761719 C 47.199219 18.515625 47.3125 19.277344 47.382812 20.042969 C 47.457031 20.808594 47.492188 21.578125 47.492188 22.347656 Z M 47.492188 22.347656 " fill-opacity="1" fill-rule="nonzero"/></g><g clip-path="url(#01979f9eca)"><g clip-path="url(#7b70e05b10)"><path fill="url(#14ec1af9fd)" d="M 7.488281 30.816406 L 7.488281 45.820312 L 40.035156 45.820312 L 40.035156 30.816406 Z M 7.488281 30.816406 " fill-rule="nonzero"/></g></g><path fill="#ffffff" d="M 22.757812 36.847656 C 18.820312 36.726562 18.808594 32.789062 18.945312 31.296875 C 21.042969 30.964844 22.964844 30.816406 24.035156 30.933594 C 24.839844 31.015625 26.40625 31.007812 28.242188 31.113281 C 28.546875 33.753906 27.164062 36.988281 22.757812 36.847656 Z M 22.757812 36.847656 " fill-opacity="1" fill-rule="nonzero"/><g clip-path="url(#6b3bdf28f2)"><g clip-path="url(#f0124b2eeb)"><path fill="url(#785f24c004)" d="M 30.714844 11.3125 L 30.714844 23.082031 L 38.082031 23.082031 L 38.082031 11.3125 Z M 30.714844 11.3125 " fill-rule="nonzero"/></g></g><g clip-path="url(#68fe86c6d3)"><g clip-path="url(#63cb67cfb7)"><path fill="url(#a3606e5c6d)" d="M 11.847656 7.15625 L 11.847656 25.851562 L 36.042969 25.851562 L 36.042969 7.15625 Z M 11.847656 7.15625 " fill-rule="nonzero"/></g></g><g clip-path="url(#f3e0742028)"><g clip-path="url(#79033e209c)"><path fill="url(#503f79947e)" d="M 19.6875 23.726562 L 19.6875 35.796875 L 26.953125 35.796875 L 26.953125 23.726562 Z M 19.6875 23.726562 " fill-rule="nonzero"/></g></g><g clip-path="url(#2d36a37482)"><g clip-path="url(#14d5d783df)"><path fill="url(#c01201d479)" d="M 15.992188 13.808594 L 15.992188 31.769531 L 32.144531 31.769531 L 32.144531 13.808594 Z M 15.992188 13.808594 " fill-rule="nonzero"/></g></g></svg>