<svg xmlns="http://www.w3.org/2000/svg" xmlns:xlink="http://www.w3.org/1999/xlink" width="64" zoomAndPan="magnify" viewBox="0 0 48 48" height="64" preserveAspectRatio="xMidYMid meet" version="1.0"><defs><clipPath id="dcdde0f1ca"><path d="M 2 0 L 47.507812 0 L 47.507812 46 L 2 46 Z M 2 0 " clip-rule="nonzero"/></clipPath></defs><g clip-path="url(#dcdde0f1ca)"><path fill="#3998ff" d="M 47.480469 22.617188 C 47.480469 23.359375 47.441406 24.097656 47.371094 24.835938 C 47.296875 25.570312 47.191406 26.304688 47.046875 27.03125 C 46.902344 27.757812 46.722656 28.472656 46.507812 29.183594 C 46.292969 29.890625 46.042969 30.585938 45.757812 31.269531 C 45.476562 31.953125 45.160156 32.625 44.8125 33.277344 C 44.460938 33.929688 44.082031 34.5625 43.671875 35.179688 C 43.257812 35.796875 42.820312 36.390625 42.347656 36.960938 C 41.878906 37.535156 41.382812 38.082031 40.859375 38.605469 C 40.335938 39.128906 39.789062 39.625 39.214844 40.097656 C 38.644531 40.566406 38.050781 41.007812 37.433594 41.417969 C 36.816406 41.828125 36.183594 42.210938 35.53125 42.558594 C 34.878906 42.90625 34.210938 43.222656 33.523438 43.507812 C 32.839844 43.789062 32.144531 44.039062 31.4375 44.253906 C 30.726562 44.46875 30.011719 44.648438 29.285156 44.792969 C 28.558594 44.9375 27.828125 45.046875 27.089844 45.121094 C 26.351562 45.191406 25.613281 45.230469 24.875 45.230469 C 24.132812 45.230469 23.394531 45.191406 22.65625 45.121094 C 21.921875 45.046875 21.1875 44.9375 20.460938 44.792969 C 19.738281 44.648438 19.019531 44.46875 18.3125 44.253906 C 17.601562 44.039062 16.90625 43.792969 16.222656 43.507812 C 15.539062 43.226562 14.867188 42.910156 14.214844 42.558594 C 13.5625 42.210938 12.929688 41.832031 12.3125 41.417969 C 11.699219 41.007812 11.101562 40.566406 10.53125 40.097656 C 9.957031 39.628906 9.410156 39.132812 8.886719 38.605469 C 8.363281 38.082031 7.867188 37.535156 7.398438 36.964844 C 6.925781 36.390625 6.488281 35.796875 6.074219 35.179688 C 5.664062 34.566406 5.285156 33.929688 4.933594 33.277344 C 4.585938 32.625 4.269531 31.957031 3.988281 31.273438 C 3.703125 30.589844 3.453125 29.890625 3.238281 29.183594 C 3.023438 28.476562 2.84375 27.757812 2.699219 27.03125 C 2.554688 26.304688 2.445312 25.574219 2.375 24.835938 C 2.300781 24.101562 2.265625 23.363281 2.265625 22.621094 C 2.265625 21.878906 2.300781 21.140625 2.375 20.40625 C 2.449219 19.667969 2.554688 18.9375 2.699219 18.210938 C 2.84375 17.484375 3.023438 16.765625 3.238281 16.058594 C 3.453125 15.351562 3.703125 14.652344 3.988281 13.96875 C 4.269531 13.285156 4.585938 12.617188 4.9375 11.964844 C 5.285156 11.3125 5.664062 10.675781 6.078125 10.0625 C 6.488281 9.445312 6.929688 8.851562 7.398438 8.277344 C 7.867188 7.707031 8.363281 7.160156 8.890625 6.636719 C 9.414062 6.113281 9.960938 5.613281 10.53125 5.144531 C 11.105469 4.675781 11.699219 4.234375 12.316406 3.824219 C 12.929688 3.414062 13.566406 3.03125 14.21875 2.683594 C 14.871094 2.335938 15.539062 2.019531 16.222656 1.734375 C 16.90625 1.453125 17.605469 1.203125 18.3125 0.988281 C 19.019531 0.773438 19.738281 0.59375 20.464844 0.449219 C 21.191406 0.304688 21.921875 0.195312 22.660156 0.125 C 23.398438 0.0507812 24.136719 0.015625 24.875 0.015625 C 25.617188 0.0117188 26.355469 0.046875 27.09375 0.117188 C 27.832031 0.1875 28.5625 0.292969 29.292969 0.4375 C 30.019531 0.578125 30.738281 0.757812 31.445312 0.96875 C 32.15625 1.183594 32.851562 1.433594 33.539062 1.714844 C 34.222656 1.996094 34.894531 2.3125 35.546875 2.660156 C 36.199219 3.007812 36.835938 3.386719 37.453125 3.800781 C 38.070312 4.210938 38.664062 4.652344 39.238281 5.121094 C 39.808594 5.589844 40.359375 6.089844 40.882812 6.613281 C 41.40625 7.136719 41.902344 7.683594 42.375 8.257812 C 42.84375 8.832031 43.285156 9.425781 43.695312 10.042969 C 44.105469 10.660156 44.484375 11.292969 44.835938 11.949219 C 45.183594 12.601562 45.5 13.269531 45.78125 13.957031 C 46.0625 14.640625 46.3125 15.339844 46.523438 16.046875 C 46.738281 16.757812 46.914062 17.476562 47.058594 18.203125 C 47.199219 18.929688 47.308594 19.664062 47.378906 20.402344 C 47.449219 21.136719 47.480469 21.878906 47.480469 22.617188 Z M 47.480469 22.617188 " fill-opacity="1" fill-rule="nonzero"/></g><path fill="#ffffff" d="M 42.3125 37.011719 C 41.777344 37.65625 41.210938 38.273438 40.605469 38.859375 C 40.003906 39.441406 39.371094 39.988281 38.707031 40.503906 C 38.042969 41.015625 37.351562 41.492188 36.636719 41.929688 C 35.917969 42.363281 35.179688 42.761719 34.421875 43.113281 C 33.660156 43.46875 32.882812 43.78125 32.085938 44.046875 C 31.289062 44.316406 30.484375 44.539062 29.664062 44.714844 C 28.84375 44.894531 28.015625 45.027344 27.179688 45.109375 C 26.34375 45.195312 25.507812 45.234375 24.667969 45.226562 C 23.828125 45.21875 22.992188 45.167969 22.160156 45.066406 C 21.328125 44.964844 20.503906 44.816406 19.6875 44.625 C 18.867188 44.433594 18.066406 44.195312 17.273438 43.914062 C 16.484375 43.632812 15.710938 43.304688 14.957031 42.9375 C 14.203125 42.570312 13.472656 42.160156 12.765625 41.710938 C 12.054688 41.261719 11.375 40.773438 10.71875 40.25 C 10.066406 39.722656 9.441406 39.164062 8.847656 38.570312 C 8.257812 37.976562 7.699219 37.347656 7.179688 36.691406 C 9.585938 33.257812 13.320312 30.875 21.167969 30.785156 C 30.226562 30.675781 36.890625 30.347656 39.644531 33.390625 C 40.644531 34.515625 41.535156 35.722656 42.3125 37.011719 Z M 42.3125 37.011719 " fill-opacity="1" fill-rule="nonzero"/><path fill="#14213d" d="M 17.386719 16.917969 C 13.039062 15.347656 13.75 9.613281 14.363281 9.488281 C 14.980469 9.367188 16.304688 10.382812 16.367188 10.414062 C 16.429688 10.445312 16.058594 7.855469 16.894531 6.652344 C 17.726562 5.453125 20.898438 7.886719 23.335938 7.917969 C 25.769531 7.949219 31.660156 8.101562 33.382812 9.644531 C 35.109375 11.183594 34.214844 14.484375 34.214844 14.484375 C 34.214844 14.484375 36.191406 15.007812 35.789062 17.78125 C 35.386719 20.554688 32.273438 22.9375 31.164062 24.9375 C 30.054688 26.9375 23.464844 27.308594 22.441406 24.410156 " fill-opacity="1" fill-rule="nonzero"/><path fill="#ffb5a6" d="M 24.546875 34.128906 C 21.386719 34.128906 20.921875 31.488281 20.90625 31.042969 C 20.90625 30.992188 20.902344 30.902344 20.90625 30.78125 C 20.902344 30.535156 20.902344 30.152344 20.902344 29.707031 C 20.914062 28.503906 20.925781 26.839844 20.90625 26.125 L 26.941406 23.964844 L 28.035156 23.570312 L 29.253906 23.136719 C 29.253906 23.136719 29.246094 23.375 29.234375 23.761719 C 29.226562 23.984375 29.222656 24.257812 29.214844 24.570312 C 29.214844 24.609375 29.214844 24.644531 29.207031 24.679688 C 29.203125 25.132812 29.195312 25.648438 29.183594 26.191406 C 29.164062 27.890625 29.15625 29.800781 29.246094 30.492188 C 29.410156 31.828125 27.703125 34.128906 24.546875 34.128906 Z M 24.546875 34.128906 " fill-opacity="1" fill-rule="nonzero"/><path fill="#e86b70" d="M 29.257812 24.585938 C 29.246094 24.617188 29.226562 24.648438 29.207031 24.679688 C 27.066406 29.082031 23.851562 30.828125 20.90625 30.78125 C 20.902344 30.535156 20.902344 30.152344 20.902344 29.707031 C 20.914062 28.503906 20.925781 26.839844 20.90625 26.125 L 26.941406 23.964844 L 29.214844 24.570312 Z M 29.257812 24.585938 " fill-opacity="1" fill-rule="nonzero"/><path fill="#ffb5a6" d="M 17.265625 13.003906 C 20.78125 17.214844 29.460938 16.457031 29.460938 16.457031 C 29.460938 16.457031 29.625 21.386719 30.488281 21.347656 C 31.351562 21.304688 31.496094 18.574219 33.609375 19.027344 C 35.726562 19.480469 34.414062 23.566406 32.769531 23.792969 C 31.125 24.019531 30.714844 22.621094 30.714844 22.621094 C 30.714844 22.621094 27.683594 28.632812 22.875 28.632812 C 18.0625 28.632812 16.832031 24.023438 16.863281 21.511719 C 16.890625 19 17.265625 13.003906 17.265625 13.003906 Z M 17.265625 13.003906 " fill-opacity="1" fill-rule="nonzero"/></svg>