<svg xmlns="http://www.w3.org/2000/svg" xmlns:xlink="http://www.w3.org/1999/xlink" width="64" zoomAndPan="magnify" viewBox="0 0 48 48" height="64" preserveAspectRatio="xMidYMid meet" version="1.0"><defs><clipPath id="008d37dd03"><path d="M 0.578125 0 L 47.507812 0 L 47.507812 47 L 0.578125 47 Z M 0.578125 0 " clip-rule="nonzero"/></clipPath></defs><g clip-path="url(#008d37dd03)"><path fill="#cdddec" d="M 47.578125 23.464844 C 47.578125 24.230469 47.542969 24.996094 47.464844 25.757812 C 47.390625 26.519531 47.277344 27.277344 47.128906 28.03125 C 46.976562 28.78125 46.792969 29.523438 46.566406 30.257812 C 46.34375 30.992188 46.085938 31.714844 45.789062 32.421875 C 45.496094 33.128906 45.167969 33.820312 44.804688 34.5 C 44.441406 35.175781 44.046875 35.832031 43.617188 36.46875 C 43.191406 37.105469 42.734375 37.722656 42.246094 38.3125 C 41.757812 38.90625 41.242188 39.472656 40.695312 40.015625 C 40.152344 40.558594 39.582031 41.074219 38.988281 41.558594 C 38.390625 42.046875 37.773438 42.5 37.136719 42.925781 C 36.496094 43.351562 35.835938 43.746094 35.15625 44.109375 C 34.476562 44.46875 33.785156 44.796875 33.070312 45.089844 C 32.359375 45.382812 31.636719 45.640625 30.902344 45.863281 C 30.164062 46.085938 29.417969 46.273438 28.664062 46.421875 C 27.910156 46.570312 27.148438 46.683594 26.382812 46.757812 C 25.617188 46.835938 24.847656 46.871094 24.078125 46.871094 C 23.308594 46.871094 22.542969 46.835938 21.773438 46.757812 C 21.007812 46.683594 20.25 46.570312 19.492188 46.421875 C 18.738281 46.273438 17.992188 46.085938 17.257812 45.863281 C 16.519531 45.640625 15.796875 45.382812 15.085938 45.089844 C 14.375 44.796875 13.679688 44.46875 13 44.109375 C 12.320312 43.746094 11.664062 43.351562 11.023438 42.925781 C 10.382812 42.5 9.765625 42.046875 9.171875 41.558594 C 8.574219 41.074219 8.003906 40.558594 7.460938 40.015625 C 6.917969 39.472656 6.402344 38.90625 5.914062 38.3125 C 5.425781 37.722656 4.964844 37.105469 4.539062 36.46875 C 4.109375 35.832031 3.714844 35.175781 3.351562 34.5 C 2.988281 33.820312 2.660156 33.128906 2.367188 32.421875 C 2.074219 31.714844 1.8125 30.992188 1.589844 30.257812 C 1.367188 29.523438 1.179688 28.78125 1.03125 28.03125 C 0.878906 27.277344 0.765625 26.519531 0.691406 25.757812 C 0.617188 24.996094 0.578125 24.230469 0.578125 23.464844 C 0.578125 22.695312 0.617188 21.933594 0.691406 21.167969 C 0.765625 20.40625 0.878906 19.648438 1.03125 18.898438 C 1.179688 18.144531 1.367188 17.402344 1.589844 16.667969 C 1.8125 15.933594 2.074219 15.214844 2.367188 14.503906 C 2.660156 13.796875 2.988281 13.105469 3.351562 12.429688 C 3.714844 11.753906 4.109375 11.09375 4.539062 10.457031 C 4.964844 9.820312 5.425781 9.207031 5.914062 8.613281 C 6.402344 8.019531 6.917969 7.453125 7.460938 6.910156 C 8.003906 6.367188 8.574219 5.855469 9.171875 5.367188 C 9.765625 4.882812 10.382812 4.425781 11.023438 4 C 11.664062 3.574219 12.320312 3.179688 13 2.820312 C 13.679688 2.457031 14.375 2.128906 15.085938 1.835938 C 15.796875 1.542969 16.519531 1.285156 17.257812 1.0625 C 17.992188 0.839844 18.738281 0.652344 19.492188 0.503906 C 20.25 0.355469 21.007812 0.242188 21.773438 0.167969 C 22.542969 0.09375 23.308594 0.0546875 24.078125 0.0546875 C 24.847656 0.0507812 25.617188 0.0859375 26.386719 0.160156 C 27.152344 0.230469 27.914062 0.339844 28.671875 0.488281 C 29.425781 0.636719 30.171875 0.820312 30.910156 1.042969 C 31.648438 1.261719 32.375 1.519531 33.085938 1.8125 C 33.800781 2.101562 34.496094 2.429688 35.175781 2.789062 C 35.855469 3.152344 36.515625 3.542969 37.15625 3.96875 C 37.796875 4.394531 38.417969 4.851562 39.011719 5.339844 C 39.609375 5.824219 40.179688 6.339844 40.722656 6.882812 C 41.269531 7.425781 41.785156 7.992188 42.273438 8.585938 C 42.761719 9.179688 43.21875 9.796875 43.648438 10.4375 C 44.074219 11.074219 44.46875 11.730469 44.832031 12.410156 C 45.195312 13.085938 45.523438 13.78125 45.816406 14.492188 C 46.109375 15.199219 46.367188 15.921875 46.589844 16.65625 C 46.8125 17.394531 46.996094 18.136719 47.144531 18.890625 C 47.292969 19.644531 47.402344 20.402344 47.476562 21.164062 C 47.546875 21.929688 47.582031 22.695312 47.578125 23.464844 Z M 47.578125 23.464844 " fill-opacity="1" fill-rule="nonzero"/></g><path fill="#9b59b6" d="M 41.617188 39.046875 C 41.078125 39.648438 40.507812 40.21875 39.910156 40.761719 C 39.3125 41.304688 38.6875 41.816406 38.039062 42.296875 C 37.386719 42.773438 36.714844 43.21875 36.015625 43.628906 C 35.320312 44.035156 34.605469 44.410156 33.867188 44.746094 C 33.132812 45.078125 32.382812 45.378906 31.617188 45.636719 C 30.851562 45.894531 30.074219 46.113281 29.285156 46.289062 C 28.496094 46.46875 27.699219 46.605469 26.894531 46.703125 C 26.09375 46.800781 25.285156 46.855469 24.476562 46.867188 C 23.667969 46.882812 22.863281 46.855469 22.054688 46.785156 C 21.25 46.714844 20.449219 46.605469 19.65625 46.453125 C 18.859375 46.304688 18.078125 46.109375 17.300781 45.878906 C 16.527344 45.648438 15.765625 45.375 15.019531 45.066406 C 14.273438 44.753906 13.546875 44.40625 12.835938 44.019531 C 12.125 43.636719 11.4375 43.214844 10.769531 42.757812 C 10.101562 42.304688 9.460938 41.8125 8.84375 41.292969 C 8.230469 40.769531 7.640625 40.21875 7.082031 39.632812 C 7.445312 39.078125 7.828125 38.511719 8.238281 37.957031 C 12.316406 32.441406 20.472656 31.105469 20.472656 31.105469 L 20.734375 31.046875 L 24.542969 30.21875 L 24.59375 30.230469 L 27.949219 30.960938 L 28.617188 31.105469 C 28.617188 31.105469 36.773438 32.441406 40.84375 37.957031 C 41.113281 38.320312 41.367188 38.683594 41.617188 39.046875 Z M 41.617188 39.046875 " fill-opacity="1" fill-rule="nonzero"/><path fill="#2c3e50" d="M 31.144531 17.632812 C 35.839844 16.101562 36.769531 12.371094 35.550781 11.265625 C 34.328125 10.160156 31.640625 11.265625 31.640625 11.265625 C 31.640625 11.265625 33.117188 8.964844 32.109375 7.613281 C 31.101562 6.265625 30.339844 9.019531 27.855469 9.246094 C 25.375 9.472656 21.636719 8.136719 19.808594 9.988281 C 17.980469 11.835938 18.757812 13.519531 18.757812 13.519531 C 18.757812 13.519531 14.929688 13.667969 15.757812 17.484375 C 16.585938 21.300781 19.167969 25.25 20.652344 26.796875 C 22.136719 28.34375 26.066406 22.507812 26.066406 22.507812 Z M 31.144531 17.632812 " fill-opacity="1" fill-rule="nonzero"/><path fill="#ffc4b5" d="M 25.449219 34.632812 C 23.175781 34.816406 21.867188 33.632812 20.992188 32.253906 C 20.761719 31.902344 20.675781 31.515625 20.730469 31.097656 C 20.90625 29.699219 21.007812 28.296875 21.035156 26.886719 C 21.0625 25.871094 21.066406 24.703125 21.023438 23.398438 L 28.136719 26.035156 L 28.003906 29.542969 L 27.945312 31.101562 L 27.914062 31.964844 C 27.914062 31.964844 28.304688 34.40625 25.449219 34.632812 Z M 25.449219 34.632812 " fill-opacity="1" fill-rule="nonzero"/><path fill="#ff8286" d="M 27.945312 31.101562 C 24.480469 31.058594 21.886719 28.433594 21.035156 26.886719 C 21.0625 25.871094 21.066406 24.703125 21.023438 23.398438 L 28.136719 26.035156 L 28.003906 29.542969 Z M 27.945312 31.101562 " fill-opacity="1" fill-rule="nonzero"/><path fill="#ffc4b5" d="M 32.460938 14.75 C 25.375 17.558594 22.222656 17.21875 22.222656 17.21875 C 22.222656 17.21875 22.4375 21.390625 21.824219 21.5625 C 21.210938 21.730469 21.804688 19.929688 20.578125 19.230469 C 19.347656 18.53125 17.429688 19.847656 17.867188 21.578125 C 18.304688 23.308594 20.636719 22.835938 20.636719 22.835938 C 20.636719 22.835938 22.238281 29.683594 28.210938 29.527344 C 34.179688 29.367188 33.308594 19.898438 32.945312 18.449219 C 32.585938 17 32.460938 14.75 32.460938 14.75 Z M 32.460938 14.75 " fill-opacity="1" fill-rule="nonzero"/></svg>