<svg xmlns="http://www.w3.org/2000/svg" xmlns:xlink="http://www.w3.org/1999/xlink" width="64" zoomAndPan="magnify" viewBox="0 0 48 48" height="64" preserveAspectRatio="xMidYMid meet" version="1.0"><defs><clipPath id="6b74129ebd"><path d="M 0.488281 0 L 47.171875 0 L 47.171875 46.871094 L 0.488281 46.871094 Z M 0.488281 0 " clip-rule="nonzero"/></clipPath><clipPath id="ccbd0482f5"><path d="M 16 29 L 30 29 L 30 46.871094 L 16 46.871094 Z M 16 29 " clip-rule="nonzero"/></clipPath><clipPath id="17e22b1070"><path d="M 20 30 L 25 30 L 25 46.871094 L 20 46.871094 Z M 20 30 " clip-rule="nonzero"/></clipPath><clipPath id="5b51573b25"><path d="M 8 30 L 21 30 L 21 46.871094 L 8 46.871094 Z M 8 30 " clip-rule="nonzero"/></clipPath><clipPath id="fe708eb13a"><path d="M 26 29 L 42 29 L 42 46.871094 L 26 46.871094 Z M 26 29 " clip-rule="nonzero"/></clipPath></defs><g clip-path="url(#6b74129ebd)"><path fill="#076c85" d="M 47.144531 23.574219 C 47.144531 24.890625 47.03125 26.195312 46.8125 27.492188 C 46.59375 28.789062 46.265625 30.058594 45.832031 31.300781 C 45.394531 32.542969 44.859375 33.738281 44.226562 34.886719 C 43.589844 36.039062 42.863281 37.125 42.042969 38.152344 C 41.222656 39.179688 40.324219 40.128906 39.34375 41.003906 C 38.363281 41.875 37.316406 42.660156 36.203125 43.355469 C 35.09375 44.050781 33.929688 44.648438 32.714844 45.148438 C 31.503906 45.644531 30.257812 46.039062 28.976562 46.324219 C 28.347656 46.46875 27.707031 46.582031 27.058594 46.671875 C 26.113281 46.800781 25.164062 46.867188 24.207031 46.878906 C 24.113281 46.882812 24.019531 46.882812 23.921875 46.882812 C 22.894531 46.882812 21.867188 46.8125 20.847656 46.679688 C 20.105469 46.582031 19.378906 46.449219 18.664062 46.28125 C 17.917969 46.109375 17.183594 45.898438 16.460938 45.652344 C 15.789062 45.421875 15.128906 45.164062 14.484375 44.875 C 13.835938 44.585938 13.207031 44.269531 12.585938 43.921875 C 11.96875 43.578125 11.371094 43.203125 10.785156 42.800781 C 10.203125 42.398438 9.636719 41.972656 9.09375 41.519531 C 8.550781 41.0625 8.027344 40.585938 7.523438 40.085938 C 7.023438 39.582031 6.546875 39.058594 6.09375 38.515625 C 5.640625 37.96875 5.210938 37.40625 4.808594 36.820312 C 4.40625 36.234375 4.03125 35.632812 3.6875 35.015625 C 3.339844 34.394531 3.019531 33.761719 2.730469 33.113281 C 2.441406 32.464844 2.183594 31.804688 1.953125 31.132812 C 1.722656 30.460938 1.523438 29.78125 1.355469 29.089844 C 1.191406 28.402344 1.054688 27.703125 0.949219 27.003906 C 0.847656 26.300781 0.773438 25.59375 0.734375 24.882812 C 0.695312 24.175781 0.6875 23.464844 0.714844 22.757812 C 0.738281 22.046875 0.796875 21.339844 0.882812 20.632812 C 0.972656 19.929688 1.09375 19.230469 1.25 18.539062 C 1.402344 17.84375 1.585938 17.160156 1.800781 16.480469 C 2.015625 15.804688 2.261719 15.140625 2.539062 14.484375 C 2.816406 13.832031 3.121094 13.191406 3.453125 12.566406 C 3.789062 11.941406 4.152344 11.332031 4.539062 10.738281 C 4.929688 10.144531 5.347656 9.570312 5.789062 9.015625 C 6.230469 8.460938 6.695312 7.929688 7.1875 7.417969 C 7.679688 6.90625 8.191406 6.417969 8.726562 5.953125 C 9.261719 5.488281 9.816406 5.046875 10.390625 4.632812 C 10.96875 4.21875 11.558594 3.835938 12.171875 3.472656 C 12.78125 3.113281 13.40625 2.785156 14.046875 2.480469 C 14.6875 2.179688 15.339844 1.910156 16.003906 1.667969 C 16.671875 1.425781 17.34375 1.214844 18.03125 1.03125 C 18.714844 0.851562 19.40625 0.703125 20.101562 0.585938 C 20.800781 0.46875 21.503906 0.386719 22.210938 0.332031 C 22.914062 0.28125 23.621094 0.261719 24.328125 0.273438 C 25.035156 0.285156 25.742188 0.332031 26.445312 0.410156 C 27.148438 0.484375 27.847656 0.59375 28.539062 0.734375 C 29.234375 0.878906 29.921875 1.050781 30.597656 1.253906 C 31.277344 1.457031 31.941406 1.695312 32.597656 1.960938 C 33.253906 2.222656 33.898438 2.519531 34.527344 2.84375 C 35.15625 3.167969 35.769531 3.519531 36.367188 3.902344 C 36.964844 4.28125 37.542969 4.691406 38.105469 5.125 C 38.664062 5.558594 39.203125 6.015625 39.722656 6.5 C 40.242188 6.984375 40.738281 7.488281 41.210938 8.019531 C 41.683594 8.546875 42.128906 9.097656 42.550781 9.664062 C 42.972656 10.234375 43.371094 10.824219 43.738281 11.429688 C 44.109375 12.035156 44.449219 12.65625 44.761719 13.296875 C 45.074219 13.933594 45.355469 14.582031 45.609375 15.246094 C 45.859375 15.910156 46.082031 16.582031 46.273438 17.265625 C 46.464844 17.949219 46.625 18.640625 46.753906 19.339844 C 46.882812 20.039062 46.980469 20.742188 47.046875 21.449219 C 47.109375 22.15625 47.140625 22.863281 47.144531 23.574219 Z M 47.144531 23.574219 " fill-opacity="1" fill-rule="nonzero"/></g><g clip-path="url(#ccbd0482f5)"><path fill="#b8ccd1" d="M 29.523438 35.914062 C 29.519531 36.105469 29.15625 42.941406 28.976562 46.324219 C 28.347656 46.46875 27.707031 46.582031 27.058594 46.667969 C 26.113281 46.800781 25.164062 46.867188 24.207031 46.878906 C 24.113281 46.882812 24.019531 46.882812 23.921875 46.882812 C 22.894531 46.882812 21.867188 46.8125 20.847656 46.675781 C 20.105469 46.582031 19.378906 46.449219 18.664062 46.28125 C 17.917969 46.105469 17.183594 45.898438 16.460938 45.652344 L 16.460938 36.367188 L 20.03125 30.84375 L 20.410156 30.257812 L 20.425781 30.25 L 22.109375 29.632812 L 22.679688 29.425781 L 24.59375 29.394531 L 25.40625 29.382812 L 28.679688 29.332031 C 28.679688 29.332031 28.710938 29.570312 28.761719 29.960938 C 28.976562 31.566406 29.527344 35.714844 29.523438 35.914062 Z M 29.523438 35.914062 " fill-opacity="1" fill-rule="nonzero"/></g><g clip-path="url(#17e22b1070)"><path fill="#074453" d="M 21.847656 31.613281 L 21.871094 31.253906 L 21.835938 30.378906 L 22.925781 30.375 C 22.929688 30.378906 22.933594 30.378906 22.9375 30.375 C 22.9375 30.375 22.9375 30.378906 22.941406 30.375 L 24.125 31.011719 L 24.128906 31.90625 L 24.207031 46.875 C 24.113281 46.878906 24.019531 46.878906 23.925781 46.878906 C 22.894531 46.878906 21.867188 46.8125 20.847656 46.675781 Z M 21.847656 31.613281 " fill-opacity="1" fill-rule="nonzero"/></g><g clip-path="url(#5b51573b25)"><path fill="#074453" d="M 20.480469 30.015625 C 20.460938 30.09375 20.445312 30.171875 20.425781 30.25 C 20.3125 30.761719 20.203125 31.285156 20.105469 31.820312 C 19.121094 37.054688 18.78125 43.125 18.664062 46.28125 C 17.917969 46.105469 17.183594 45.898438 16.460938 45.652344 C 13.4375 44.621094 10.742188 43.03125 8.371094 40.882812 C 8.871094 38.570312 9.703125 35.882812 11.023438 34.214844 C 13.363281 31.257812 18.773438 30.269531 20.152344 30.0625 C 20.363281 30.03125 20.480469 30.015625 20.480469 30.015625 Z M 20.480469 30.015625 " fill-opacity="1" fill-rule="nonzero"/></g><g clip-path="url(#fe708eb13a)"><path fill="#074453" d="M 41.800781 38.449219 C 40.160156 40.441406 38.238281 42.109375 36.042969 43.457031 C 33.847656 44.808594 31.492188 45.761719 28.976562 46.324219 C 28.347656 46.46875 27.707031 46.582031 27.058594 46.667969 C 26.574219 43.6875 26.15625 37.800781 28.351562 30.390625 C 28.453125 30.042969 28.5625 29.6875 28.679688 29.332031 C 28.679688 29.332031 28.855469 29.359375 29.164062 29.417969 C 30.871094 29.738281 36.65625 31.027344 39.402344 34.164062 C 40.453125 35.363281 41.230469 36.90625 41.800781 38.449219 Z M 41.800781 38.449219 " fill-opacity="1" fill-rule="nonzero"/></g><path fill="#ffffff" d="M 21.984375 27.710938 C 20.039062 28.3125 19.664062 31.617188 20.316406 32.21875 C 20.972656 32.820312 22.941406 30.558594 22.9375 30.375 C 22.9375 30.191406 22.414062 28.59375 22.414062 28.59375 Z M 21.984375 27.710938 " fill-opacity="1" fill-rule="nonzero"/><path fill="#074453" d="M 17.242188 15.871094 C 14.425781 15.296875 12.875 12.851562 12.851562 11.175781 C 12.824219 9.496094 16.097656 10.335938 16.097656 10.335938 C 16.097656 10.335938 14.402344 8.421875 15.476562 7.246094 C 16.550781 6.070312 18.554688 8.515625 21.15625 8.609375 C 23.757812 8.707031 26.375 7.316406 29.433594 8.730469 C 32.492188 10.144531 31.179688 13.953125 31.179688 13.953125 C 31.179688 13.953125 32.898438 13.878906 33.039062 16.492188 C 33.183594 19.101562 30.453125 22.984375 29.433594 24.371094 C 28.410156 25.761719 24.730469 26.003906 23.910156 23.773438 Z M 17.242188 15.871094 " fill-opacity="1" fill-rule="nonzero"/><path fill="#e26664" d="M 20.898438 25.878906 C 21.769531 27.980469 21.894531 29.558594 22.394531 30.160156 C 22.894531 30.761719 24.613281 30.035156 25.960938 28.984375 C 27.308594 27.929688 27.679688 27.632812 27.457031 26.429688 C 27.234375 25.226562 26.734375 23.851562 26.859375 22.550781 Z M 20.898438 25.878906 " fill-opacity="1" fill-rule="nonzero"/><path fill="#ffb5ab" d="M 16.25 12.949219 C 18.351562 16.210938 26.996094 15.960938 26.996094 15.960938 C 26.996094 15.960938 27.398438 19.722656 27.773438 19.730469 C 28.148438 19.738281 28.207031 16.933594 30.375 17.410156 C 32.539062 17.882812 32.238281 20.675781 31.015625 21.707031 C 29.796875 22.742188 28.242188 21.710938 28.242188 21.710938 C 28.242188 21.710938 26.527344 27.335938 21.582031 27.164062 C 17.664062 27.027344 16.226562 24.523438 16.121094 20.96875 C 16.015625 17.570312 16.25 12.949219 16.25 12.949219 Z M 16.25 12.949219 " fill-opacity="1" fill-rule="nonzero"/><path fill="#ffffff" d="M 27.363281 25.96875 C 27.519531 28.5 22.789062 30.167969 22.9375 30.375 C 23.085938 30.585938 24.65625 32.933594 25.367188 32.667969 C 26.078125 32.40625 29.019531 30.097656 29.25 29.214844 C 29.484375 28.332031 27.363281 25.96875 27.363281 25.96875 Z M 27.363281 25.96875 " fill-opacity="1" fill-rule="nonzero"/></svg>